<svg xmlns="http://www.w3.org/2000/svg" xmlns:xlink="http://www.w3.org/1999/xlink" width="1352.497" height="530.196" viewBox="0 0 1014.373 397.647"><path stroke-width=".399" stroke-dasharray=".3985,.99628" stroke-miterlimit="10" fill="none" stroke="silver" d="M189.744.395v314.65M274.784.394v314.65M529.907.394v314.65M620.616.394v314.65"/><path stroke-width=".797" stroke-miterlimit="10" fill="none" stroke="silver" d="M19.664.395v314.65M104.704.394v314.65M189.744.394v314.65M875.737.394v314.65M898.415.394v314.65M989.125.394v314.65"/><path stroke-width=".797" stroke-miterlimit="10" fill="none" stroke="#000" d="M22.254 305.123h79.86"/><path d="m19.664 305.123 4.144 2.072-1.554-2.072 1.554-2.072M104.704 305.123l-4.144-2.072 1.554 2.072-1.554 2.072"/><path stroke-width=".797" stroke-miterlimit="10" fill="none" stroke="#000" d="M192.335 305.123h334.98"/><path d="m189.744 305.123 4.145 2.072-1.554-2.072 1.554-2.072M529.906 305.123l-4.144-2.072 1.554 2.072-1.554 2.072"/><path stroke-width=".797" stroke-miterlimit="10" fill="none" stroke="#000" d="M532.496 305.123h340.65"/><path d="m529.906 305.123 4.145 2.072-1.555-2.072 1.555-2.072M875.737 305.123l-4.144-2.072 1.554 2.072-1.554 2.072"/><path stroke-width=".797" stroke-miterlimit="10" fill="none" stroke="#000" d="M901.005 305.123h85.53"/><path d="m898.415 305.123 4.144 2.072-1.554-2.072 1.554-2.072M989.124 305.123l-4.144-2.072 1.554 2.072-1.554 2.072"/><path d="M14.289 292.453h95.79v-17.18h-95.79z" fill="#fff"/><symbol id="a"><path d="M.055.056H.032C.013.056 0 .047 0 .029 0 .009.014.001.033.001H.12L.138 0C.155 0 .17.01.17.028.17.047.157.057.137.057L.117.056l.029.116.01.003h.143l.01-.002.029-.117-.02.001C.296.057.285.046.285.028.285.01.3 0 .317 0l.018.001h.087c.019 0 .033.008.033.028 0 .018-.013.027-.032.027H.4C.398.074.392.093.388.111.352.268.313.425.278.582.272.607.267.627.235.627H.209C.175.622.167.539.157.493L.067.109C.063.092.057.074.055.056M.158.23l.05.222.019.099.07-.321H.158z"/></symbol><symbol id="b"><path d="M.127.436H.055L.033.437C.012.437 0 .427 0 .408 0 .387.015.381.031.381h.096V.106C.135.033.189 0 .255 0c.07 0 .156.031.156.121L.412.14C.412.161.399.172.38.172.362.172.35.161.35.143V.126C.35.071.305.055.265.055.212.055.187.084.187.129l.001.029v.223h.166c.017 0 .035.003.035.027 0 .013-.007.026-.021.028h-.18v.092C.188.55.176.56.157.56.137.56.126.548.126.527L.127.509V.436z"/></symbol><symbol id="c"><path d="M.183.445C.067.432 0 .327 0 .221 0 .111.077 0 .198 0h.01c.119.013.183.119.183.222 0 .109-.076.223-.197.223H.183M.061.215.06.229C.06.305.113.39.198.39.279.39.331.3.331.227.331.145.277.055.194.055c-.082 0-.126.09-.133.16z"/></symbol><symbol id="d"><path d="M.103.394.102.403c0 .024-.018.028-.035.028L.046.43H.032C.014.43 0 .422 0 .403 0 .389.009.376.024.375h.029v-.32L.034.056C.015.056.001.046.001.027.001.011.011 0 .03 0h.091C.14 0 .154.008.154.027S.14.056.121.056L.102.055v.178c0 .029.001.057.011.085.012.029.034.063.068.063h.003c.04 0 .044-.055.044-.089V.055L.209.056C.19.056.176.046.176.027.176.008.19 0 .209 0H.3c.019 0 .029.011.029.027 0 .019-.014.029-.033.029L.277.055v.178c0 .029.001.057.011.085C.3.347.322.381.356.381h.003c.04 0 .044-.055.044-.089V.055L.384.056C.365.056.351.046.351.027.351.008.365 0 .384 0h.091c.019 0 .029.011.029.027C.504.046.49.056.471.056L.452.055v.192l.001.051c0 .061-.017.138-.091.138A.117.117 0 0 1 .28.398L.265.379C.255.417.219.436.187.436A.108.108 0 0 1 .103.394z"/></symbol><symbol id="e"><path d="M.149.375v-.32H.033C.011.055 0 .045 0 .028 0 .015.007.002.021 0h.294c.019 0 .03.012.03.028 0 .019-.014.027-.036.027H.21V.4C.21.428.193.43.178.43H.042C.029.43.007.428.007.403.007.384.02.374.044.374l.023.001h.082m.013.236C.141.611.126.589.126.571c0-.022.017-.043.041-.043C.19.528.21.546.21.569.21.591.193.612.169.612L.162.611z"/></symbol><symbol id="f"><path d="M.292.384.291.376c0-.022.017-.038.037-.038.023 0 .036.016.038.036 0 .07-.088.071-.138.071H.224A.207.207 0 0 1 .05.367.239.239 0 0 1 0 .221C0 .11.081 0 .216 0 .282 0 .35.036.374.102c.001.004.003.009.003.014 0 .019-.019.022-.033.022C.317.138.318.118.308.102A.098.098 0 0 0 .223.055a.166.166 0 0 0-.162.162V.22c0 .072.042.145.114.166A.425.425 0 0 0 .292.384z"/></symbol><symbol id="g"><path d="M.158.635C.079.626.016.63.004.464 0 .417 0 .37 0 .323V.254C0 .173.004.081.039.04.073 0 .134 0 .182 0h.045C.27 0 .318.002.351.031.397.072.399.17.399.248v.108c0 .05-.001.1-.008.149C.383.559.37.614.296.629a.51.51 0 0 1-.087.006H.158M.061.259.06.284v.101c0 .063.003.132.03.165.025.028.066.03.101.03h.013C.237.58.277.58.303.556.325.535.33.501.333.473.338.43.338.387.338.344V.293a.884.884 0 0 0-.01-.155C.316.076.283.055.197.055.14.055.084.059.07.144.063.182.065.221.061.259z"/></symbol><symbol id="h"><path d="M.141.375H.14l.001.021C.141.418.131.43.109.43H.032C.015.43.001.422.001.403.001.385.01.375.032.375h.047v-.32h-.05C.012.055 0 .043 0 .027 0 .007.015 0 .034 0h.152c.021 0 .032.009.032.028 0 .016-.01.027-.027.027H.14v.181c0 .078.047.145.119.145C.317.381.333.339.333.29V.055h-.05C.266.055.254.043.254.027.254.007.269 0 .288 0H.44c.021 0 .032.009.032.028 0 .016-.01.027-.027.027H.394v.229c0 .062-.012.152-.125.152C.221.436.167.415.141.375z"/></symbol><symbol id="i"><path d="M.062.202h.295c.02 0 .035.006.035.03v.01a.222.222 0 0 1-.063.159.181.181 0 0 1-.122.044C.086.445 0 .338 0 .222 0 .115.084 0 .216 0a.19.19 0 0 1 .161.077c.006.01.015.026.015.039C.392.13.38.141.362.141.334.141.332.119.322.102A.118.118 0 0 0 .226.054.173.173 0 0 0 .09.129a.209.209 0 0 0-.028.073m.001.051C.079.32.122.39.208.39.286.39.324.324.33.253H.063z"/></symbol><symbol id="j"><path d="M.061.557V.056H.033C.013.056 0 .048 0 .028 0 .012.011 0 .033 0l.018.001h.1c.018 0 .032.008.032.027C.183.048.17.056.15.056H.122v.235h.213V.056H.307C.285.056.274.046.274.028c0-.017.011-.027.032-.027h.1L.424 0c.022 0 .033.012.033.028 0 .02-.013.028-.033.028H.396v.501h.028c.019 0 .033.008.033.027S.444.612.425.612H.307C.285.612.274.602.274.585c0-.02.013-.028.033-.028h.028V.346H.122v.211H.15c.02 0 .033.008.033.028C.183.602.172.612.15.612H.032C.011.612 0 .602 0 .584 0 .566.011.557.033.557h.028z"/></symbol><use xlink:href="#a" transform="matrix(14.3462 0 0 -14.3462 18.871 288.245)" fill="#048"/><use xlink:href="#b" transform="matrix(14.3462 0 0 -14.3462 26.13 288.317)" fill="#048"/><use xlink:href="#c" transform="matrix(14.3462 0 0 -14.3462 33.906 288.317)" fill="#048"/><use xlink:href="#d" transform="matrix(14.3462 0 0 -14.3462 40.376 288.23)" fill="#048"/><use xlink:href="#e" transform="matrix(14.3462 0 0 -14.3462 48.883 288.23)" fill="#048"/><use xlink:href="#f" transform="matrix(14.3462 0 0 -14.3462 55.999 288.317)" fill="#048"/><use xlink:href="#g" transform="matrix(14.3462 0 0 -14.3462 63 288.403)" fill="#048"/><use xlink:href="#h" transform="matrix(14.3462 0 0 -14.3462 69.757 288.23)" fill="#048"/><use xlink:href="#i" transform="matrix(14.3462 0 0 -14.3462 77.619 288.317)" fill="#048"/><use xlink:href="#j" transform="matrix(14.3462 0 0 -14.3462 84.447 288.245)" fill="#048"/><use xlink:href="#c" transform="matrix(14.3462 0 0 -14.3462 92.209 288.317)" fill="#048"/><use xlink:href="#b" transform="matrix(14.3462 0 0 -14.3462 99.009 288.317)" fill="#048"/><path d="M12.215 117.201h99.938V82.016H12.215z" fill="#fff"/><symbol id="k"><path d="M.061.557V.056H.033C.013.056 0 .048 0 .028 0 .013.011 0 .031 0l.017.001h.07L.138 0c.017 0 .033.008.033.028S.158.056.138.056H.11l.001.495C.124.498.148.444.167.393L.271.108.295.042C.306.014.315.001.348.001h.008c.025 0 .028.018.028.032v.524h.028c.02 0 .033.008.033.028 0 .016-.01.027-.032.027H.327l-.02.001C.285.613.274.602.274.584c0-.018.011-.027.033-.027h.028V.062C.329.075.326.089.321.102.267.249.215.397.16.543.147.577.146.612.098.612h-.05L.031.613C.012.613.001.602.001.585c0-.019.012-.028.032-.028h.028z"/></symbol><symbol id="l"><path d="M.293.633H.292a.144.144 0 0 1-.093.032A.158.158 0 0 1 .04.508C.04.474.051.436.074.411V.41A.109.109 0 0 1 .052.342.12.12 0 0 1 .077.269.14.14 0 0 1 0 .146C0 .042.134 0 .224 0c.087 0 .218.035.227.135v.007c0 .12-.12.145-.2.145H.152C.119.287.098.314.098.345c0 .012.005.023.009.034a.164.164 0 0 1 .08-.028h.01a.158.158 0 0 1 .13.247c.019.008.04.018.061.018.016 0 .013-.029.043-.029.021 0 .034.017.034.034 0 .036-.039.051-.07.051A.157.157 0 0 1 .293.633M.052.138l-.001.01c0 .059.06.089.11.089h.067C.292.237.4.233.4.146.4.063.254.05.223.05.16.05.06.074.052.138m.049.361v.009c0 .053.042.107.097.107h.001c.054 0 .09-.05.095-.099V.507C.294.454.253.401.197.401.144.401.106.45.101.499z"/></symbol><symbol id="m"><path d="M.079.556V.055h-.05C.012.055 0 .043 0 .027 0 .007.015 0 .034 0h.152c.021 0 .032.009.032.028 0 .016-.01.027-.027.027H.14v.181c0 .078.047.145.119.145C.317.381.333.339.333.29V.055h-.05C.266.055.254.043.254.027.254.007.269 0 .288 0H.44c.021 0 .032.009.032.028 0 .016-.01.027-.027.027H.394v.229c0 .062-.012.152-.125.152C.221.436.167.415.141.375L.14.386v.197C.14.608.121.611.106.611H.023A.026.026 0 0 1 0 .585C0 .569.01.556.029.556h.05z"/></symbol><symbol id="n"><path d="M.079.563V.04c0-.021.009-.034.03-.034C.13.006.14.019.14.038v.023C.172.026.21 0 .259 0c.118 0 .193.117.193.224 0 .1-.063.219-.182.219A.181.181 0 0 1 .14.385V.59C.14.617.12.618.105.618h-.08C.011.616 0 .607 0 .591S.012.563.03.563h.049M.39.209C.383.136.335.056.252.056.193.056.15.115.14.172v.06L.139.271c0 .061.059.117.122.117.08 0 .13-.089.13-.161L.39.209z"/></symbol><symbol id="o"><path d="M.174.346.173.402c0 .021-.012.029-.032.029H.048L.03.432C.011.432 0 .421 0 .404 0 .386.011.376.033.376h.079v-.32H.031C.01.056 0 .044 0 .028 0 .009.012.001.032.001h.193L.268 0c.027 0 .045.005.045.029C.313.046.302.056.28.056H.173v.125C.173.26.2.345.298.376a.165.165 0 0 0 .043.006L.36.381c0-.02.016-.037.035-.037.018 0 .036.013.037.033 0 .049-.047.06-.083.06A.207.207 0 0 1 .205.383C.194.372.181.36.174.346z"/></symbol><symbol id="p"><path d="M.071.557V.056H.028C.01.056 0 .044 0 .028S.01 0 .032 0L.05.001h.363C.43.003.436.019.436.034L.435.053v.075c0 .018-.011.031-.03.031A.03.03 0 0 1 .373.127L.374.113V.056H.132v.501H.19c.018 0 .031.009.031.027 0 .018-.013.028-.032.028H.028C.01.612 0 .6 0 .584 0 .57.008.557.026.557h.045z"/></symbol><symbol id="q"><path d="M.059.046A.185.185 0 0 1 .19 0c.082 0 .184.03.184.13C.374.225.271.249.2.261L.167.267C.128.273.055.285.055.329c0 .053.082.061.126.061C.222.39.273.379.282.33.284.321.282.311.287.303.294.292.305.292.316.292c.028 0 .029.016.029.032v.075l.001.017C.346.432.337.445.32.445.305.445.296.434.292.419a.24.24 0 0 1-.105.026C.112.445 0 .424 0 .328 0 .275.045.242.091.227.142.21.197.21.248.196.279.187.319.166.319.129c0-.069-.1-.074-.13-.074a.121.121 0 0 0-.12.082C.059.162.061.181.029.181.002.181 0 .166 0 .151V.029C0 .009.01 0 .025 0c.022 0 .029.026.034.046z"/></symbol><use xlink:href="#k" transform="matrix(14.3462 0 0 -14.3462 18.943 94.991)" fill="#048"/><use xlink:href="#i" transform="matrix(14.3462 0 0 -14.3462 26.604 95.063)" fill="#048"/><use xlink:href="#e" transform="matrix(14.3462 0 0 -14.3462 34.308 94.977)" fill="#048"/><use xlink:href="#l" transform="matrix(14.3462 0 0 -14.3462 40.763 98.262)" fill="#048"/><use xlink:href="#m" transform="matrix(14.3462 0 0 -14.3462 47.893 94.977)" fill="#048"/><use xlink:href="#n" transform="matrix(14.3462 0 0 -14.3462 55.181 95.077)" fill="#048"/><use xlink:href="#c" transform="matrix(14.3462 0 0 -14.3462 63.057 95.063)" fill="#048"/><use xlink:href="#o" transform="matrix(14.3462 0 0 -14.3462 70.073 94.991)" fill="#048"/><use xlink:href="#p" transform="matrix(14.3462 0 0 -14.3462 77.332 94.991)" fill="#048"/><use xlink:href="#e" transform="matrix(14.3462 0 0 -14.3462 85.323 94.977)" fill="#048"/><use xlink:href="#q" transform="matrix(14.3462 0 0 -14.3462 92.38 95.063)" fill="#048"/><use xlink:href="#b" transform="matrix(14.3462 0 0 -14.3462 99.009 95.063)" fill="#048"/><symbol id="r"><path d="M.24.657C.29.657.315.614.315.56.315.503.278.456.223.418.182.464.158.508.158.558c0 .06.039.099.082.099M.219 0c.075 0 .142.027.208.085L.455.063A.288.288 0 0 1 .621.007L.642.005.647.03a.54.54 0 0 0-.165.118c.06.07.101.13.123.194.01.031.011.059-.012.103A.128.128 0 0 1 .517.428C.525.352.52.247.456.173a1.97 1.97 0 0 0-.21.221c.078.041.146.08.146.16 0 .088-.067.138-.148.138A.16.16 0 0 1 .081.533c0-.068.034-.115.066-.155C.08.337.001.286.001.188 0 .068.095 0 .219 0M.167.35C.233.271.31.191.4.11A.213.213 0 0 0 .249.049C.163.049.098.113.098.208A.18.18 0 0 0 .167.35z"/></symbol><use xlink:href="#r" transform="matrix(13.1985 0 0 -13.1985 17.018 113.082)" fill="#048"/><symbol id="s"><path d="M.061.568V.067H.033C.013.067 0 .059 0 .039 0 .023.011.011.033.011l.018.001h.1c.018 0 .032.008.032.027C.183.059.17.067.15.067H.122V.29h.074C.244.29.307.274.307.191V.15c0-.052 0-.15.09-.15.049 0 .084.047.084.101 0 .022-.014.03-.031.03C.436.131.419.127.419.106V.098C.418.081.413.055.397.055.371.055.368.099.368.124V.14l.001.05c0 .055-.015.085-.061.126a.165.165 0 0 1 .086.13v.011C.394.562.296.623.2.623H.032C.011.623.001.612.001.595c0-.018.012-.027.032-.027h.028M.122.345v.223h.089C.264.568.333.522.333.46V.456C.333.41.297.372.256.355a.21.21 0 0 0-.075-.01H.122z"/></symbol><symbol id="t"><path d="M.101.385A.46.46 0 0 0 .165.39C.216.39.289.364.289.293V.284C.289.274.284.271.275.271L.264.272C.167.272 0 .24 0 .127 0 .049.074 0 .145 0c.053 0 .104.012.15.044C.311.012.353.007.385.006h.031C.433.006.45.009.45.035.45.05.44.061.421.061H.392C.371.061.35.063.35.084v.187A.193.193 0 0 1 .338.35C.31.414.238.445.171.445H.147C.101.445.027.44.027.374c0-.02.017-.036.037-.036.022 0 .038.018.038.039L.101.385M.289.224V.139C.289.071.218.055.164.055.126.055.061.071.061.127c0 .059.086.079.13.089a.637.637 0 0 0 .098.008z"/></symbol><symbol id="u"><path d="M.312.562V.388a.166.166 0 0 1-.119.054C.09.442 0 .346 0 .222 0 .114.07 0 .183 0h.01c.045.003.099.03.118.066L.312.039c0-.022.009-.033.031-.033h.078c.018 0 .03.008.03.027 0 .015-.008.028-.027.028H.373v.526c0 .019-.009.03-.033.03H.265C.248.617.233.609.233.59c0-.017.012-.028.03-.028h.049M.061.208.06.223c0 .076.054.159.135.164H.2A.117.117 0 0 0 .313.272L.312.234v-.06C.3.114.256.055.189.055c-.08 0-.12.088-.128.153z"/></symbol><symbol id="v"><path d="M.157.556V.055H.035C.013.055 0 .047 0 .028 0 .016.007.003.021 0h.322C.36 0 .375.007.375.027a.027.027 0 0 1-.028.028H.218v.529C.218.608.2.611.184.611H.036C.02.611 0 .609 0 .583 0 .562.015.556.037.556h.12z"/></symbol><symbol id="w"><path d="M.063.556V.055h-.03C.011.055 0 .045 0 .027 0 .01.01 0 .032 0h.227c.025 0 .049.001.073.01a.17.17 0 0 1 .106.157.16.16 0 0 1-.126.153c.056.025.106.06.106.136 0 .093-.077.155-.173.155H.033C.013.611 0 .602 0 .583 0 .562.015.556.033.556h.03M.124.055V.29h.13A.118.118 0 0 0 .377.169C.377.107.325.061.264.055h-.14m0 .29v.211h.113C.278.556.322.549.348.497a.097.097 0 0 0 .009-.04.11.11 0 0 0-.053-.092.179.179 0 0 0-.099-.02H.124z"/></symbol><use xlink:href="#s" transform="matrix(14.3462 0 0 -14.3462 28.212 113.082)" fill="#048"/><use xlink:href="#t" transform="matrix(14.3462 0 0 -14.3462 35.959 112.996)" fill="#048"/><use xlink:href="#u" transform="matrix(14.3462 0 0 -14.3462 42.974 112.996)" fill="#048"/><use xlink:href="#e" transform="matrix(14.3462 0 0 -14.3462 50.95 112.91)" fill="#048"/><use xlink:href="#t" transform="matrix(14.3462 0 0 -14.3462 57.822 112.996)" fill="#048"/><use xlink:href="#v" transform="matrix(14.3462 0 0 -14.3462 65.24 112.91)" fill="#048"/><use xlink:href="#w" transform="matrix(14.3462 0 0 -14.3462 71.982 112.91)" fill="#048"/><use xlink:href="#t" transform="matrix(14.3462 0 0 -14.3462 79.686 112.996)" fill="#048"/><use xlink:href="#q" transform="matrix(14.3462 0 0 -14.3462 87.16 112.996)" fill="#048"/><use xlink:href="#e" transform="matrix(14.3462 0 0 -14.3462 94.678 112.91)" fill="#048"/><use xlink:href="#q" transform="matrix(14.3462 0 0 -14.3462 101.736 112.996)" fill="#048"/><path d="M24.226 315.302h75.915v-20.359H24.226z" fill="#fff"/><symbol id="x"><path d="M.239.609c0 .028.008.037.059.037.067 0 .124-.045.124-.16C.422.41.396.321.295.321.256.321.239.326.239.364v.245M.335 0v.036C.247.041.239.046.239.097v.178h.06c.094 0 .168.017.214.05.05.036.077.09.077.164 0 .08-.036.135-.085.165A.373.373 0 0 1 .31.692H0V.654C.071.651.079.646.079.595V.097C.079.046.071.041 0 .038V0h.335z"/></symbol><symbol id="y"><path d="M.216.311c0 .052.01.075.034.075.016 0 .031-.008.053-.021A.085.085 0 0 1 .349.349c.02 0 .04.011.051.026a.096.096 0 0 1 .016.057c0 .043-.028.07-.07.07C.304.502.271.475.213.414L.201.502.006.473V.437L.041.432C.057.43.065.421.065.381V.087C.065.045.057.041 0 .038V0h.302v.038C.225.042.216.045.216.087v.224z"/></symbol><symbol id="z"><path d="M.427.167C.397.11.354.078.293.078c-.1 0-.134.082-.134.187h.258c.036 0 .054.01.054.042C.471.389.44.515.247.515.067.515 0 .398 0 .258 0 .122.059 0 .245.001c.119 0 .184.058.218.146l-.036.02M.159.313c0 .072.019.156.084.156.061 0 .071-.076.071-.123C.314.319.306.313.283.313H.159z"/></symbol><symbol id="A"><path d="M.216.23A.253.253 0 0 1 .295.218c.148 0 .267.052.267.271 0 .166-.087.243-.181.243C.311.732.265.7.216.663L.198.732.006.703V.667L.041.662C.057.66.065.651.065.611V.087C.065.045.057.041 0 .038V0h.299v.038C.226.041.216.045.216.087V.23m0 .31c0 .021.002.041.007.055.013.037.038.06.08.06.047 0 .1-.026.1-.188C.403.343.376.264.299.264.255.264.229.287.22.331a.264.264 0 0 0-.004.051V.54z"/></symbol><symbol id="B"><path d="M.259.514C.077.514 0 .417 0 .257S.077 0 .259 0C.44 0 .517.097.517.257S.44.514.259.514m-.1-.257c0 .134.029.211.1.211.07 0 .099-.077.099-.211S.329.046.259.046c-.071 0-.1.077-.1.211z"/></symbol><symbol id="C"><path d="M.415.168C.381.1.342.077.287.077c-.065 0-.128.044-.128.2 0 .134.043.191.085.191.035 0 .052-.031.069-.091C.32.354.335.342.361.342c.035 0 .083.018.083.062 0 .071-.1.11-.191.11A.25.25 0 0 1 .068.447.266.266 0 0 1 0 .253C0 .085.094 0 .235 0 .318 0 .411.028.45.152L.415.168z"/></symbol><symbol id="D"><path d="M.012.048C.05.013.125 0 .181 0c.122 0 .206.055.206.163C.387.249.333.29.241.325.183.346.14.37.14.41c0 .031.022.058.063.058.051 0 .094-.046.113-.122h.037v.133a.3.3 0 0 1-.15.035C.081.514.005.457.005.356c0-.073.059-.121.147-.154.051-.018.1-.047.1-.095C.252.069.227.046.183.046.117.046.064.115.038.197H0L.012.048z"/></symbol><use xlink:href="#x" transform="matrix(13.1985 0 0 -13.1985 28.87 308.132)"/><use xlink:href="#y" transform="matrix(13.1985 0 0 -13.1985 37.199 308.132)"/><use xlink:href="#z" transform="matrix(13.1985 0 0 -13.1985 42.861 308.304)"/><use xlink:href="#A" transform="matrix(13.1985 0 0 -13.1985 49.5 311.168)"/><use xlink:href="#y" transform="matrix(13.1985 0 0 -13.1985 57.71 308.132)"/><use xlink:href="#B" transform="matrix(13.1985 0 0 -13.1985 63.543 308.29)"/><use xlink:href="#C" transform="matrix(13.1985 0 0 -13.1985 71.264 308.29)"/><use xlink:href="#z" transform="matrix(13.1985 0 0 -13.1985 77.771 308.304)"/><use xlink:href="#D" transform="matrix(13.1985 0 0 -13.1985 84.674 308.29)"/><use xlink:href="#D" transform="matrix(13.1985 0 0 -13.1985 90.547 308.29)"/><path d="M288.765 315.5h85.427v-20.754h-85.427z" fill="#fff"/><symbol id="E"><path d="M.239.595c0 .051.008.056.079.059v.038H0V.654C.071.651.079.646.079.595V.097C.079.046.071.041 0 .038V0h.318v.038C.247.041.239.046.239.097v.498z"/></symbol><symbol id="F"><path d="M.517.063a.136.136 0 0 0-.048.005C.456.072.437.084.437.143v.231c0 .062-.01.14-.187.14C.103.514.013.456.013.391c0-.045.064-.063.09-.063.022 0 .033.016.041.04.028.085.06.1.088.1C.261.468.29.451.29.394V.341C.255.317.171.292.106.27.027.243 0 .202 0 .145 0 .07.05 0 .151 0c.064 0 .108.035.143.058C.307.027.324 0 .372 0A.46.46 0 0 1 .52.03L.517.063M.29.146C.288.092.255.078.228.078.189.078.154.109.154.162c0 .047.016.07.046.087.031.017.066.031.09.042V.146z"/></symbol><symbol id="G"><path d="M.313.452v.05H.209v.126H.151L.063.502H0v-.05h.058V.129C.058.038.126 0 .182 0c.041 0 .103.019.159.054L.33.085a.153.153 0 0 0-.057-.01C.235.075.209.103.209.167v.285h.104z"/></symbol><symbol id="H"><path d="M.065.087C.065.045.057.041 0 .038V0h.281v.038C.224.041.216.045.216.087v.409L.209.502.006.473V.437L.041.432C.057.43.065.421.065.381V.087m.07.458c.055 0 .092.04.092.088C.227.68.192.72.135.72.079.72.044.68.044.633c0-.048.035-.088.091-.088z"/></symbol><symbol id="I"><path d="M.538.348C.537.442.49.502.387.502.329.502.282.472.216.433L.203.502.006.473V.437L.041.432C.057.43.065.421.065.381V.087C.065.045.057.041 0 .038V0h.269v.038L.248.04C.227.042.216.047.216.08v.237c0 .022.003.045.01.059.013.026.04.049.082.049.051 0 .077-.031.079-.091V.08C.387.047.376.042.355.04L.334.038V0h.269v.038C.546.041.538.045.538.087v.261z"/></symbol><use xlink:href="#x" transform="matrix(13.1985 0 0 -13.1985 293.406 308.329)"/><use xlink:href="#E" transform="matrix(13.1985 0 0 -13.1985 301.72 308.329)"/><use xlink:href="#B" transform="matrix(13.1985 0 0 -13.1985 309.574 308.487)"/><use xlink:href="#A" transform="matrix(13.1985 0 0 -13.1985 317.097 311.365)"/><use xlink:href="#z" transform="matrix(13.1985 0 0 -13.1985 325.412 308.5)"/><use xlink:href="#y" transform="matrix(13.1985 0 0 -13.1985 332.143 308.329)"/><use xlink:href="#F" transform="matrix(13.1985 0 0 -13.1985 338.162 308.487)"/><use xlink:href="#G" transform="matrix(13.1985 0 0 -13.1985 345.21 308.487)"/><use xlink:href="#H" transform="matrix(13.1985 0 0 -13.1985 350.014 308.329)"/><use xlink:href="#B" transform="matrix(13.1985 0 0 -13.1985 354.29 308.487)"/><use xlink:href="#I" transform="matrix(13.1985 0 0 -13.1985 361.906 308.329)"/><path d="M628.798 315.5h85.685v-20.754h-85.685z" fill="#fff"/><use xlink:href="#E" transform="matrix(13.1985 0 0 -13.1985 633.434 308.329)"/><use xlink:href="#x" transform="matrix(13.1985 0 0 -13.1985 638.503 308.329)"/><use xlink:href="#B" transform="matrix(13.1985 0 0 -13.1985 649.853 308.487)"/><use xlink:href="#A" transform="matrix(13.1985 0 0 -13.1985 657.377 311.365)"/><use xlink:href="#z" transform="matrix(13.1985 0 0 -13.1985 665.692 308.5)"/><use xlink:href="#y" transform="matrix(13.1985 0 0 -13.1985 672.436 308.329)"/><use xlink:href="#F" transform="matrix(13.1985 0 0 -13.1985 678.441 308.487)"/><use xlink:href="#G" transform="matrix(13.1985 0 0 -13.1985 685.503 308.487)"/><use xlink:href="#H" transform="matrix(13.1985 0 0 -13.1985 690.294 308.329)"/><use xlink:href="#B" transform="matrix(13.1985 0 0 -13.1985 694.57 308.487)"/><use xlink:href="#I" transform="matrix(13.1985 0 0 -13.1985 702.186 308.329)"/><path d="M914.454 315.5h52.961v-20.754h-52.96z" fill="#fff"/><symbol id="J"><path d="M.342.046C.197.046.179.225.177.361c.002.128.02.315.165.315.145 0 .163-.187.165-.315C.505.225.487.046.342.046m0 .676C.112.722 0 .587 0 .361 0 .135.112 0 .342 0c.23 0 .342.135.342.361 0 .226-.112.361-.342.361z"/></symbol><symbol id="K"><path d="M.389.012h.208V.05C.54.053.532.057.532.099v.409L.525.514.322.485V.449L.357.444C.373.442.381.433.381.393V.182A.173.173 0 0 0 .373.126C.364.103.338.079.294.079.241.079.21.11.21.188v.32L.203.514 0 .485V.449L.035.444C.051.442.059.433.059.393V.15C.059.033.132 0 .204 0c.085 0 .137.046.177.068L.389.012z"/></symbol><use xlink:href="#J" transform="matrix(13.1985 0 0 -13.1985 919.206 308.527)"/><use xlink:href="#K" transform="matrix(13.1985 0 0 -13.1985 929.013 308.487)"/><use xlink:href="#G" transform="matrix(13.1985 0 0 -13.1985 937.434 308.487)"/><use xlink:href="#A" transform="matrix(13.1985 0 0 -13.1985 942.145 311.365)"/><use xlink:href="#K" transform="matrix(13.1985 0 0 -13.1985 950.315 308.487)"/><use xlink:href="#G" transform="matrix(13.1985 0 0 -13.1985 958.736 308.487)"/><path d="M2.655 266.855h34.017v-22.678H2.655z" fill="#fff"/><path stroke-width=".797" stroke-miterlimit="10" fill="none" stroke="#000" d="M2.655 266.855h34.017v-22.678H2.655z"/><symbol id="L"><path d="M.21.692.173.523h.03c.041.116.074.134.185.134h.195C.393.446.197.229 0 .013L.004 0h.571l.051.176h-.03C.543.053.5.035.342.035H.139l.584.644-.005.013H.21z"/></symbol><use xlink:href="#L" transform="matrix(13.1985 0 0 -13.1985 13.652 259.016)"/><symbol id="M"><path d="M.027.486.021.462.078.457C.105.455.108.446.099.411L.015.098C0 .041.013 0 .067 0c.072 0 .128.068.162.144L.205.158C.187.123.143.052.115.052c-.02 0-.019.023-.01.055l.109.402-.005.005L.027.486m.177.241C.161.727.139.693.139.661c0-.037.025-.056.055-.056.039 0 .064.027.064.067 0 .039-.026.055-.054.055z"/></symbol><use xlink:href="#M" transform="matrix(9.1656 0 0 -9.1656 22.91 261.278)"/><path d="M2.655 68.427h34.017V45.75H2.655z" fill="#fff"/><path stroke-width=".797" stroke-miterlimit="10" fill="none" stroke="#000" d="M2.655 68.427h34.017V45.75H2.655z"/><symbol id="N"><path d="M.103.378C.103.361.108.35.121.35.133.35.16.36.208.36.293.36.341.283.341.196.341.077.282.035.211.035c-.066 0-.109.05-.128.106C.077.16.067.169.053.169.035.169 0 .15 0 .114 0 .071.069 0 .21 0c.145 0 .236.073.236.201 0 .134-.115.174-.17.179v.004C.33.393.417.433.417.532c0 .111-.087.16-.194.16C.091.692.026.616.026.573c0-.031.035-.048.049-.048.013 0 .021.007.025.02.022.068.06.112.116.112.079 0 .098-.07.098-.126C.314.471.293.396.208.396c-.048 0-.075.01-.087.01C.108.406.103.396.103.378z"/></symbol><use xlink:href="#N" transform="matrix(9.1656 0 0 -9.1656 9.183 56.55)"/><symbol id="O"><path d="M.086.012c.017.065.036.146.052.204.036.131.086.217.124.217C.293.433.3.408.332.408c.025 0 .047.033.047.062C.38.497.366.514.334.514.278.514.209.451.155.343H.153l.045.166-.005.005L.021.486.015.462.077.457C.101.455.099.441.092.409L0 0l.086.012z"/></symbol><use xlink:href="#O" transform="matrix(13.1985 0 0 -13.1985 15.669 61.806)"/><symbol id="P"><path d="M.476.15C.452.105.425.052.397.052.378.052.37.075.348.164L.316.295c.036.064.087.144.116.144A.055.055 0 0 0 .46.431C.47.427.48.423.492.423c.022 0 .043.021.043.048 0 .031-.023.043-.051.043C.431.514.386.466.351.41L.307.342H.305L.265.51.259.514.094.464.097.44l.075.005C.19.446.197.441.208.395L.244.25.216.202C.173.129.136.077.112.077c-.01 0-.02.004-.029.009C.073.091.06.101.043.101.017.101 0 .075 0 .051 0 .022.024 0 .064 0c.068 0 .107.068.148.135l.04.066h.002L.272.123C.291.043.31 0 .361 0c.073 0 .111.075.141.136L.476.15z"/></symbol><use xlink:href="#M" transform="matrix(9.1656 0 0 -9.1656 21.283 63.91)"/><use xlink:href="#P" transform="matrix(9.1656 0 0 -9.1656 24.812 63.91)"/><path d="M2.655 40.08h34.017V17.403H2.655z" fill="#fff"/><path stroke-width=".797" stroke-miterlimit="10" fill="none" stroke="#000" d="M2.655 40.08h34.017V17.403H2.655z"/><symbol id="Q"><path d="M.386.604.41.672.405.68H.071L.061.671.041.336.065.324c.042.048.083.071.137.071.064 0 .134-.047.134-.179C.336.113.294.035.207.035c-.07 0-.106.051-.126.108C.076.158.067.167.053.167.033.167 0 .147 0 .114 0 .068.07 0 .2 0c.165 0 .24.1.24.227 0 .14-.088.212-.207.212A.235.235 0 0 1 .087.386L.085.388l.023.187C.111.6.118.604.137.604h.249z"/></symbol><use xlink:href="#Q" transform="matrix(9.1656 0 0 -9.1656 9.303 28.204)"/><use xlink:href="#O" transform="matrix(13.1985 0 0 -13.1985 15.669 33.46)"/><use xlink:href="#M" transform="matrix(9.1656 0 0 -9.1656 21.283 35.563)"/><use xlink:href="#P" transform="matrix(9.1656 0 0 -9.1656 24.812 35.563)"/><path d="M87.696 266.855h34.016v-22.678H87.696z" fill="#fff"/><path stroke-width=".797" stroke-miterlimit="10" fill="none" stroke="#000" d="M87.696 266.855h34.016v-22.678H87.696z"/><symbol id="R"><path d="M.328 0v.029L.244.036C.223.038.211.046.211.085v.589L.206.68 0 .645V.62L.093.609C.11.607.117.599.117.57V.085C.117.066.114.054.108.047.103.04.095.037.084.036L0 .029V0h.328z"/></symbol><use xlink:href="#R" transform="matrix(9.1656 0 0 -9.1656 93.2 254.865)"/><symbol id="S"><path d="M0 .693V0h.18v.281h.183c.123 0 .202.107.202.206a.204.204 0 0 1-.21.206H0m.05-.05h.08V.05H.05v.593M.18.331v.312h.178V.331H.18m.337.156C.517.423.47.348.408.337v.301C.475.62.517.549.517.487z"/></symbol><use xlink:href="#S" transform="matrix(13.1985 0 0 -13.1985 98.26 260.073)"/><use xlink:href="#M" transform="matrix(9.1656 0 0 -9.1656 107.26 262.335)"/><symbol id="T"><path d="m.427.281.151.221H.505L.423.343c0 .134-.037.171-.145.171C.085.514 0 .308 0 .163 0 .076.038 0 .147 0c.074 0 .136.073.18.136L.326.106c0-.03.004-.058.016-.078C.353.01.366 0 .389 0c.024 0 .058.008.084.028a.295.295 0 0 1 .085.116L.534.158C.508.107.466.052.444.052.416.052.416.104.416.128c0 .044.005.102.011.153M.332.213C.28.129.228.054.162.054c-.05 0-.066.05-.066.106 0 .116.062.319.183.319.048 0 .062-.066.062-.141A.993.993 0 0 0 .332.213z"/></symbol><use xlink:href="#T" transform="matrix(9.1656 0 0 -9.1656 111 262.335)"/><path d="M87.696 238.508h34.016V215.83H87.696z" fill="#fff"/><path stroke-width=".797" stroke-miterlimit="10" fill="none" stroke="#000" d="M87.696 238.508h34.016V215.83H87.696z"/><symbol id="U"><path d="M.355.163C.319.116.265.049.19.049c-.07 0-.091.06-.091.139L.1.204c.168.034.241.074.284.114a.128.128 0 0 1 .042.096c0 .053-.042.1-.124.1A.28.28 0 0 1 .083.4.381.381 0 0 1 0 .164C0 .024.091 0 .149 0 .222 0 .31.032.378.143l-.023.02M.102.238c.017.121.092.241.172.241C.309.479.332.455.332.42.332.35.271.274.102.238z"/></symbol><use xlink:href="#U" transform="matrix(13.1985 0 0 -13.1985 94.844 228.39)"/><symbol id="V"><path d="M.196.692.258.687C.282.685.281.672.273.637L.151.066C.147.047.14.035.128.035S.098.048.071.088C.065.097.058.108.045.108.023.108 0 .083 0 .058.001.025.043 0 .095 0c.046 0 .079.015.107.05a.51.51 0 0 1 .071.189l.113.5-.005.005L.202.716.196.692m.175.265C.328.957.306.923.306.891c0-.037.025-.056.055-.056.039 0 .064.027.064.067 0 .039-.026.055-.054.055z"/></symbol><symbol id="W"><path d="M.412.379C.412.307.352.035.205.035.154.035.123.071.123.121c0 .048.021.117.053.175.045.08.12.166.182.166.037 0 .054-.026.054-.083M.26.749.255.754.076.73.07.707.127.7C.152.697.156.69.147.651L0 .012h.036L.067.07C.085.028.136 0 .193 0 .31 0 .395.078.444.166.494.254.51.343.51.388.51.462.477.514.403.514.327.514.228.445.151.308H.149L.26.749z"/></symbol><use xlink:href="#M" transform="matrix(9.1656 0 0 -9.1656 101.45 230.494)"/><use xlink:href="#V" transform="matrix(9.1656 0 0 -9.1656 104.941 232.602)"/><use xlink:href="#W" transform="matrix(9.1656 0 0 -9.1656 110.258 230.494)"/><path d="M87.696 210.16h34.016v-22.676H87.696z" fill="#fff"/><path stroke-width=".797" stroke-miterlimit="10" fill="none" stroke="#000" d="M87.696 210.16h34.016v-22.676H87.696z"/><use xlink:href="#N" transform="matrix(9.1656 0 0 -9.1656 98.771 199.362)"/><symbol id="X"><path d="M.224.657C.319.657.346.509.346.346S.319.035.224.035.102.183.102.346s.027.311.122.311m0 .035C.059.692 0 .546 0 .346 0 .146.059 0 .224 0s.224.146.224.346c0 .2-.059.346-.224.346z"/></symbol><use xlink:href="#X" transform="matrix(13.1985 0 0 -13.1985 104.425 204.618)"/><path d="M87.696 153.467h34.016V130.79H87.696z" fill="#fff"/><path stroke-width=".797" stroke-miterlimit="10" fill="none" stroke="#000" d="M87.696 153.467h34.016V130.79H87.696z"/><use xlink:href="#Q" transform="matrix(9.1656 0 0 -9.1656 98.89 142.669)"/><use xlink:href="#X" transform="matrix(13.1985 0 0 -13.1985 104.425 147.925)"/><path d="M87.262 69.17h34.884V45.006H87.262z" fill="#fff"/><path stroke-width=".797" stroke-miterlimit="10" fill="none" stroke="#000" d="M87.262 69.17h34.884V45.006H87.262z"/><use xlink:href="#N" transform="matrix(9.1656 0 0 -9.1656 91.717 55.464)"/><use xlink:href="#O" transform="matrix(13.1985 0 0 -13.1985 98.203 60.72)"/><use xlink:href="#M" transform="matrix(9.1656 0 0 -9.1656 103.817 62.824)"/><use xlink:href="#V" transform="matrix(9.1656 0 0 -9.1656 107.31 64.932)"/><use xlink:href="#P" transform="matrix(9.1656 0 0 -9.1656 112.35 62.824)"/><path d="M87.262 40.823h34.884V16.66H87.262z" fill="#fff"/><path stroke-width=".797" stroke-miterlimit="10" fill="none" stroke="#000" d="M87.262 40.823h34.884V16.66H87.262z"/><use xlink:href="#Q" transform="matrix(9.1656 0 0 -9.1656 91.837 27.118)"/><use xlink:href="#O" transform="matrix(13.1985 0 0 -13.1985 98.203 32.373)"/><use xlink:href="#M" transform="matrix(9.1656 0 0 -9.1656 103.817 34.477)"/><use xlink:href="#V" transform="matrix(9.1656 0 0 -9.1656 107.31 36.585)"/><use xlink:href="#P" transform="matrix(9.1656 0 0 -9.1656 112.35 34.477)"/><path stroke-width=".797" stroke-miterlimit="10" fill="none" stroke="#000" d="M37.07 255.516h49.52"/><path stroke-width=".638" stroke-linecap="round" stroke-linejoin="round" fill="none" stroke="#000" d="M85.036 253.444c.13.777 1.554 1.942 1.942 2.072-.388.13-1.813 1.295-1.942 2.072"/><path stroke-width=".797" stroke-miterlimit="10" fill="none" stroke="#000" d="M37.07 57.088h49.086"/><path stroke-width=".638" stroke-linecap="round" stroke-linejoin="round" fill="none" stroke="#000" d="M84.602 55.016c.13.777 1.554 1.943 1.942 2.072-.388.13-1.813 1.295-1.942 2.073"/><path stroke-width=".797" stroke-miterlimit="10" fill="none" stroke="#000" d="M37.07 28.742h49.086"/><path stroke-width=".638" stroke-linecap="round" stroke-linejoin="round" fill="none" stroke="#000" d="M84.602 26.67c.13.776 1.554 1.942 1.942 2.072-.388.129-1.813 1.295-1.942 2.072"/><path d="M172.736 267.71h34.017v-24.389h-34.017z" fill="#fff"/><path stroke-width=".797" stroke-miterlimit="10" fill="none" stroke="#000" d="M172.736 267.71h34.017v-24.389h-34.017z"/><use xlink:href="#R" transform="matrix(9.1656 0 0 -9.1656 178.24 253.666)"/><use xlink:href="#S" transform="matrix(13.1985 0 0 -13.1985 183.3 258.874)"/><symbol id="Y"><path d="m.318.464.011.038H.202l.034.119-.012.007L.127.551.114.502H.033L.022.464h.083L.015.098C0 .041.012 0 .062 0c.08 0 .144.066.184.141L.224.158C.201.119.15.052.119.052.098.052.098.075.104.1l.089.364h.125z"/></symbol><use xlink:href="#Y" transform="matrix(9.1656 0 0 -9.1656 192.545 253.776)"/><use xlink:href="#M" transform="matrix(9.1656 0 0 -9.1656 192.3 263.533)"/><use xlink:href="#T" transform="matrix(9.1656 0 0 -9.1656 196.039 263.533)"/><path d="M170.722 212.103h38.045v-26.561h-38.045z" fill="#fff"/><path stroke-width=".797" stroke-miterlimit="10" fill="none" stroke="#000" d="M170.722 212.103h38.045v-26.561h-38.045z"/><use xlink:href="#N" transform="matrix(9.1656 0 0 -9.1656 175.176 195.998)"/><use xlink:href="#S" transform="matrix(13.1985 0 0 -13.1985 180.989 201.095)"/><use xlink:href="#Y" transform="matrix(9.1656 0 0 -9.1656 190.233 195.998)"/><use xlink:href="#M" transform="matrix(9.1656 0 0 -9.1656 189.988 205.755)"/><use xlink:href="#P" transform="matrix(9.1656 0 0 -9.1656 193.517 205.755)"/><symbol id="Z"><path d="M.024.593C.05.644.092.699.119.699.203.699.217.503.217.361c0-.038 0-.073-.003-.098C.19.184.136.054.136.008.136.004.141 0 .158 0c.03 0 .077.028.079.042.009.046.034.237.034.237C.305.362.4.556.437.606c.057.079.128.025.128.122 0 .014-.019.025-.053.025C.43.753.327.499.275.372A.645.645 0 0 1 .287.51c0 .119-.019.241-.123.241C.091.751.034.685 0 .607L.024.593z"/></symbol><use xlink:href="#Z" transform="matrix(9.1656 0 0 -9.1656 198.72 207.927)"/><path d="M167.853 155.41h43.783v-26.562h-43.783z" fill="#fff"/><path stroke-width=".797" stroke-miterlimit="10" fill="none" stroke="#000" d="M167.853 155.41h43.783v-26.562h-43.783z"/><use xlink:href="#Q" transform="matrix(9.1656 0 0 -9.1656 172.427 139.305)"/><use xlink:href="#S" transform="matrix(13.1985 0 0 -13.1985 178.12 144.402)"/><symbol id="aa"><path d="M.076.696.079.671l.068.002C.169.674.174.657.182.605a3.7 3.7 0 0 0 .033-.35.304.304 0 0 0-.024-.124C.173.089.147.06.127.06.112.06.101.071.086.091.074.107.066.115.051.115.025.114 0 .084 0 .055 0 .028.029 0 .073 0c.085 0 .122.063.21.215.02.034.08.14.142.242.057.094.12.191.12.231 0 .035-.011.056-.018.056A.157.157 0 0 1 .449.719.523.523 0 0 0 .436.581 1.712 1.712 0 0 0 .295.303H.292a4.421 4.421 0 0 1-.04.437L.244.744.076.696z"/></symbol><use xlink:href="#Y" transform="matrix(9.1656 0 0 -9.1656 187.364 139.305)"/><use xlink:href="#M" transform="matrix(9.1656 0 0 -9.1656 187.12 149.062)"/><use xlink:href="#P" transform="matrix(9.1656 0 0 -9.1656 190.648 149.062)"/><use xlink:href="#aa" transform="matrix(9.1656 0 0 -9.1656 196.294 151.17)"/><use xlink:href="#Z" transform="matrix(9.1656 0 0 -9.1656 201.588 151.234)"/><path stroke-width=".797" stroke-miterlimit="10" fill="none" stroke="#000" d="M122.11 255.516h49.52"/><path stroke-width=".638" stroke-linecap="round" stroke-linejoin="round" fill="none" stroke="#000" d="M170.076 253.444c.13.777 1.554 1.942 1.943 2.072-.389.13-1.813 1.295-1.943 2.072"/><path stroke-width=".797" stroke-miterlimit="10" fill="none" stroke="#000" d="M122.11 198.822h47.506"/><path stroke-width=".638" stroke-linecap="round" stroke-linejoin="round" fill="none" stroke="#000" d="M168.062 196.75c.13.777 1.554 1.943 1.943 2.072-.389.13-1.814 1.296-1.943 2.073"/><path stroke-width=".797" stroke-miterlimit="10" fill="none" stroke="#000" d="M122.11 142.129h44.637"/><path stroke-width=".638" stroke-linecap="round" stroke-linejoin="round" fill="none" stroke="#000" d="M165.193 140.057c.13.777 1.554 1.942 1.942 2.072-.388.13-1.813 1.295-1.942 2.072"/><path d="M246.438 227.17c0-7.829-6.346-14.174-14.173-14.174-7.828 0-14.174 6.345-14.174 14.173s6.346 14.174 14.174 14.174c7.827 0 14.173-6.346 14.173-14.174zm-14.173 0" fill="#f3a3b2"/><path stroke-width=".797" stroke-miterlimit="10" fill="none" stroke="#000" d="M246.438 227.17c0-7.829-6.346-14.174-14.173-14.174-7.828 0-14.174 6.345-14.174 14.173s6.346 14.174 14.174 14.174c7.827 0 14.173-6.346 14.173-14.174zm-14.173 0"/><path stroke-width=".797" stroke-miterlimit="10" fill="none" stroke="#000" d="M218.091 227.17h14.174m0 0c4.251-7.365 4.251-7.365 10.022-10.023m-10.022 10.022c4.251 7.365 4.251 7.365 10.022 10.022"/><path d="M236.234 227.17a3.969 3.969 0 1 0-7.938 0 3.969 3.969 0 0 0 7.938 0zm-3.97 0" fill="#fff"/><path stroke-width=".797" stroke-miterlimit="10" fill="none" stroke="#000" d="M236.234 227.17a3.969 3.969 0 1 0-7.938 0 3.969 3.969 0 0 0 7.938 0zm-3.97 0"/><path d="M246.438 170.476c0-7.828-6.346-14.174-14.173-14.174-7.828 0-14.174 6.346-14.174 14.174 0 7.827 6.346 14.173 14.174 14.173 7.827 0 14.173-6.346 14.173-14.173zm-14.173 0" fill="#78a3ce"/><path stroke-width=".797" stroke-miterlimit="10" fill="none" stroke="#000" d="M246.438 170.476c0-7.828-6.346-14.174-14.173-14.174-7.828 0-14.174 6.346-14.174 14.174 0 7.827 6.346 14.173 14.174 14.173 7.827 0 14.173-6.346 14.173-14.173zm-14.173 0"/><path stroke-width=".797" stroke-miterlimit="10" fill="none" stroke="#000" d="M218.091 170.476h14.174m0 0c4.251-7.365 4.251-7.365 10.022-10.022m-10.022 10.022c4.251 7.364 4.251 7.364 10.022 10.021"/><path d="M236.234 170.476a3.969 3.969 0 1 0-7.938 0 3.969 3.969 0 0 0 7.938 0zm-3.97 0" fill="#fff"/><path stroke-width=".797" stroke-miterlimit="10" fill="none" stroke="#000" d="M236.234 170.476a3.969 3.969 0 1 0-7.938 0 3.969 3.969 0 0 0 7.938 0zm-3.97 0"/><path d="M246.438 113.782c0-7.828-6.346-14.173-14.173-14.173-7.828 0-14.174 6.345-14.174 14.173s6.346 14.173 14.174 14.173c7.827 0 14.173-6.345 14.173-14.173zm-14.173 0" fill="#62b991"/><path stroke-width=".797" stroke-miterlimit="10" fill="none" stroke="#000" d="M246.438 113.782c0-7.828-6.346-14.173-14.173-14.173-7.828 0-14.174 6.345-14.174 14.173s6.346 14.173 14.174 14.173c7.827 0 14.173-6.345 14.173-14.173zm-14.173 0"/><path stroke-width=".797" stroke-miterlimit="10" fill="none" stroke="#000" d="M218.091 113.782h14.174m0 0c4.251-7.364 4.251-7.364 10.022-10.022m-10.022 10.022c4.251 7.364 4.251 7.364 10.022 10.022"/><path d="M236.234 113.782a3.969 3.969 0 1 0-7.938 0 3.969 3.969 0 0 0 7.938 0zm-3.97 0" fill="#fff"/><path stroke-width=".797" stroke-miterlimit="10" fill="none" stroke="#000" d="M236.234 113.782a3.969 3.969 0 1 0-7.938 0 3.969 3.969 0 0 0 7.938 0zM207.151 243.912l12.401-8.268"/><path stroke-width=".63797448" stroke-linecap="round" stroke-linejoin="round" fill="none" stroke="#000" d="M217.11 234.782c.538.575 2.37.754 2.765.647-.251.323-.79 2.083-.467 2.801"/><path stroke-width=".797" stroke-miterlimit="10" fill="none" stroke="#000" d="m209.165 185.875 10.387-6.924"/><path stroke-width=".6379681" stroke-linecap="round" stroke-linejoin="round" fill="none" stroke="#000" d="M217.11 178.089c.538.574 2.37.754 2.765.646-.251.323-.79 2.083-.467 2.802"/><path stroke-width=".797" stroke-miterlimit="10" fill="none" stroke="#000" d="m210.263 128.45 9.29-6.193"/><path stroke-width=".6379681" stroke-linecap="round" stroke-linejoin="round" fill="none" stroke="#000" d="M217.11 121.395c.538.575 2.37.754 2.765.646-.251.324-.79 2.084-.467 2.802"/><path d="M257.777 212.18h34.016v-26.715h-34.016z" fill="#fff"/><path stroke-width=".797" stroke-miterlimit="10" fill="none" stroke="#000" d="M257.777 212.18h34.016v-26.715h-34.016z"/><use xlink:href="#R" transform="matrix(9.1656 0 0 -9.1656 263.43 195.81)"/><symbol id="ab"><path d="M0 .693V0h.18v.693H0m.05-.05h.08V.05H.05v.593z"/></symbol><use xlink:href="#ab" transform="matrix(13.1985 0 0 -13.1985 268.49 201.018)"/><use xlink:href="#M" transform="matrix(9.1656 0 0 -9.1656 272.566 205.832)"/><use xlink:href="#V" transform="matrix(9.1656 0 0 -9.1656 276.058 207.94)"/><symbol id="ac"><path d="M.415.984C.279.984.178.831.151.703L0 0l.095.028.056.259C.176.25.231.23.276.23c.165 0 .291.149.291.314 0 .075-.036.155-.152.161.086.02.15.083.15.171a.104.104 0 0 1-.034.078C.504.979.454.984.415.984M.466.498C.434.349.391.267.281.267.235.267.184.312.184.408c0 .022.003.047.009.074l.053.244c.017.081.052.221.158.221.055 0 .077-.035.077-.083C.481.812.463.722.384.722c-.037 0-.057.01-.069.01C.296.732.287.721.283.702L.281.689c0-.012.007-.017.021-.017.014 0 .037.01.073.01C.438.682.47.608.47.54A.193.193 0 0 0 .466.498z"/></symbol><use xlink:href="#ac" transform="matrix(9.1656 0 0 -9.1656 281.014 207.94)"/><path d="M255.718 155.37h38.133v-26.482h-38.133z" fill="#fff"/><path stroke-width=".797" stroke-miterlimit="10" fill="none" stroke="#000" d="M255.718 155.37h38.133v-26.482h-38.133z"/><use xlink:href="#N" transform="matrix(9.1656 0 0 -9.1656 260.171 139.345)"/><use xlink:href="#ab" transform="matrix(13.1985 0 0 -13.1985 265.984 144.442)"/><use xlink:href="#M" transform="matrix(9.1656 0 0 -9.1656 270.06 149.022)"/><use xlink:href="#V" transform="matrix(9.1656 0 0 -9.1656 273.552 151.13)"/><use xlink:href="#P" transform="matrix(9.1656 0 0 -9.1656 278.594 149.022)"/><use xlink:href="#Z" transform="matrix(9.1656 0 0 -9.1656 283.803 151.194)"/><path d="M252.849 98.676h43.872V72.194h-43.872z" fill="#fff"/><path stroke-width=".797" stroke-miterlimit="10" fill="none" stroke="#000" d="M252.849 98.676h43.872V72.194h-43.872z"/><use xlink:href="#Q" transform="matrix(9.1656 0 0 -9.1656 257.422 82.652)"/><use xlink:href="#ab" transform="matrix(13.1985 0 0 -13.1985 263.115 87.749)"/><use xlink:href="#M" transform="matrix(9.1656 0 0 -9.1656 267.191 92.329)"/><use xlink:href="#V" transform="matrix(9.1656 0 0 -9.1656 270.683 94.437)"/><use xlink:href="#P" transform="matrix(9.1656 0 0 -9.1656 275.725 92.329)"/><use xlink:href="#aa" transform="matrix(9.1656 0 0 -9.1656 281.38 94.437)"/><use xlink:href="#Z" transform="matrix(9.1656 0 0 -9.1656 286.672 94.501)"/><path stroke-width=".797" stroke-miterlimit="10" fill="none" stroke="#000" d="m244.388 219.085 12.402-8.27"/><path stroke-width=".6379617200000001" stroke-linecap="round" stroke-linejoin="round" fill="none" stroke="#000" d="M254.347 209.953c.539.575 2.37.754 2.766.646-.252.324-.79 2.084-.467 2.802"/><path stroke-width=".797" stroke-miterlimit="10" fill="none" stroke="#000" d="m244.388 162.391 10.343-6.898"/><path stroke-width=".63797448" stroke-linecap="round" stroke-linejoin="round" fill="none" stroke="#000" d="M252.289 154.631c.539.575 2.37.754 2.766.646-.252.324-.79 2.084-.467 2.802"/><path stroke-width=".797" stroke-miterlimit="10" fill="none" stroke="#000" d="m244.39 105.7 9.35-6.233"/><path stroke-width=".6379617200000001" stroke-linecap="round" stroke-linejoin="round" fill="none" stroke="#000" d="M251.298 98.605c.539.574 2.37.754 2.766.646-.252.324-.79 2.084-.467 2.802"/><path d="M345.652 198.822c0-7.827-6.346-14.173-14.174-14.173-7.827 0-14.173 6.346-14.173 14.173 0 7.828 6.346 14.174 14.173 14.174 7.828 0 14.174-6.346 14.174-14.174zm-14.174 0" fill="#f3a3b2"/><path stroke-width=".797" stroke-miterlimit="10" fill="none" stroke="#000" d="M345.652 198.822c0-7.827-6.346-14.173-14.174-14.173-7.827 0-14.173 6.346-14.173 14.173 0 7.828 6.346 14.174 14.173 14.174 7.828 0 14.174-6.346 14.174-14.174zm-14.174 0"/><path stroke-width=".797" stroke-miterlimit="10" fill="none" stroke="#000" d="M321.457 208.844c10.021 1.317 10.021-21.36 20.043-20.044"/><path d="M373.999 142.129c0-7.828-6.346-14.174-14.174-14.174-7.828 0-14.173 6.346-14.173 14.174 0 7.828 6.345 14.173 14.173 14.173S374 149.957 374 142.13zm-14.174 0" fill="#78a3ce"/><path stroke-width=".797" stroke-miterlimit="10" fill="none" stroke="#000" d="M373.999 142.129c0-7.828-6.346-14.174-14.174-14.174-7.828 0-14.173 6.346-14.173 14.174 0 7.828 6.345 14.173 14.173 14.173S374 149.957 374 142.13zm-14.174 0"/><symbol id="ad"><path d="M.451 0a.452.452 0 1 1 0 .903.452.452 0 0 1 0-.903m0 .837a.385.385 0 1 0 0-.77.385.385 0 0 0 0 .77m0-.45c.037 0 .065.029.065.065a.064.064 0 0 1-.065.065.064.064 0 0 1-.064-.065c0-.036.028-.065.064-.065z"/></symbol><use xlink:href="#ad" transform="matrix(13.1985 0 0 -13.1985 353.863 148.11)"/><path d="M402.346 85.435c0-7.828-6.346-14.173-14.174-14.173-7.828 0-14.173 6.345-14.173 14.173s6.345 14.174 14.173 14.174 14.173-6.346 14.173-14.174zm-14.174 0" fill="#62b991"/><path stroke-width=".797" stroke-miterlimit="10" fill="none" stroke="#000" d="M402.346 85.435c0-7.828-6.346-14.173-14.174-14.173-7.828 0-14.173 6.345-14.173 14.173s6.345 14.174 14.173 14.174 14.173-6.346 14.173-14.174zm-14.174 0"/><use xlink:href="#ad" transform="matrix(13.1985 0 0 -13.1985 382.21 91.416)"/><path d="M430.692 57.088c0-7.828-6.345-14.173-14.173-14.173s-14.173 6.345-14.173 14.173 6.345 14.174 14.173 14.174 14.173-6.346 14.173-14.174zm-14.173 0" fill="#78a3ce"/><path stroke-width=".797" stroke-miterlimit="10" fill="none" stroke="#000" d="M430.692 57.088c0-7.828-6.345-14.173-14.173-14.173s-14.173 6.345-14.173 14.173 6.345 14.174 14.173 14.174 14.173-6.346 14.173-14.174zm-14.173 0"/><use xlink:href="#ad" transform="matrix(13.1985 0 0 -13.1985 410.555 63.07)"/><path d="M459.04 28.742c0-7.828-6.346-14.174-14.174-14.174-7.828 0-14.174 6.346-14.174 14.174 0 7.827 6.346 14.173 14.174 14.173 7.828 0 14.173-6.346 14.173-14.173zm-14.174 0" fill="#62b991"/><path stroke-width=".797" stroke-miterlimit="10" fill="none" stroke="#000" d="M459.04 28.742c0-7.828-6.346-14.174-14.174-14.174-7.828 0-14.174 6.346-14.174 14.174 0 7.827 6.346 14.173 14.174 14.173 7.828 0 14.173-6.346 14.173-14.173zm-14.174 0"/><use xlink:href="#ad" transform="matrix(13.1985 0 0 -13.1985 438.903 34.723)"/><path d="M373.999 198.822c0-7.827-6.346-14.173-14.174-14.173-7.828 0-14.173 6.346-14.173 14.173 0 7.828 6.345 14.174 14.173 14.174S374 206.65 374 198.822zm-14.174 0" fill="#f3a3b2"/><path stroke-width=".797" stroke-miterlimit="10" fill="none" stroke="#000" d="M373.999 198.822c0-7.827-6.346-14.173-14.174-14.173-7.828 0-14.173 6.346-14.173 14.173 0 7.828 6.345 14.174 14.173 14.174S374 206.65 374 198.822zm-14.174 0"/><symbol id="ae"><path d="M.55.178v.058H0V.178h.55m0 .178v.058H0V.356h.55M.55 0v.058H0V0h.55z"/></symbol><use xlink:href="#ae" transform="matrix(15.8382 0 0 -15.8382 355.47 201.522)"/><path d="M487.386 142.129c0-7.828-6.346-14.174-14.173-14.174-7.828 0-14.174 6.346-14.174 14.174 0 7.828 6.346 14.173 14.174 14.173 7.827 0 14.173-6.345 14.173-14.173zm-14.173 0" fill="#78a3ce"/><path stroke-width=".797" stroke-miterlimit="10" fill="none" stroke="#000" d="M487.386 142.129c0-7.828-6.346-14.174-14.173-14.174-7.828 0-14.174 6.346-14.174 14.174 0 7.828 6.346 14.173 14.174 14.173 7.827 0 14.173-6.345 14.173-14.173zm-14.173 0"/><symbol id="af"><path d="M0 .304V.246h.246V0h.058v.246H.55v.058H.304V.55H.246V.304H0z"/></symbol><use xlink:href="#af" transform="matrix(15.8382 0 0 -15.8382 468.856 146.435)"/><path d="M487.386 85.435c0-7.828-6.346-14.173-14.173-14.173-7.828 0-14.174 6.345-14.174 14.173s6.346 14.174 14.174 14.174c7.827 0 14.173-6.346 14.173-14.174zm-14.173 0" fill="#62b991"/><path stroke-width=".797" stroke-miterlimit="10" fill="none" stroke="#000" d="M487.386 85.435c0-7.828-6.346-14.173-14.173-14.173-7.828 0-14.174 6.345-14.174 14.173s6.346 14.174 14.174 14.174c7.827 0 14.173-6.346 14.173-14.174zm-14.173 0"/><use xlink:href="#af" transform="matrix(15.8382 0 0 -15.8382 468.856 89.742)"/><path stroke-width=".797" stroke-miterlimit="10" fill="none" stroke="#000" d="M122.11 227.17h94.875"/><path stroke-width=".638" stroke-linecap="round" stroke-linejoin="round" fill="none" stroke="#000" d="M215.431 225.097c.13.777 1.554 1.943 1.943 2.072-.389.13-1.813 1.295-1.943 2.072"/><path stroke-width=".797" stroke-miterlimit="10" fill="none" stroke="#000" d="M292.192 198.822h24.007"/><path stroke-width=".638" stroke-linecap="round" stroke-linejoin="round" fill="none" stroke="#000" d="M314.645 196.75c.13.777 1.554 1.943 1.943 2.072-.389.13-1.813 1.296-1.943 2.073"/><path stroke-width=".797" stroke-miterlimit="10" fill="none" stroke="#000" d="M294.25 142.129h50.296"/><path stroke-width=".638" stroke-linecap="round" stroke-linejoin="round" fill="none" stroke="#000" d="M342.992 140.057c.13.777 1.554 1.942 1.943 2.072-.389.13-1.814 1.295-1.943 2.072"/><path stroke-width=".797" stroke-miterlimit="10" fill="none" stroke="#000" d="M297.12 85.435h75.773"/><path stroke-width=".638" stroke-linecap="round" stroke-linejoin="round" fill="none" stroke="#000" d="M371.339 83.363c.13.777 1.554 1.943 1.942 2.072-.388.13-1.813 1.295-1.942 2.072"/><path stroke-width=".797" stroke-miterlimit="10" fill="none" stroke="#000" d="M374.397 142.129h83.536"/><path stroke-width=".638" stroke-linecap="round" stroke-linejoin="round" fill="none" stroke="#000" d="M456.38 140.057c.129.777 1.553 1.942 1.942 2.072-.389.13-1.813 1.295-1.943 2.072"/><path stroke-width=".797" stroke-miterlimit="10" fill="none" stroke="#000" d="m370.13 188.518 18.042-18.042v-22.678M372.858 192.306l43.66-21.83v-22.678"/><path stroke-width=".797" stroke-miterlimit="10" fill="none" stroke="#000" d="m373.649 194.215 71.217-23.74v-22.677M388.172 136.46a5.67 5.67 0 1 0 0 11.338M416.519 136.46a5.67 5.67 0 1 0 0 11.338M444.866 136.46a5.67 5.67 0 1 0 0 11.338M388.172 136.46v-35.746"/><path stroke-width=".638" stroke-linecap="round" stroke-linejoin="round" fill="none" stroke="#000" d="M386.1 102.269c.777-.13 1.943-1.555 2.072-1.943.13.388 1.295 1.813 2.072 1.943"/><path stroke-width=".797" stroke-miterlimit="10" fill="none" stroke="#000" d="M416.519 136.46V91.103M416.519 79.766a5.67 5.67 0 1 0 0 11.338M444.866 79.766a5.67 5.67 0 1 0 0 11.338M416.519 79.766v-7.398"/><path stroke-width=".638" stroke-linecap="round" stroke-linejoin="round" fill="none" stroke="#000" d="M414.447 73.922c.777-.13 1.942-1.554 2.072-1.943.13.389 1.295 1.813 2.072 1.943"/><path stroke-width=".797" stroke-miterlimit="10" fill="none" stroke="#000" d="M444.866 136.46V91.103M444.866 79.766V44.02"/><path stroke-width=".638" stroke-linecap="round" stroke-linejoin="round" fill="none" stroke="#000" d="M442.794 45.575c.777-.13 1.942-1.554 2.072-1.943.13.389 1.295 1.813 2.072 1.943"/><path stroke-width=".797" stroke-miterlimit="10" fill="none" stroke="#000" d="M359.825 184.25v-26.842"/><path stroke-width=".638" stroke-linecap="round" stroke-linejoin="round" fill="none" stroke="#000" d="M357.753 158.962c.777-.13 1.943-1.554 2.072-1.942.13.388 1.295 1.813 2.073 1.942"/><path stroke-width=".797" stroke-miterlimit="10" fill="none" stroke="#000" d="M402.744 85.435h55.19"/><path stroke-width=".638" stroke-linecap="round" stroke-linejoin="round" fill="none" stroke="#000" d="M456.38 83.363c.129.777 1.553 1.943 1.942 2.072-.389.13-1.813 1.295-1.943 2.072"/><path stroke-width=".797" stroke-miterlimit="10" fill="none" stroke="#000" d="M122.545 57.088H401.24"/><path stroke-width=".638" stroke-linecap="round" stroke-linejoin="round" fill="none" stroke="#000" d="M399.686 55.016c.129.777 1.554 1.943 1.942 2.072-.388.13-1.813 1.295-1.942 2.073"/><path stroke-width=".797" stroke-miterlimit="10" fill="none" stroke="#000" d="M122.545 28.742h307.041"/><path stroke-width=".638" stroke-linecap="round" stroke-linejoin="round" fill="none" stroke="#000" d="M428.032 26.67c.13.776 1.554 1.942 1.943 2.072-.389.129-1.813 1.295-1.943 2.072"/><path d="M512.898 212.875h34.016V184.77h-34.016z" fill="#fff"/><path stroke-width=".797" stroke-miterlimit="10" fill="none" stroke="#000" d="M512.898 212.875h34.016V184.77h-34.016z"/><use xlink:href="#R" transform="matrix(9.1656 0 0 -9.1656 518.826 196.739)"/><use xlink:href="#ab" transform="matrix(13.1985 0 0 -13.1985 523.886 201.947)"/><symbol id="ag"><path d="M.223.465A.08.08 0 0 1 .23.493c0 .021-.03.03-.061.03C.139.523.108.514.105.499L0 .013C0 .006.014 0 .026 0c.008 0 .016.003.018.008l.179.457z"/></symbol><use xlink:href="#ag" transform="matrix(7.3325 0 0 -7.3325 527.397 192.83)"/><use xlink:href="#M" transform="matrix(9.1656 0 0 -9.1656 527.963 206.526)"/><use xlink:href="#V" transform="matrix(9.1656 0 0 -9.1656 531.456 208.634)"/><use xlink:href="#Z" transform="matrix(9.1656 0 0 -9.1656 536.136 208.698)"/><path d="M510.84 156.182h38.133v-28.106H510.84z" fill="#fff"/><path stroke-width=".797" stroke-miterlimit="10" fill="none" stroke="#000" d="M510.84 156.182h38.133v-28.106H510.84z"/><use xlink:href="#N" transform="matrix(9.1656 0 0 -9.1656 515.29 140.156)"/><use xlink:href="#ab" transform="matrix(13.1985 0 0 -13.1985 521.101 145.254)"/><use xlink:href="#ag" transform="matrix(7.3325 0 0 -7.3325 524.612 136.137)"/><use xlink:href="#M" transform="matrix(9.1656 0 0 -9.1656 525.178 149.834)"/><use xlink:href="#V" transform="matrix(9.1656 0 0 -9.1656 528.67 151.942)"/><use xlink:href="#P" transform="matrix(9.1656 0 0 -9.1656 533.712 149.834)"/><use xlink:href="#Z" transform="matrix(9.1656 0 0 -9.1656 538.921 152.006)"/><path d="M507.97 99.488h43.872V71.382H507.97z" fill="#fff"/><path stroke-width=".797" stroke-miterlimit="10" fill="none" stroke="#000" d="M507.97 99.488h43.872V71.382H507.97z"/><use xlink:href="#Q" transform="matrix(9.1656 0 0 -9.1656 512.54 83.463)"/><use xlink:href="#ab" transform="matrix(13.1985 0 0 -13.1985 518.232 88.561)"/><use xlink:href="#ag" transform="matrix(7.3325 0 0 -7.3325 521.743 79.444)"/><use xlink:href="#M" transform="matrix(9.1656 0 0 -9.1656 522.31 93.141)"/><use xlink:href="#V" transform="matrix(9.1656 0 0 -9.1656 525.802 95.25)"/><use xlink:href="#P" transform="matrix(9.1656 0 0 -9.1656 530.842 93.141)"/><use xlink:href="#aa" transform="matrix(9.1656 0 0 -9.1656 536.498 95.25)"/><use xlink:href="#Z" transform="matrix(9.1656 0 0 -9.1656 541.79 95.313)"/><path stroke-width=".797" stroke-miterlimit="10" fill="none" stroke="#000" d="M402.744 85.435h55.19"/><path stroke-width=".638" stroke-linecap="round" stroke-linejoin="round" fill="none" stroke="#000" d="M456.38 83.363c.129.777 1.553 1.943 1.942 2.072-.389.13-1.813 1.295-1.943 2.072"/><path stroke-width=".797" stroke-miterlimit="10" fill="none" stroke="#000" d="M374.397 198.822h137.395"/><path stroke-width=".638" stroke-linecap="round" stroke-linejoin="round" fill="none" stroke="#000" d="M510.238 196.75c.13.777 1.554 1.943 1.943 2.072-.389.13-1.814 1.296-1.943 2.073"/><path stroke-width=".797" stroke-miterlimit="10" fill="none" stroke="#000" d="M487.784 85.435h19.08"/><path stroke-width=".638" stroke-linecap="round" stroke-linejoin="round" fill="none" stroke="#000" d="M505.31 83.363c.13.777 1.554 1.943 1.943 2.072-.389.13-1.813 1.295-1.943 2.072"/><path stroke-width=".797" stroke-miterlimit="10" fill="none" stroke="#000" d="M487.784 142.129h21.95"/><path stroke-width=".638" stroke-linecap="round" stroke-linejoin="round" fill="none" stroke="#000" d="M508.18 140.057c.13.777 1.554 1.942 1.942 2.072-.388.13-1.813 1.295-1.942 2.072"/><path stroke-width=".797" stroke-miterlimit="10" fill="none" stroke="#000" d="m424.602 69.212 40.136 60.204"/><path stroke-width=".63797448" stroke-linecap="round" stroke-linejoin="round" fill="none" stroke="#000" d="M465.6 126.974c-.575.539-.755 2.37-.647 2.765-.323-.251-2.083-.79-2.802-.466"/><path stroke-width=".797" stroke-miterlimit="10" fill="none" stroke="#000" d="M451.382 41.774 466.38 71.77"/><path stroke-width=".63794896" stroke-linecap="round" stroke-linejoin="round" fill="none" stroke="#000" d="M467.538 69.453c-.637.464-1.042 2.259-.984 2.664-.29-.29-1.97-1.042-2.722-.81"/><path d="M586.6 227.17c0-7.829-6.346-14.174-14.174-14.174-7.828 0-14.173 6.345-14.173 14.173s6.345 14.174 14.173 14.174 14.174-6.346 14.174-14.174zm-14.174 0" fill="#f3a3b2"/><path stroke-width=".797" stroke-miterlimit="10" fill="none" stroke="#000" d="M586.6 227.17c0-7.829-6.346-14.174-14.174-14.174-7.828 0-14.173 6.345-14.173 14.173s6.345 14.174 14.173 14.174 14.174-6.346 14.174-14.174zm-14.174 0"/><path stroke-width=".797" stroke-miterlimit="10" fill="none" stroke="#000" d="M558.253 227.17H586.6m-14.174 0c-4.252-7.365-4.252-7.365-10.022-10.023m10.022 10.022c-4.252 7.365-4.252 7.365-10.022 10.022"/><path d="M575.261 227.17a2.835 2.835 0 1 0-5.67 0 2.835 2.835 0 0 0 5.67 0zm-2.835 0" fill="#fff"/><path stroke-width=".797" stroke-miterlimit="10" fill="none" stroke="#000" d="M575.261 227.17a2.835 2.835 0 1 0-5.67 0 2.835 2.835 0 0 0 5.67 0zm-2.835 0"/><path d="M586.6 170.476c0-7.828-6.346-14.174-14.174-14.174-7.828 0-14.173 6.346-14.173 14.174 0 7.827 6.345 14.173 14.173 14.173s14.174-6.346 14.174-14.173zm-14.174 0" fill="#78a3ce"/><path stroke-width=".797" stroke-miterlimit="10" fill="none" stroke="#000" d="M586.6 170.476c0-7.828-6.346-14.174-14.174-14.174-7.828 0-14.173 6.346-14.173 14.174 0 7.827 6.345 14.173 14.173 14.173s14.174-6.346 14.174-14.173zm-14.174 0"/><path stroke-width=".797" stroke-miterlimit="10" fill="none" stroke="#000" d="M558.253 170.476H586.6m-14.174 0c-4.252-7.365-4.252-7.365-10.022-10.022m10.022 10.022c-4.252 7.364-4.252 7.364-10.022 10.021"/><path d="M575.261 170.476a2.835 2.835 0 1 0-5.67 0 2.835 2.835 0 0 0 5.67 0zm-2.835 0" fill="#fff"/><path stroke-width=".797" stroke-miterlimit="10" fill="none" stroke="#000" d="M575.261 170.476a2.835 2.835 0 1 0-5.67 0 2.835 2.835 0 0 0 5.67 0zm-2.835 0"/><path d="M586.6 113.782c0-7.828-6.346-14.173-14.174-14.173-7.828 0-14.173 6.345-14.173 14.173s6.345 14.173 14.173 14.173 14.174-6.345 14.174-14.173zm-14.174 0" fill="#62b991"/><path stroke-width=".797" stroke-miterlimit="10" fill="none" stroke="#000" d="M586.6 113.782c0-7.828-6.346-14.173-14.174-14.173-7.828 0-14.173 6.345-14.173 14.173s6.345 14.173 14.173 14.173 14.174-6.345 14.174-14.173zm-14.174 0"/><path stroke-width=".797" stroke-miterlimit="10" fill="none" stroke="#000" d="M558.253 113.782H586.6m-14.174 0c-4.252-7.364-4.252-7.364-10.022-10.022m10.022 10.022c-4.252 7.364-4.252 7.364-10.022 10.022"/><path d="M575.261 113.782a2.835 2.835 0 1 0-5.67 0 2.835 2.835 0 0 0 5.67 0zm-2.835 0" fill="#fff"/><path stroke-width=".797" stroke-miterlimit="10" fill="none" stroke="#000" d="M575.261 113.782a2.835 2.835 0 1 0-5.67 0 2.835 2.835 0 0 0 5.67 0zM547.313 210.427l12.4 8.267"/><path stroke-width=".63797448" stroke-linecap="round" stroke-linejoin="round" fill="none" stroke="#000" d="M559.57 216.108c-.323.718.216 2.479.467 2.802-.395-.108-2.227.072-2.766.646"/><path stroke-width=".797" stroke-miterlimit="10" fill="none" stroke="#000" d="m549.371 155.105 10.343 6.896"/><path stroke-width=".6379681" stroke-linecap="round" stroke-linejoin="round" fill="none" stroke="#000" d="M559.57 159.414c-.323.719.216 2.479.467 2.802-.395-.108-2.227.072-2.766.647"/><path stroke-width=".797" stroke-miterlimit="10" fill="none" stroke="#000" d="m551.583 99.886 8.13 5.421"/><path stroke-width=".6379681" stroke-linecap="round" stroke-linejoin="round" fill="none" stroke="#000" d="M559.57 102.72c-.323.72.216 2.48.467 2.802-.395-.107-2.227.072-2.766.647"/><path d="M603.608 241.222h34.016v-28.106h-34.016z" fill="#fff"/><path stroke-width=".797" stroke-miterlimit="10" fill="none" stroke="#000" d="M603.608 241.222h34.016v-28.106h-34.016z"/><use xlink:href="#R" transform="matrix(9.1656 0 0 -9.1656 609.578 225.086)"/><use xlink:href="#S" transform="matrix(13.1985 0 0 -13.1985 614.639 230.293)"/><use xlink:href="#ag" transform="matrix(7.3325 0 0 -7.3325 623.072 221.176)"/><use xlink:href="#M" transform="matrix(9.1656 0 0 -9.1656 623.638 234.873)"/><use xlink:href="#Z" transform="matrix(9.1656 0 0 -9.1656 626.8 237.045)"/><path d="M601.593 184.528h38.045v-28.105h-38.045z" fill="#fff"/><path stroke-width=".797" stroke-miterlimit="10" fill="none" stroke="#000" d="M601.593 184.528h38.045v-28.105h-38.045z"/><use xlink:href="#N" transform="matrix(9.1656 0 0 -9.1656 606.043 168.503)"/><use xlink:href="#S" transform="matrix(13.1985 0 0 -13.1985 611.855 173.6)"/><use xlink:href="#ag" transform="matrix(7.3325 0 0 -7.3325 620.288 164.483)"/><use xlink:href="#M" transform="matrix(9.1656 0 0 -9.1656 620.854 178.18)"/><use xlink:href="#P" transform="matrix(9.1656 0 0 -9.1656 624.383 178.18)"/><use xlink:href="#Z" transform="matrix(9.1656 0 0 -9.1656 629.585 180.352)"/><path d="M598.724 127.835h43.784V99.729h-43.784z" fill="#fff"/><path stroke-width=".797" stroke-miterlimit="10" fill="none" stroke="#000" d="M598.724 127.835h43.784V99.729h-43.784z"/><use xlink:href="#Q" transform="matrix(9.1656 0 0 -9.1656 603.292 111.81)"/><use xlink:href="#S" transform="matrix(13.1985 0 0 -13.1985 608.985 116.908)"/><use xlink:href="#ag" transform="matrix(7.3325 0 0 -7.3325 617.419 107.79)"/><use xlink:href="#M" transform="matrix(9.1656 0 0 -9.1656 617.985 121.487)"/><use xlink:href="#P" transform="matrix(9.1656 0 0 -9.1656 621.514 121.487)"/><use xlink:href="#aa" transform="matrix(9.1656 0 0 -9.1656 627.16 123.595)"/><use xlink:href="#Z" transform="matrix(9.1656 0 0 -9.1656 632.454 123.66)"/><path stroke-width=".797" stroke-miterlimit="10" fill="none" stroke="#000" d="M586.998 227.17h15.504"/><path stroke-width=".638" stroke-linecap="round" stroke-linejoin="round" fill="none" stroke="#000" d="M600.948 225.097c.13.777 1.554 1.943 1.942 2.072-.388.13-1.813 1.295-1.942 2.072"/><path stroke-width=".797" stroke-miterlimit="10" fill="none" stroke="#000" d="M586.998 170.476h13.49"/><path stroke-width=".638" stroke-linecap="round" stroke-linejoin="round" fill="none" stroke="#000" d="M598.933 168.403c.13.777 1.554 1.943 1.943 2.073-.389.13-1.813 1.295-1.943 2.072"/><path stroke-width=".797" stroke-miterlimit="10" fill="none" stroke="#000" d="M586.998 113.782h10.62"/><path stroke-width=".638" stroke-linecap="round" stroke-linejoin="round" fill="none" stroke="#000" d="M596.064 111.71c.13.777 1.554 1.942 1.943 2.072-.389.13-1.813 1.295-1.943 2.072"/><path d="M691.483 255.516c0-7.828-6.346-14.173-14.174-14.173-7.827 0-14.173 6.345-14.173 14.173s6.346 14.173 14.173 14.173c7.828 0 14.174-6.345 14.174-14.173zm-14.174 0" fill="#f3a3b2"/><path stroke-width=".797" stroke-miterlimit="10" fill="none" stroke="#000" d="M691.483 255.516c0-7.828-6.346-14.173-14.174-14.173-7.827 0-14.173 6.345-14.173 14.173s6.346 14.173 14.173 14.173c7.828 0 14.174-6.345 14.174-14.173zm-14.174 0"/><use xlink:href="#af" transform="matrix(13.1985 0 0 -13.1985 673.676 259.104)"/><path d="M691.483 210.16c0-7.827-6.346-14.172-14.174-14.172-7.827 0-14.173 6.345-14.173 14.173s6.346 14.173 14.173 14.173c7.828 0 14.174-6.345 14.174-14.173zm-14.174 0" fill="#78a3ce"/><path stroke-width=".797" stroke-miterlimit="10" fill="none" stroke="#000" d="M691.483 210.16c0-7.827-6.346-14.172-14.174-14.172-7.827 0-14.173 6.345-14.173 14.173s6.346 14.173 14.173 14.173c7.828 0 14.174-6.345 14.174-14.173zm-14.174 0"/><symbol id="ah"><path d="M.256.829.204.854 0 .427.204 0l.052.025-.192.402.192.402z"/></symbol><use xlink:href="#ah" transform="matrix(15.8382 0 0 -15.8382 669.797 216.754)"/><symbol id="ai"><path d="M.019 0c.05.047.123.113.123.192 0 .055-.033.091-.068.09C.043.282.025.258.025.232c0-.036.033-.054.033-.097C.058.094.032.054 0 .019L.019 0z"/></symbol><use xlink:href="#ai" transform="matrix(15.8382 0 0 -15.8382 675.168 216.853)"/><symbol id="aj"><path d="M.192.427 0 .025.052 0l.204.427-.204.427L0 .829.192.427z"/></symbol><use xlink:href="#aj" transform="matrix(15.8382 0 0 -15.8382 680.767 216.754)"/><path d="M691.483 147.798c0-7.828-6.346-14.173-14.174-14.173-7.827 0-14.173 6.345-14.173 14.173s6.346 14.173 14.173 14.173c7.828 0 14.174-6.345 14.174-14.173zm-14.174 0" fill="#62b991"/><path stroke-width=".797" stroke-miterlimit="10" fill="none" stroke="#000" d="M691.483 147.798c0-7.828-6.346-14.173-14.174-14.173-7.827 0-14.173 6.345-14.173 14.173s6.346 14.173 14.173 14.173c7.828 0 14.174-6.345 14.174-14.173zm-14.174 0"/><use xlink:href="#ah" transform="matrix(15.8382 0 0 -15.8382 669.797 154.392)"/><use xlink:href="#ai" transform="matrix(15.8382 0 0 -15.8382 675.168 154.491)"/><use xlink:href="#aj" transform="matrix(15.8382 0 0 -15.8382 680.767 154.392)"/><path stroke-width=".797" stroke-miterlimit="10" fill="none" stroke="#000" d="m638.023 235.87 25.621 12.813"/><path stroke-width=".63797448" stroke-linecap="round" stroke-linejoin="round" fill="none" stroke="#000" d="M663.181 246.135c-.232.753.521 2.433.81 2.722-.405-.058-2.2.348-2.664.985"/><path stroke-width=".797" stroke-miterlimit="10" fill="none" stroke="#000" d="M207.151 255.516h454.88"/><path stroke-width=".638" stroke-linecap="round" stroke-linejoin="round" fill="none" stroke="#000" d="M660.476 253.444c.13.777 1.554 1.942 1.943 2.072-.389.13-1.813 1.295-1.943 2.072"/><path stroke-width=".797" stroke-miterlimit="10" fill="none" stroke="#000" d="m640.037 184.062 24.756 17.337"/><path stroke-width=".63798086" stroke-linecap="round" stroke-linejoin="round" fill="none" stroke="#000" d="M664.708 198.81c-.34.71.159 2.483.403 2.812-.393-.117-2.228.02-2.78.583"/><path stroke-width=".797" stroke-miterlimit="10" fill="none" stroke="#000" d="m642.906 127.154 21.302 12.783"/><path stroke-width=".63799362" stroke-linecap="round" stroke-linejoin="round" fill="none" stroke="#000" d="M663.942 137.36c-.29.734.333 2.466.6 2.777-.4-.089-2.222.178-2.733.777"/><path d="M712.126 269.569h43.754v-28.106h-43.754z" fill="#fff"/><path stroke-width=".797" stroke-miterlimit="10" fill="none" stroke="#000" d="M712.126 269.569h43.754v-28.106h-43.754z"/><use xlink:href="#R" transform="matrix(9.1656 0 0 -9.1656 717.325 253.432)"/><use xlink:href="#S" transform="matrix(13.1985 0 0 -13.1985 722.385 258.64)"/><use xlink:href="#ag" transform="matrix(7.3325 0 0 -7.3325 730.819 249.523)"/><use xlink:href="#ag" transform="matrix(7.3325 0 0 -7.3325 732.982 249.523)"/><use xlink:href="#M" transform="matrix(9.1656 0 0 -9.1656 731.385 263.219)"/><symbol id="ak"><path d="M.07.41c0 .286.087.372.15.385V.82C.045.813 0 .596 0 .41 0 .224.045.007.22 0v.025C.162.037.07.122.07.41z"/></symbol><use xlink:href="#ak" transform="matrix(9.1656 0 0 -9.1656 735.39 264.282)"/><use xlink:href="#N" transform="matrix(9.1656 0 0 -9.1656 737.883 263.219)"/><use xlink:href="#Z" transform="matrix(9.1656 0 0 -9.1656 742.617 265.391)"/><symbol id="al"><path d="M.15.41C.15.122.058.037 0 .025V0c.175.007.22.224.22.41C.22.596.175.813 0 .82V.795C.063.782.15.696.15.41z"/></symbol><use xlink:href="#al" transform="matrix(9.1656 0 0 -9.1656 748.187 264.282)"/><path stroke-width=".797" stroke-miterlimit="10" fill="none" stroke="#000" d="m688.688 219.262 26.706 21.361"/><path stroke-width=".63795534" stroke-linecap="round" stroke-linejoin="round" fill="none" stroke="#000" d="M715.475 238.034c-.384.688 0 2.488.223 2.832-.385-.142-2.225-.121-2.812.404"/><path stroke-width=".797" stroke-miterlimit="10" fill="none" stroke="#000" d="m684.096 160.692 41.974 79.747"/><path stroke-width=".6379681" stroke-linecap="round" stroke-linejoin="round" fill="none" stroke="#000" d="M727.18 238.099c-.628.476-.996 2.28-.93 2.684-.295-.284-1.99-1.002-2.738-.754"/><path stroke-width=".797" stroke-miterlimit="10" fill="none" stroke="#000" d="M691.881 255.516h19.14"/><path stroke-width=".638" stroke-linecap="round" stroke-linejoin="round" fill="none" stroke="#000" d="M709.466 253.444c.13.777 1.554 1.942 1.943 2.072-.389.13-1.813 1.295-1.943 2.072"/><path d="M804.87 255.516c0-7.828-6.345-14.173-14.173-14.173s-14.174 6.345-14.174 14.173 6.346 14.173 14.174 14.173c7.828 0 14.173-6.345 14.173-14.173zm-14.173 0" fill="#f3a3b2"/><path stroke-width=".797" stroke-miterlimit="10" fill="none" stroke="#000" d="M804.87 255.516c0-7.828-6.345-14.173-14.173-14.173s-14.174 6.345-14.174 14.173 6.346 14.173 14.174 14.173c7.828 0 14.173-6.345 14.173-14.173zm-14.173 0"/><path stroke-width=".797" stroke-miterlimit="10" fill="none" stroke="#000" d="M780.675 265.538c10.022 1.317 10.022-21.36 20.044-20.044"/><path d="M833.217 255.516c0-7.828-6.346-14.173-14.173-14.173-7.828 0-14.174 6.345-14.174 14.173s6.346 14.173 14.174 14.173c7.827 0 14.173-6.345 14.173-14.173zm-14.173 0" fill="#f3a3b2"/><path stroke-width=".797" stroke-miterlimit="10" fill="none" stroke="#000" d="M833.217 255.516c0-7.828-6.346-14.173-14.173-14.173-7.828 0-14.174 6.345-14.174 14.173s6.346 14.173 14.174 14.173c7.827 0 14.173-6.345 14.173-14.173zm-14.173 0"/><use xlink:href="#ae" transform="matrix(15.8382 0 0 -15.8382 814.682 258.214)"/><path d="M804.87 198.822c0-7.827-6.345-14.173-14.173-14.173s-14.174 6.346-14.174 14.173c0 7.828 6.346 14.174 14.174 14.174 7.828 0 14.173-6.346 14.173-14.174zm-14.173 0" fill="#78a3ce"/><path stroke-width=".797" stroke-miterlimit="10" fill="none" stroke="#000" d="M804.87 198.822c0-7.827-6.345-14.173-14.173-14.173s-14.174 6.346-14.174 14.173c0 7.828 6.346 14.174 14.174 14.174 7.828 0 14.173-6.346 14.173-14.174zm-14.173 0"/><use xlink:href="#ad" transform="matrix(13.1985 0 0 -13.1985 784.729 204.802)"/><path d="M833.217 142.129c0-7.828-6.346-14.174-14.173-14.174-7.828 0-14.174 6.346-14.174 14.174 0 7.828 6.346 14.173 14.174 14.173 7.827 0 14.173-6.345 14.173-14.173zm-14.173 0" fill="#62b991"/><path stroke-width=".797" stroke-miterlimit="10" fill="none" stroke="#000" d="M833.217 142.129c0-7.828-6.346-14.174-14.173-14.174-7.828 0-14.174 6.346-14.174 14.174 0 7.828 6.346 14.173 14.174 14.173 7.827 0 14.173-6.345 14.173-14.173zm-14.173 0"/><use xlink:href="#ad" transform="matrix(13.1985 0 0 -13.1985 813.076 148.11)"/><path stroke-width=".797" stroke-miterlimit="10" fill="none" stroke="#000" d="M640.037 170.476h150.66v13.067"/><path stroke-width=".638" stroke-linecap="round" stroke-linejoin="round" fill="none" stroke="#000" d="M792.769 181.989c-.777.13-1.943 1.554-2.072 1.943-.13-.389-1.295-1.814-2.073-1.943"/><path stroke-width=".797" stroke-miterlimit="10" fill="none" stroke="#000" d="M642.906 113.782h176.138v13.067"/><path stroke-width=".638" stroke-linecap="round" stroke-linejoin="round" fill="none" stroke="#000" d="M821.116 125.295c-.777.13-1.943 1.555-2.072 1.943-.13-.388-1.296-1.813-2.073-1.943"/><path stroke-width=".797" stroke-miterlimit="10" fill="none" stroke="#000" d="M756.278 255.516h19.14"/><path stroke-width=".638" stroke-linecap="round" stroke-linejoin="round" fill="none" stroke="#000" d="M773.863 253.444c.13.777 1.554 1.942 1.943 2.072-.389.13-1.813 1.295-1.943 2.072"/><path d="M856.351 268.797h38.772v-26.562h-38.772z" fill="#fff"/><path stroke-width=".797" stroke-miterlimit="10" fill="none" stroke="#000" d="M856.351 268.797h38.772v-26.562h-38.772z"/><use xlink:href="#R" transform="matrix(9.1656 0 0 -9.1656 861.548 252.58)"/><use xlink:href="#S" transform="matrix(13.1985 0 0 -13.1985 866.608 257.788)"/><use xlink:href="#Y" transform="matrix(9.1656 0 0 -9.1656 875.854 252.69)"/><use xlink:href="#af" transform="matrix(9.1656 0 0 -9.1656 879.729 252.516)"/><use xlink:href="#R" transform="matrix(9.1656 0 0 -9.1656 886.544 252.58)"/><use xlink:href="#M" transform="matrix(9.1656 0 0 -9.1656 875.608 262.447)"/><use xlink:href="#Z" transform="matrix(9.1656 0 0 -9.1656 878.77 264.62)"/><path d="M856.351 212.103h38.772v-26.561h-38.772z" fill="#fff"/><path stroke-width=".797" stroke-miterlimit="10" fill="none" stroke="#000" d="M856.351 212.103h38.772v-26.561h-38.772z"/><use xlink:href="#N" transform="matrix(9.1656 0 0 -9.1656 860.796 195.997)"/><use xlink:href="#S" transform="matrix(13.1985 0 0 -13.1985 866.608 201.095)"/><use xlink:href="#Y" transform="matrix(9.1656 0 0 -9.1656 875.854 195.997)"/><use xlink:href="#af" transform="matrix(9.1656 0 0 -9.1656 879.729 195.823)"/><use xlink:href="#R" transform="matrix(9.1656 0 0 -9.1656 886.544 195.887)"/><use xlink:href="#M" transform="matrix(9.1656 0 0 -9.1656 875.608 205.754)"/><use xlink:href="#P" transform="matrix(9.1656 0 0 -9.1656 879.137 205.754)"/><use xlink:href="#Z" transform="matrix(9.1656 0 0 -9.1656 884.34 207.926)"/><path d="M853.845 155.41h43.784v-26.562h-43.784z" fill="#fff"/><path stroke-width=".797" stroke-miterlimit="10" fill="none" stroke="#000" d="M853.845 155.41h43.784v-26.562h-43.784z"/><use xlink:href="#Q" transform="matrix(9.1656 0 0 -9.1656 858.41 139.305)"/><use xlink:href="#S" transform="matrix(13.1985 0 0 -13.1985 864.102 144.402)"/><use xlink:href="#Y" transform="matrix(9.1656 0 0 -9.1656 873.348 139.305)"/><use xlink:href="#af" transform="matrix(9.1656 0 0 -9.1656 877.224 139.13)"/><use xlink:href="#R" transform="matrix(9.1656 0 0 -9.1656 884.039 139.195)"/><use xlink:href="#M" transform="matrix(9.1656 0 0 -9.1656 873.103 149.061)"/><use xlink:href="#P" transform="matrix(9.1656 0 0 -9.1656 876.632 149.061)"/><use xlink:href="#aa" transform="matrix(9.1656 0 0 -9.1656 882.278 151.17)"/><use xlink:href="#Z" transform="matrix(9.1656 0 0 -9.1656 887.572 151.233)"/><path stroke-width=".797" stroke-miterlimit="10" fill="none" stroke="#000" d="M833.615 255.516h21.63"/><path stroke-width=".638" stroke-linecap="round" stroke-linejoin="round" fill="none" stroke="#000" d="M853.69 253.444c.13.777 1.555 1.942 1.944 2.072-.389.13-1.814 1.295-1.943 2.072"/><path stroke-width=".797" stroke-miterlimit="10" fill="none" stroke="#000" d="m812.527 242.483-14.998-29.995"/><path stroke-width=".63794896" stroke-linecap="round" stroke-linejoin="round" fill="none" stroke="#000" d="M796.37 214.804c.638-.463 1.043-2.258.985-2.664.29.29 1.97 1.043 2.722.811"/><path stroke-width=".797" stroke-miterlimit="10" fill="none" stroke="#000" d="M819.044 193.153a5.67 5.67 0 1 0 0 11.339M819.044 240.944v-36.452M819.044 193.153v-35.745"/><path stroke-width=".638" stroke-linecap="round" stroke-linejoin="round" fill="none" stroke="#000" d="M816.971 158.962c.777-.13 1.943-1.554 2.072-1.942.13.388 1.296 1.813 2.073 1.942"/><path d="M932.43 255.516c0-7.828-6.345-14.173-14.173-14.173-7.827 0-14.173 6.345-14.173 14.173s6.346 14.173 14.173 14.173c7.828 0 14.174-6.345 14.174-14.173zm-14.173 0" fill="#f3a3b2"/><path stroke-width=".797" stroke-miterlimit="10" fill="none" stroke="#000" d="M932.43 255.516c0-7.828-6.345-14.173-14.173-14.173-7.827 0-14.173 6.345-14.173 14.173s6.346 14.173 14.173 14.173c7.828 0 14.174-6.345 14.174-14.173zm-14.173 0"/><path stroke-width=".797" stroke-miterlimit="10" fill="none" stroke="#000" d="M908.235 265.538c10.022 1.317 10.022-21.36 20.044-20.044"/><path d="M960.778 255.516c0-7.828-6.346-14.173-14.174-14.173-7.828 0-14.173 6.345-14.173 14.173s6.345 14.173 14.173 14.173 14.174-6.345 14.174-14.173zm-14.174 0" fill="#f3a3b2"/><path stroke-width=".797" stroke-miterlimit="10" fill="none" stroke="#000" d="M960.778 255.516c0-7.828-6.346-14.173-14.174-14.173-7.828 0-14.173 6.345-14.173 14.173s6.345 14.173 14.173 14.173 14.174-6.345 14.174-14.173zm-14.174 0"/><use xlink:href="#af" transform="matrix(15.8382 0 0 -15.8382 942.241 259.821)"/><path stroke-width=".797" stroke-miterlimit="10" fill="none" stroke="#000" d="M895.522 255.516h7.456"/><path stroke-width=".638" stroke-linecap="round" stroke-linejoin="round" fill="none" stroke="#000" d="M901.424 253.444c.13.777 1.554 1.942 1.943 2.072-.389.13-1.814 1.295-1.943 2.072"/><path d="M970.62 267.696h37.009v-24.36h-37.01z" fill="#fff"/><path stroke-width=".797" stroke-miterlimit="10" fill="none" stroke="#000" d="M970.62 267.696h37.009v-24.36h-37.01z"/><use xlink:href="#R" transform="matrix(9.1656 0 0 -9.1656 975.816 253.681)"/><use xlink:href="#S" transform="matrix(13.1985 0 0 -13.1985 980.875 258.889)"/><symbol id="am"><path d="M.239.514C.079.514 0 .419 0 .257S.079 0 .239 0c.162 0 .24.095.24.257S.401.514.239.514M.104.257c0 .138.044.222.135.222.093 0 .136-.084.136-.222S.332.035.239.035C.148.035.104.119.104.257z"/></symbol><symbol id="an"><path d="M.565.012v.029C.496.046.49.048.49.099v.409L.483.514.326.489V.464L.364.459C.39.455.396.45.396.414V.189a.16.16 0 0 0-.008-.06.137.137 0 0 0-.123-.075C.207.054.164.09.164.168v.34L.157.514 0 .489V.464L.038.459C.064.455.07.45.07.414V.15C.07.035.138 0 .212 0c.085 0 .154.058.183.072l.01-.06h.16z"/></symbol><symbol id="ao"><path d="M.295.462v.04H.166v.126H.137L.076.502H0v-.04h.072V.114C.072.012.148 0 .183 0c.051 0 .099.026.128.044L.303.065A.175.175 0 0 0 .232.052c-.034 0-.066.024-.066.1v.31h.129z"/></symbol><use xlink:href="#am" transform="matrix(9.1656 0 0 -9.1656 989.363 253.791)"/><use xlink:href="#an" transform="matrix(9.1656 0 0 -9.1656 994.44 253.791)"/><use xlink:href="#ao" transform="matrix(9.1656 0 0 -9.1656 1000.05 253.791)"/><use xlink:href="#M" transform="matrix(9.1656 0 0 -9.1656 989.876 263.518)"/><symbol id="ap"><path d="M.343.387c.023 0 .066.007.066.066 0 .045-.096.059-.126.059C.118.512 0 .368 0 .171 0 .059.067 0 .167 0c.069 0 .144.039.186.108L.335.123A.198.198 0 0 0 .191.055c-.071 0-.1.042-.1.104 0 .027.005.059.012.091.001.004.006.009.011.009.049 0 .089-.012.121-.012.015 0 .026.004.032.028a.038.038 0 0 1 .001.01C.268.3.26.303.247.303.214.303.17.291.123.291.118.291.115.293.115.297l.001.004c.032.111.071.17.149.17.074 0 .044-.084.078-.084z"/></symbol><use xlink:href="#ap" transform="matrix(9.1656 0 0 -9.1656 993.12 263.509)"/><path d="M970.102 212.088h38.045v-26.531h-38.045z" fill="#fff"/><path stroke-width=".797" stroke-miterlimit="10" fill="none" stroke="#000" d="M970.102 212.088h38.045v-26.531h-38.045z"/><use xlink:href="#N" transform="matrix(9.1656 0 0 -9.1656 974.545 196.012)"/><use xlink:href="#S" transform="matrix(13.1985 0 0 -13.1985 980.357 201.11)"/><use xlink:href="#am" transform="matrix(9.1656 0 0 -9.1656 988.845 196.012)"/><use xlink:href="#an" transform="matrix(9.1656 0 0 -9.1656 993.923 196.012)"/><use xlink:href="#ao" transform="matrix(9.1656 0 0 -9.1656 999.532 196.012)"/><use xlink:href="#M" transform="matrix(9.1656 0 0 -9.1656 989.358 205.739)"/><use xlink:href="#P" transform="matrix(9.1656 0 0 -9.1656 992.887 205.739)"/><use xlink:href="#Z" transform="matrix(9.1656 0 0 -9.1656 998.09 207.911)"/><path d="M967.233 155.394h43.783v-26.53h-43.783z" fill="#fff"/><path stroke-width=".797" stroke-miterlimit="10" fill="none" stroke="#000" d="M967.233 155.394h43.783v-26.53h-43.783z"/><use xlink:href="#Q" transform="matrix(9.1656 0 0 -9.1656 971.796 139.319)"/><use xlink:href="#S" transform="matrix(13.1985 0 0 -13.1985 977.488 144.417)"/><use xlink:href="#am" transform="matrix(9.1656 0 0 -9.1656 985.976 139.319)"/><use xlink:href="#an" transform="matrix(9.1656 0 0 -9.1656 991.054 139.319)"/><use xlink:href="#ao" transform="matrix(9.1656 0 0 -9.1656 996.663 139.319)"/><use xlink:href="#M" transform="matrix(9.1656 0 0 -9.1656 986.49 149.046)"/><use xlink:href="#P" transform="matrix(9.1656 0 0 -9.1656 990.018 149.046)"/><use xlink:href="#aa" transform="matrix(9.1656 0 0 -9.1656 995.664 151.154)"/><use xlink:href="#Z" transform="matrix(9.1656 0 0 -9.1656 1000.958 151.218)"/><path stroke-width=".797" stroke-miterlimit="10" fill="none" stroke="#000" d="M961.176 255.516h8.338"/><path stroke-width=".638" stroke-linecap="round" stroke-linejoin="round" fill="none" stroke="#000" d="M967.96 253.444c.13.777 1.554 1.942 1.943 2.072-.389.13-1.814 1.295-1.943 2.072"/><path stroke-width=".399" stroke-dasharray=".3985,1.99255" stroke-miterlimit="10" fill="none" stroke="#000" d="M895.522 198.822h74.181M898.027 142.129h68.807"/><path stroke-width=".797" stroke-miterlimit="10" fill="none" stroke="#000" d="M805.269 198.822h49.976"/><path stroke-width=".638" stroke-linecap="round" stroke-linejoin="round" fill="none" stroke="#000" d="M853.69 196.75c.13.777 1.555 1.943 1.944 2.072-.389.13-1.814 1.296-1.943 2.073"/><path stroke-width=".797" stroke-miterlimit="10" fill="none" stroke="#000" d="M833.615 142.129h19.124"/><path stroke-width=".638" stroke-linecap="round" stroke-linejoin="round" fill="none" stroke="#000" d="M851.185 140.057c.13.777 1.555 1.942 1.943 2.072-.389.13-1.813 1.295-1.943 2.072"/><path stroke-width=".797" stroke-miterlimit="10" fill="none" stroke="#000" d="M875.737 269.195v14.668H189.744v-15.046"/><path stroke-width=".638" stroke-linecap="round" stroke-linejoin="round" fill="none" stroke="#000" d="M187.672 270.37c.777-.129 1.943-1.553 2.072-1.942.13.389 1.296 1.813 2.073 1.943"/><path d="M90.53 340.556c0-7.827-6.345-14.173-14.173-14.173s-14.173 6.346-14.173 14.173c0 7.828 6.345 14.174 14.173 14.174s14.174-6.346 14.174-14.174zm-14.173 0" fill="#fff"/><path stroke-width=".797" stroke-miterlimit="10" fill="none" stroke="#000" d="M90.53 340.556c0-7.827-6.345-14.173-14.173-14.173s-14.173 6.346-14.173 14.173c0 7.828 6.345 14.174 14.173 14.174s14.174-6.346 14.174-14.174zm-14.173 0"/><use xlink:href="#af" transform="matrix(15.8382 0 0 -15.8382 72.005 344.86)"/><path d="M90.53 383.077c0-7.828-6.345-14.174-14.173-14.174s-14.173 6.346-14.173 14.174c0 7.827 6.345 14.173 14.173 14.173s14.174-6.346 14.174-14.173zm-14.173 0" fill="#fff"/><path stroke-width=".797" stroke-miterlimit="10" fill="none" stroke="#000" d="M90.53 383.077c0-7.828-6.345-14.174-14.173-14.174s-14.173 6.346-14.173 14.174c0 7.827 6.345 14.173 14.173 14.173s14.174-6.346 14.174-14.173zm-14.173 0"/><use xlink:href="#ad" transform="matrix(13.1985 0 0 -13.1985 70.399 389.054)"/><path d="M203.918 340.556c0-7.827-6.346-14.173-14.174-14.173-7.827 0-14.173 6.346-14.173 14.173 0 7.828 6.346 14.174 14.173 14.174 7.828 0 14.174-6.346 14.174-14.174zm-14.174 0" fill="#fff"/><path stroke-width=".797" stroke-miterlimit="10" fill="none" stroke="#000" d="M203.918 340.556c0-7.827-6.346-14.173-14.174-14.173-7.827 0-14.173 6.346-14.173 14.173 0 7.828 6.346 14.174 14.173 14.174 7.828 0 14.174-6.346 14.174-14.174zm-14.174 0"/><path stroke-width=".797" stroke-miterlimit="10" fill="none" stroke="#000" d="M175.571 340.556h14.173m0 0c4.252-7.364 4.252-7.364 10.022-10.021m-10.022 10.021c4.252 7.365 4.252 7.365 10.022 10.022"/><path d="M193.713 340.556a3.969 3.969 0 1 0-7.937 0 3.969 3.969 0 0 0 7.937 0zm-3.969 0" fill="#fff"/><path stroke-width=".797" stroke-miterlimit="10" fill="none" stroke="#000" d="M193.713 340.556a3.969 3.969 0 1 0-7.937 0 3.969 3.969 0 0 0 7.937 0zm-3.969 0"/><path d="M203.918 383.077c0-7.828-6.346-14.174-14.174-14.174-7.827 0-14.173 6.346-14.173 14.174 0 7.827 6.346 14.173 14.173 14.173 7.828 0 14.174-6.346 14.174-14.173zm-14.174 0" fill="#fff"/><path stroke-width=".797" stroke-miterlimit="10" fill="none" stroke="#000" d="M203.918 383.077c0-7.828-6.346-14.174-14.174-14.174-7.827 0-14.173 6.346-14.173 14.174 0 7.827 6.346 14.173 14.173 14.173 7.828 0 14.174-6.346 14.174-14.173zm-14.174 0"/><path stroke-width=".797" stroke-miterlimit="10" fill="none" stroke="#000" d="M175.571 383.077h28.347m-14.174 0c-4.251-7.365-4.251-7.365-10.021-10.022m10.021 10.022c-4.251 7.364-4.251 7.364-10.021 10.022"/><path d="M192.58 383.077a2.835 2.835 0 1 0-5.67 0 2.835 2.835 0 0 0 5.67 0zm-2.836 0" fill="#fff"/><path stroke-width=".797" stroke-miterlimit="10" fill="none" stroke="#000" d="M192.58 383.077a2.835 2.835 0 1 0-5.67 0 2.835 2.835 0 0 0 5.67 0zm-2.836 0"/><path d="M430.692 340.556c0-7.827-6.345-14.173-14.173-14.173s-14.173 6.346-14.173 14.173c0 7.828 6.345 14.174 14.173 14.174s14.173-6.346 14.173-14.174zm-14.173 0" fill="#fff"/><path stroke-width=".797" stroke-miterlimit="10" fill="none" stroke="#000" d="M430.692 340.556c0-7.827-6.345-14.173-14.173-14.173s-14.173 6.346-14.173 14.173c0 7.828 6.345 14.174 14.173 14.174s14.173-6.346 14.173-14.174zm-14.173 0"/><path stroke-width=".797" stroke-miterlimit="10" fill="none" stroke="#000" d="M406.497 350.578c10.022 1.317 10.022-21.36 20.044-20.043"/><path d="M430.692 383.077c0-7.828-6.345-14.174-14.173-14.174s-14.173 6.346-14.173 14.174c0 7.827 6.345 14.173 14.173 14.173s14.173-6.346 14.173-14.173zm-14.173 0" fill="#fff"/><path stroke-width=".797" stroke-miterlimit="10" fill="none" stroke="#000" d="M430.692 383.077c0-7.828-6.345-14.174-14.173-14.174s-14.173 6.346-14.173 14.174c0 7.827 6.345 14.173 14.173 14.173s14.173-6.346 14.173-14.173zm-14.173 0"/><use xlink:href="#ae" transform="matrix(15.8382 0 0 -15.8382 412.163 385.773)"/><path d="M600.773 340.556c0-7.827-6.345-14.173-14.173-14.173s-14.174 6.346-14.174 14.173c0 7.828 6.346 14.174 14.174 14.174 7.828 0 14.173-6.346 14.173-14.174zm-14.173 0" fill="#fff"/><path stroke-width=".797" stroke-miterlimit="10" fill="none" stroke="#000" d="M600.773 340.556c0-7.827-6.345-14.173-14.173-14.173s-14.174 6.346-14.174 14.173c0 7.828 6.346 14.174 14.174 14.174 7.828 0 14.173-6.346 14.173-14.174zm-14.173 0"/><use xlink:href="#ah" transform="matrix(15.8382 0 0 -15.8382 579.089 347.148)"/><use xlink:href="#ai" transform="matrix(15.8382 0 0 -15.8382 584.46 347.247)"/><use xlink:href="#aj" transform="matrix(15.8382 0 0 -15.8382 590.059 347.148)"/><path d="M600.773 383.077c0-7.828-6.345-14.174-14.173-14.174s-14.174 6.346-14.174 14.174c0 7.827 6.346 14.173 14.174 14.173 7.828 0 14.173-6.346 14.173-14.173zm-14.173 0" fill="#f3a3b2"/><path d="M799.2 340.556c0-7.827-6.345-14.173-14.173-14.173-7.827 0-14.173 6.346-14.173 14.173 0 7.828 6.346 14.174 14.173 14.174 7.828 0 14.174-6.346 14.174-14.174zm-14.173 0" fill="#78a3ce"/><path d="M799.2 383.077c0-7.828-6.345-14.174-14.173-14.174-7.827 0-14.173 6.346-14.173 14.174 0 7.827 6.346 14.173 14.173 14.173 7.828 0 14.174-6.346 14.174-14.173zm-14.173 0" fill="#62b991"/><path d="M105.102 347.852h30.26V333.26h-30.26z" fill="#fff"/><symbol id="aq"><path d="M.078.381v-.25c0-.029.002-.06.019-.086C.122.009.168 0 .209 0a.18.18 0 0 1 .123.047V.036c0-.021.011-.03.031-.03H.44c.018 0 .031.008.031.028C.471.052.46.061.44.061H.393V.38l.001.022c0 .021-.007.034-.036.034h-.07C.273.436.254.435.254.409c0-.017.01-.028.029-.028h.049V.17C.332.1.288.055.222.055.181.055.139.06.139.127v.278c0 .02-.01.031-.031.031H.031C.014.436 0 .428 0 .409 0 .391.01.381.029.381h.049z"/></symbol><use xlink:href="#q" transform="matrix(14.3462 0 0 -14.3462 110.314 343.715)" fill="#945"/><use xlink:href="#aq" transform="matrix(14.3462 0 0 -14.3462 116.856 343.715)" fill="#945"/><use xlink:href="#d" transform="matrix(14.3462 0 0 -14.3462 123.9 343.629)" fill="#945"/><path d="M105.102 391.667h44.822v-17.18h-44.822z" fill="#fff"/><use xlink:href="#q" transform="matrix(14.3462 0 0 -14.3462 110.314 387.529)" fill="#945"/><use xlink:href="#f" transform="matrix(14.3462 0 0 -14.3462 117.66 387.529)" fill="#945"/><use xlink:href="#t" transform="matrix(14.3462 0 0 -14.3462 124.703 387.529)" fill="#945"/><use xlink:href="#v" transform="matrix(14.3462 0 0 -14.3462 132.12 387.443)" fill="#945"/><use xlink:href="#i" transform="matrix(14.3462 0 0 -14.3462 139.28 387.529)" fill="#945"/><path d="M218.49 350.74h154.038v-20.368H218.49z" fill="#fff"/><symbol id="ar"><path d="m.14.6.001.02C.141.642.13.652.109.652H.032C.015.652.001.644.001.625.001.607.01.597.032.597h.047V.055h-.05C.012.055 0 .043 0 .027 0 .007.015 0 .034 0h.152c.021 0 .032.009.032.028 0 .016-.01.027-.027.027H.14v.221C.172.241.21.215.259.215c.118 0 .193.117.193.224 0 .1-.063.219-.182.219A.181.181 0 0 1 .14.6M.39.424C.383.351.335.271.252.271.193.271.15.33.14.387v.06L.139.486c0 .061.059.117.122.117.08 0 .13-.089.13-.161L.39.424z"/></symbol><symbol id="as"><path d="M.047.38C.062.268.089.158.107.047.112.018.117 0 .15 0c.032 0 .044.005.061.08.012.04.026.081.03.122h.001c0-.016.005-.033.009-.049C.261.11.273.058.29.018.299.003.313 0 .329 0 .361 0 .365.02.37.047l.013.072C.398.206.418.293.43.38L.446.379c.018 0 .031.01.031.029 0 .019-.013.027-.033.027H.322C.306.435.296.423.296.408.296.391.307.38.324.38H.38L.326.066C.318.114.302.161.288.208.282.231.278.264.242.264.217.264.209.252.199.225L.189.19.166.113C.162.098.155.082.154.066H.152L.097.38h.056C.17.38.181.391.181.408c0 .015-.01.027-.026.027H.033C.013.435 0 .427 0 .408S.013.379.031.379L.047.38z"/></symbol><use xlink:href="#ar" transform="matrix(14.3462 0 0 -14.3462 222.94 346.514)" fill="#945"/><use xlink:href="#t" transform="matrix(14.3462 0 0 -14.3462 230.802 343.416)" fill="#945"/><use xlink:href="#e" transform="matrix(14.3462 0 0 -14.3462 238.506 343.33)" fill="#945"/><use xlink:href="#o" transform="matrix(14.3462 0 0 -14.3462 245.12 343.344)" fill="#945"/><use xlink:href="#as" transform="matrix(14.3462 0 0 -14.3462 252.063 343.401)" fill="#945"/><use xlink:href="#e" transform="matrix(14.3462 0 0 -14.3462 260.37 343.33)" fill="#945"/><use xlink:href="#q" transform="matrix(14.3462 0 0 -14.3462 267.427 343.416)" fill="#945"/><use xlink:href="#i" transform="matrix(14.3462 0 0 -14.3462 274.529 343.416)" fill="#945"/><use xlink:href="#e" transform="matrix(14.3462 0 0 -14.3462 289.52 343.33)" fill="#945"/><use xlink:href="#h" transform="matrix(14.3462 0 0 -14.3462 295.819 343.33)" fill="#945"/><use xlink:href="#b" transform="matrix(14.3462 0 0 -14.3462 303.207 343.416)" fill="#945"/><use xlink:href="#i" transform="matrix(14.3462 0 0 -14.3462 310.968 343.416)" fill="#945"/><use xlink:href="#o" transform="matrix(14.3462 0 0 -14.3462 317.998 343.344)" fill="#945"/><use xlink:href="#t" transform="matrix(14.3462 0 0 -14.3462 325.544 343.416)" fill="#945"/><use xlink:href="#f" transform="matrix(14.3462 0 0 -14.3462 333.076 343.416)" fill="#945"/><use xlink:href="#b" transform="matrix(14.3462 0 0 -14.3462 339.646 343.416)" fill="#945"/><use xlink:href="#e" transform="matrix(14.3462 0 0 -14.3462 347.824 343.33)" fill="#945"/><use xlink:href="#c" transform="matrix(14.3462 0 0 -14.3462 354.71 343.416)" fill="#945"/><use xlink:href="#h" transform="matrix(14.3462 0 0 -14.3462 361.41 343.33)" fill="#945"/><path d="M218.49 393.26h146.757v-20.367H218.49z" fill="#fff"/><use xlink:href="#e" transform="matrix(14.3462 0 0 -14.3462 223.93 385.85)" fill="#945"/><use xlink:href="#h" transform="matrix(14.3462 0 0 -14.3462 230.228 385.85)" fill="#945"/><use xlink:href="#b" transform="matrix(14.3462 0 0 -14.3462 237.616 385.936)" fill="#945"/><use xlink:href="#i" transform="matrix(14.3462 0 0 -14.3462 245.377 385.936)" fill="#945"/><use xlink:href="#o" transform="matrix(14.3462 0 0 -14.3462 252.407 385.864)" fill="#945"/><use xlink:href="#t" transform="matrix(14.3462 0 0 -14.3462 259.953 385.936)" fill="#945"/><use xlink:href="#f" transform="matrix(14.3462 0 0 -14.3462 267.485 385.936)" fill="#945"/><use xlink:href="#b" transform="matrix(14.3462 0 0 -14.3462 274.055 385.936)" fill="#945"/><use xlink:href="#e" transform="matrix(14.3462 0 0 -14.3462 282.233 385.85)" fill="#945"/><use xlink:href="#c" transform="matrix(14.3462 0 0 -14.3462 289.119 385.936)" fill="#945"/><use xlink:href="#h" transform="matrix(14.3462 0 0 -14.3462 295.819 385.85)" fill="#945"/><use xlink:href="#ar" transform="matrix(14.3462 0 0 -14.3462 310.394 389.035)" fill="#945"/><use xlink:href="#c" transform="matrix(14.3462 0 0 -14.3462 318.27 385.936)" fill="#945"/><use xlink:href="#c" transform="matrix(14.3462 0 0 -14.3462 325.558 385.936)" fill="#945"/><use xlink:href="#v" transform="matrix(14.3462 0 0 -14.3462 332.96 385.85)" fill="#945"/><use xlink:href="#e" transform="matrix(14.3462 0 0 -14.3462 340.536 385.85)" fill="#945"/><use xlink:href="#h" transform="matrix(14.3462 0 0 -14.3462 346.834 385.85)" fill="#945"/><use xlink:href="#l" transform="matrix(14.3462 0 0 -14.3462 354.28 389.135)" fill="#945"/><path d="M445.264 349.147h110.352v-17.18H445.264z" fill="#fff"/><symbol id="at"><path d="M.14.431H.06L.037.432C.016.432 0 .424 0 .403 0 .381.017.376.032.376H.14v-.32H.042C.019.056.009.045.009.029.009.005.027 0 .055 0L.1.001h.199C.32.001.332.01.332.028c0 .021-.015.028-.035.028H.201v.32h.126c.015 0 .036.003.036.027 0 .016-.012.028-.03.028H.201V.49c0 .053.05.073.091.073.032 0 .019-.036.055-.036.02 0 .036.016.036.036v.004C.376.615.329.618.294.618.232.618.161.585.144.521.14.507.14.493.14.478V.431z"/></symbol><use xlink:href="#at" transform="matrix(14.3462 0 0 -14.3462 450.056 344.938)" fill="#945"/><use xlink:href="#i" transform="matrix(14.3462 0 0 -14.3462 457.574 345.01)" fill="#945"/><use xlink:href="#i" transform="matrix(14.3462 0 0 -14.3462 464.861 345.01)" fill="#945"/><use xlink:href="#u" transform="matrix(14.3462 0 0 -14.3462 471.877 345.01)" fill="#945"/><use xlink:href="#at" transform="matrix(14.3462 0 0 -14.3462 479.208 344.938)" fill="#945"/><use xlink:href="#c" transform="matrix(14.3462 0 0 -14.3462 486.74 345.01)" fill="#945"/><use xlink:href="#o" transform="matrix(14.3462 0 0 -14.3462 493.755 344.938)" fill="#945"/><use xlink:href="#as" transform="matrix(14.3462 0 0 -14.3462 500.698 344.995)" fill="#945"/><use xlink:href="#t" transform="matrix(14.3462 0 0 -14.3462 508.589 345.01)" fill="#945"/><use xlink:href="#o" transform="matrix(14.3462 0 0 -14.3462 515.618 344.938)" fill="#945"/><use xlink:href="#u" transform="matrix(14.3462 0 0 -14.3462 522.892 345.01)" fill="#945"/><use xlink:href="#k" transform="matrix(14.3462 0 0 -14.3462 537.367 344.938)" fill="#945"/><use xlink:href="#k" transform="matrix(14.3462 0 0 -14.3462 544.655 344.938)" fill="#945"/><path d="M445.264 393.26h44.822v-20.367h-44.822z" fill="#fff"/><use xlink:href="#q" transform="matrix(14.3462 0 0 -14.3462 450.472 385.936)" fill="#945"/><use xlink:href="#ar" transform="matrix(14.3462 0 0 -14.3462 457 389.035)" fill="#945"/><use xlink:href="#v" transform="matrix(14.3462 0 0 -14.3462 464.99 385.85)" fill="#945"/><use xlink:href="#e" transform="matrix(14.3462 0 0 -14.3462 472.565 385.85)" fill="#945"/><use xlink:href="#b" transform="matrix(14.3462 0 0 -14.3462 478.964 385.936)" fill="#945"/><path d="M615.345 349.147h30.26v-17.18h-30.26z" fill="#fff"/><use xlink:href="#u" transform="matrix(14.3462 0 0 -14.3462 620.091 345.01)" fill="#945"/><use xlink:href="#c" transform="matrix(14.3462 0 0 -14.3462 627.666 345.01)" fill="#945"/><use xlink:href="#b" transform="matrix(14.3462 0 0 -14.3462 634.466 345.01)" fill="#945"/><path d="M615.345 391.667h139.476v-17.18H615.345z" fill="#fff"/><symbol id="au"><path d="M.347.38.232.046.118.38h.03c.02 0 .033.009.033.028 0 .018-.012.027-.034.027H.054L.035.436C.014.436 0 .425 0 .407 0 .387.016.38.033.38h.022C.074.38.084.326.094.299.123.211.152.122.184.035.192.016.198 0 .231 0H.24c.032 0 .038.027.045.048L.3.09c.029.089.062.175.09.264C.395.365.393.38.41.38h.022c.017 0 .033.007.033.027C.465.425.451.436.43.436L.411.435H.318C.296.435.284.426.284.408.284.389.297.38.317.38h.03z"/></symbol><symbol id="av"><path d="M.019.054C.006.051 0 .039 0 .027 0 .01.011 0 .031 0h.278c.016 0 .03.009.03.027C.339.04.332.053.318.055H.056L.034.056A.077.077 0 0 1 .019.054z"/></symbol><use xlink:href="#e" transform="matrix(14.3462 0 0 -14.3462 620.78 387.444)" fill="#945"/><use xlink:href="#h" transform="matrix(14.3462 0 0 -14.3462 627.078 387.444)" fill="#945"/><use xlink:href="#au" transform="matrix(14.3462 0 0 -14.3462 634.423 387.515)" fill="#945"/><use xlink:href="#t" transform="matrix(14.3462 0 0 -14.3462 642.227 387.53)" fill="#945"/><use xlink:href="#o" transform="matrix(14.3462 0 0 -14.3462 649.257 387.458)" fill="#945"/><use xlink:href="#e" transform="matrix(14.3462 0 0 -14.3462 657.219 387.444)" fill="#945"/><use xlink:href="#t" transform="matrix(14.3462 0 0 -14.3462 664.09 387.53)" fill="#945"/><use xlink:href="#h" transform="matrix(14.3462 0 0 -14.3462 670.805 387.444)" fill="#945"/><use xlink:href="#b" transform="matrix(14.3462 0 0 -14.3462 678.193 387.53)" fill="#945"/><use xlink:href="#av" transform="matrix(14.3462 0 0 -14.3462 693.63 384.747)" fill="#945"/><use xlink:href="#q" transform="matrix(14.3462 0 0 -14.3462 707.99 387.53)" fill="#945"/><use xlink:href="#f" transform="matrix(14.3462 0 0 -14.3462 715.335 387.53)" fill="#945"/><use xlink:href="#t" transform="matrix(14.3462 0 0 -14.3462 722.38 387.53)" fill="#945"/><use xlink:href="#v" transform="matrix(14.3462 0 0 -14.3462 729.796 387.444)" fill="#945"/><use xlink:href="#t" transform="matrix(14.3462 0 0 -14.3462 736.955 387.53)" fill="#945"/><use xlink:href="#o" transform="matrix(14.3462 0 0 -14.3462 743.984 387.458)" fill="#945"/><path d="M813.773 350.74h175.882v-20.368H813.773z" fill="#fff"/><symbol id="aw"><path d="M.327.286V.055H.275c-.02 0-.03-.011-.03-.028C.245.008.258 0 .278 0h.166C.46 0 .472.01.472.027c0 .018-.012.028-.03.028H.389v.571C.389.645.38.659.358.659.337.659.328.646.328.625V.593a.165.165 0 0 1-.127.065C.077.658 0 .545 0 .435 0 .328.076.216.191.216c.052 0 .111.028.136.07M.061.424.06.437c0 .082.062.166.149.166.066 0 .113-.068.119-.127V.41C.328.342.267.271.201.271.119.271.07.347.061.424z"/></symbol><use xlink:href="#i" transform="matrix(14.3462 0 0 -14.3462 818.789 343.416)" fill="#945"/><use xlink:href="#aw" transform="matrix(14.3462 0 0 -14.3462 825.861 346.514)" fill="#945"/><use xlink:href="#aq" transform="matrix(14.3462 0 0 -14.3462 832.805 343.416)" fill="#945"/><use xlink:href="#e" transform="matrix(14.3462 0 0 -14.3462 841.068 343.33)" fill="#945"/><use xlink:href="#au" transform="matrix(14.3462 0 0 -14.3462 847.424 343.401)" fill="#945"/><use xlink:href="#t" transform="matrix(14.3462 0 0 -14.3462 855.228 343.416)" fill="#945"/><use xlink:href="#o" transform="matrix(14.3462 0 0 -14.3462 862.258 343.344)" fill="#945"/><use xlink:href="#e" transform="matrix(14.3462 0 0 -14.3462 870.22 343.33)" fill="#945"/><use xlink:href="#t" transform="matrix(14.3462 0 0 -14.3462 877.091 343.416)" fill="#945"/><use xlink:href="#h" transform="matrix(14.3462 0 0 -14.3462 883.806 343.33)" fill="#945"/><use xlink:href="#b" transform="matrix(14.3462 0 0 -14.3462 891.194 343.416)" fill="#945"/><use xlink:href="#av" transform="matrix(14.3462 0 0 -14.3462 906.63 340.633)" fill="#945"/><use xlink:href="#au" transform="matrix(14.3462 0 0 -14.3462 920.288 343.401)" fill="#945"/><use xlink:href="#i" transform="matrix(14.3462 0 0 -14.3462 928.092 343.416)" fill="#945"/><use xlink:href="#f" transform="matrix(14.3462 0 0 -14.3462 935.624 343.416)" fill="#945"/><use xlink:href="#b" transform="matrix(14.3462 0 0 -14.3462 942.194 343.416)" fill="#945"/><use xlink:href="#c" transform="matrix(14.3462 0 0 -14.3462 949.97 343.416)" fill="#945"/><use xlink:href="#o" transform="matrix(14.3462 0 0 -14.3462 957 343.344)" fill="#945"/><use xlink:href="#e" transform="matrix(14.3462 0 0 -14.3462 964.962 343.33)" fill="#945"/><use xlink:href="#t" transform="matrix(14.3462 0 0 -14.3462 971.833 343.416)" fill="#945"/><use xlink:href="#v" transform="matrix(14.3462 0 0 -14.3462 979.25 343.33)" fill="#945"/><path d="M813.773 393.26h175.882v-20.367H813.773z" fill="#fff"/><use xlink:href="#i" transform="matrix(14.3462 0 0 -14.3462 818.789 385.936)" fill="#945"/><use xlink:href="#aw" transform="matrix(14.3462 0 0 -14.3462 825.861 389.035)" fill="#945"/><use xlink:href="#aq" transform="matrix(14.3462 0 0 -14.3462 832.805 385.936)" fill="#945"/><use xlink:href="#e" transform="matrix(14.3462 0 0 -14.3462 841.068 385.85)" fill="#945"/><use xlink:href="#au" transform="matrix(14.3462 0 0 -14.3462 847.424 385.921)" fill="#945"/><use xlink:href="#t" transform="matrix(14.3462 0 0 -14.3462 855.228 385.936)" fill="#945"/><use xlink:href="#o" transform="matrix(14.3462 0 0 -14.3462 862.258 385.864)" fill="#945"/><use xlink:href="#e" transform="matrix(14.3462 0 0 -14.3462 870.22 385.85)" fill="#945"/><use xlink:href="#t" transform="matrix(14.3462 0 0 -14.3462 877.091 385.936)" fill="#945"/><use xlink:href="#h" transform="matrix(14.3462 0 0 -14.3462 883.806 385.85)" fill="#945"/><use xlink:href="#b" transform="matrix(14.3462 0 0 -14.3462 891.194 385.936)" fill="#945"/><use xlink:href="#av" transform="matrix(14.3462 0 0 -14.3462 906.63 383.153)" fill="#945"/><use xlink:href="#b" transform="matrix(14.3462 0 0 -14.3462 920.33 385.936)" fill="#945"/><use xlink:href="#i" transform="matrix(14.3462 0 0 -14.3462 928.092 385.936)" fill="#945"/><use xlink:href="#h" transform="matrix(14.3462 0 0 -14.3462 934.806 385.85)" fill="#945"/><use xlink:href="#q" transform="matrix(14.3462 0 0 -14.3462 942.854 385.936)" fill="#945"/><use xlink:href="#c" transform="matrix(14.3462 0 0 -14.3462 949.97 385.936)" fill="#945"/><use xlink:href="#o" transform="matrix(14.3462 0 0 -14.3462 957 385.864)" fill="#945"/><use xlink:href="#e" transform="matrix(14.3462 0 0 -14.3462 964.962 385.85)" fill="#945"/><use xlink:href="#t" transform="matrix(14.3462 0 0 -14.3462 971.833 385.936)" fill="#945"/><use xlink:href="#v" transform="matrix(14.3462 0 0 -14.3462 979.25 385.85)" fill="#945"/></svg>