<svg xmlns="http://www.w3.org/2000/svg" xmlns:xlink="http://www.w3.org/1999/xlink" width="1158.559" height="354.921" viewBox="0 0 868.919 266.191"><path d="M740.04 22.01a7.087 7.087 0 1 0-14.172 0 7.087 7.087 0 0 0 14.173 0zm-7.086 0" fill="#fff"/><path stroke-width=".797" stroke-miterlimit="10" fill="none" stroke="#000" d="M740.04 22.01a7.087 7.087 0 1 0-14.172 0 7.087 7.087 0 0 0 14.173 0zm-7.086 0"/><symbol id="a"><path d="M.451 0a.452.452 0 1 1 0 .903.452.452 0 0 1 0-.903m0 .837c.09 0 .18-.032.247-.09L.451.501.205.747c.068.059.158.09.246.09M.746.699A.385.385 0 0 0 .747.205L.499.452l.247.247m-.59 0L.404.452.156.205a.386.386 0 0 0 0 .494M.451.403.698.157a.38.38 0 0 0-.493 0l.246.246z"/></symbol><use xlink:href="#a" transform="matrix(10.0363 0 0 -10.0363 728.415 26.56)"/><path d="M740.04 50.358a7.087 7.087 0 1 0-14.172 0 7.087 7.087 0 0 0 14.173 0zm-7.086 0" fill="#fff"/><path stroke-width=".797" stroke-miterlimit="10" fill="none" stroke="#000" d="M740.04 50.358a7.087 7.087 0 1 0-14.172 0 7.087 7.087 0 0 0 14.173 0zm-7.086 0"/><symbol id="b"><path d="M0 .281a.281.281 0 1 1 .562 0 .281.281 0 0 1-.562 0m.05 0a.23.23 0 1 0 .462 0 .23.23 0 1 0-.462 0m.168 0c0-.035.028-.063.063-.063s.063.028.063.063a.063.063 0 0 1-.063.063.063.063 0 0 1-.063-.063z"/></symbol><use xlink:href="#b" transform="matrix(10.0364 0 0 -10.0364 730.128 53.148)"/><path d="M740.04 78.704a7.087 7.087 0 1 0-14.172 0 7.087 7.087 0 0 0 14.173 0zm-7.086 0" fill="#fff"/><path stroke-width=".797" stroke-miterlimit="10" fill="none" stroke="#000" d="M740.04 78.704a7.087 7.087 0 1 0-14.172 0 7.087 7.087 0 0 0 14.173 0zm-7.086 0"/><path stroke-width=".797" stroke-miterlimit="10" fill="none" stroke="#000" d="M725.867 78.704h7.087m0 0c2.126-3.682 2.126-3.682 5.011-5.01m-5.01 5.01c2.125 3.683 2.125 3.683 5.01 5.011"/><path d="M734.372 78.704a1.417 1.417 0 1 0-2.835 0 1.417 1.417 0 0 0 2.835 0zm-1.418 0" fill="#fff"/><path stroke-width=".797" stroke-miterlimit="10" fill="none" stroke="#000" d="M734.372 78.704a1.417 1.417 0 1 0-2.835 0 1.417 1.417 0 0 0 2.835 0zm-1.418 0"/><path d="M740.04 107.051a7.087 7.087 0 1 0-14.172 0 7.087 7.087 0 0 0 14.173 0zm-7.086 0" fill="#fff"/><path stroke-width=".797" stroke-miterlimit="10" fill="none" stroke="#000" d="M740.04 107.051a7.087 7.087 0 1 0-14.172 0 7.087 7.087 0 0 0 14.173 0zm-7.086 0"/><path stroke-width=".797" stroke-miterlimit="10" fill="none" stroke="#000" d="M727.943 112.062c5.011.658 5.011-10.68 10.022-10.022"/><path d="M740.04 135.398a7.087 7.087 0 1 0-14.172 0 7.087 7.087 0 0 0 14.173 0zm-7.086 0" fill="#fff"/><path stroke-width=".797" stroke-miterlimit="10" fill="none" stroke="#000" d="M740.04 135.398a7.087 7.087 0 1 0-14.172 0 7.087 7.087 0 0 0 14.173 0zm-7.086 0"/><symbol id="c"><path d="M0 .304V.246h.246V0h.058v.246H.55v.058H.304V.55H.246V.304H0z"/></symbol><use xlink:href="#c" transform="matrix(10.0364 0 0 -10.0364 730.188 138.127)"/><path d="M740.04 163.745a7.087 7.087 0 1 0-14.172 0 7.087 7.087 0 0 0 14.173 0zm-7.086 0" fill="#fff"/><path stroke-width=".797" stroke-miterlimit="10" fill="none" stroke="#000" d="M740.04 163.745a7.087 7.087 0 1 0-14.172 0 7.087 7.087 0 0 0 14.173 0zm-7.086 0"/><symbol id="d"><path d="M.55.178v.058H0V.178h.55m0 .178v.058H0V.356h.55M.55 0v.058H0V0h.55z"/></symbol><use xlink:href="#d" transform="matrix(10.0364 0 0 -10.0364 730.188 165.455)"/><path d="M740.124 192.092a7.17 7.17 0 1 0-14.34 0 7.17 7.17 0 0 0 14.34 0zm-7.17 0" fill="#fff"/><path stroke-width=".797" stroke-miterlimit="10" fill="none" stroke="#000" d="M740.124 192.092a7.17 7.17 0 1 0-14.34 0 7.17 7.17 0 0 0 14.34 0zm-7.17 0"/><symbol id="e"><path d="M.256.829.204.854 0 .427.204 0l.052.025-.192.402.192.402z"/></symbol><use xlink:href="#e" transform="matrix(10.0364 0 0 -10.0364 728.19 196.268)"/><symbol id="f"><path d="M.019 0c.05.047.123.113.123.192 0 .055-.033.091-.068.09C.043.282.025.258.025.232c0-.036.033-.054.033-.097C.058.094.032.054 0 .019L.019 0z"/></symbol><use xlink:href="#f" transform="matrix(10.0364 0 0 -10.0364 731.594 196.332)"/><symbol id="g"><path d="M.192.427 0 .025.052 0l.204.427-.204.427L0 .829.192.427z"/></symbol><use xlink:href="#g" transform="matrix(10.0364 0 0 -10.0364 735.141 196.268)"/><path d="M740.04 220.438a7.087 7.087 0 1 0-14.172 0 7.087 7.087 0 0 0 14.173 0zm-7.086 0" fill="#e9a"/><path stroke-width=".797" stroke-miterlimit="10" fill="none" stroke="#000" d="M740.04 220.438a7.087 7.087 0 1 0-14.172 0 7.087 7.087 0 0 0 14.173 0zm-7.086 0"/><path d="M740.04 248.785a7.087 7.087 0 1 0-14.172 0 7.087 7.087 0 0 0 14.173 0zm-7.086 0" fill="#69c"/><path stroke-width=".797" stroke-miterlimit="10" fill="none" stroke="#000" d="M740.04 248.785a7.087 7.087 0 1 0-14.172 0 7.087 7.087 0 0 0 14.173 0zm-7.086 0"/><path d="M747.526 29.755h85.322V14.267h-85.322z" fill="#fff"/><symbol id="h"><path d="M.125.436H.036C.012.436 0 .425 0 .405S.015.376.034.376h.091V.147C.125.089.135 0 .263 0c.076 0 .154.046.154.128v.011C.417.165.4.171.382.171.359.171.349.158.349.135V.128C.349.081.305.06.268.06.21.06.193.096.193.14v.236h.162c.018 0 .04.003.04.03 0 .014-.008.028-.023.03H.193v.089C.193.553.177.559.16.559.141.559.125.552.125.524V.436z"/></symbol><symbol id="i"><path d="M.07.198h.294c.024 0 .039.009.039.035a.232.232 0 0 1-.06.163.188.188 0 0 1-.13.049A.217.217 0 0 1 0 .224C0 .094.106 0 .232 0 .287 0 .347.022.38.067c.009.012.022.03.022.047 0 .02-.017.028-.035.028C.338.142.338.124.327.106A.112.112 0 0 0 .232.06.168.168 0 0 0 .07.198m.001.058c.02.069.063.129.142.129.061 0 .103-.042.115-.101L.333.256H.071z"/></symbol><symbol id="j"><path d="M.151.381v.016C.151.422.136.43.116.43H.035C.016.43 0 .42 0 .4 0 .381.013.37.033.37h.05V.06H.032C.014.06 0 .048 0 .03 0 .01.013 0 .037 0h.16c.022 0 .037.009.037.03C.234.048.22.06.202.06H.151v.169c0 .074.042.147.122.147h.01C.335.369.341.329.341.292V.06H.292C.274.06.26.048.26.03.26.009.275 0 .297 0h.158c.024 0 .037.01.037.03C.492.048.478.06.46.06H.409v.22c0 .039-.002.085-.03.116a.122.122 0 0 1-.097.041.183.183 0 0 1-.131-.056z"/></symbol><symbol id="k"><path d="M.066.039A.204.204 0 0 1 .196 0c.086 0 .185.035.185.131 0 .175-.32.105-.32.197 0 .048.079.057.121.057.037 0 .093-.006.1-.05C.289.309.288.294.32.294c.029 0 .032.018.032.036v.083c0 .022-.011.032-.029.032C.308.445.299.437.293.423a.212.212 0 0 1-.105.022C.109.445.001.42.001.327c0-.052.041-.084.084-.1C.158.2.321.213.321.129.321.061.211.06.195.06H.194C.144.06.097.081.075.138c-.01.023-.011.04-.041.04C.006.178.001.16.001.142V.054L0 .034C0 .013.011 0 .031 0c.024 0 .03.022.035.039z"/></symbol><symbol id="l"><path d="M.189.445A.217.217 0 0 1 0 .222V.209C.006.105.081 0 .204 0h.011c.12.014.189.114.189.222v.011C.397.337.323.445.2.445H.189M.068.216.067.229c0 .075.056.156.136.156h.001C.286.385.337.3.337.227.337.149.283.06.202.06H.197C.119.067.075.142.068.216z"/></symbol><symbol id="m"><path d="M.187.353.186.394c0 .02-.006.037-.035.037H.036C.018.431 0 .424 0 .402 0 .381.013.371.037.371h.081v-.31H.035C.012.061 0 .049 0 .031S.013 0 .032 0l.015.001h.192L.285 0c.03 0 .049.006.049.032 0 .017-.011.03-.036.03L.275.061H.186v.123c0 .082.047.193.167.193L.368.376C.37.354.385.336.408.336c.021 0 .04.018.04.041 0 .052-.061.061-.094.061C.294.438.216.404.187.353z"/></symbol><symbol id="n"><path d="M.151.607v.011c0 .023-.012.034-.035.034H.035C.016.652 0 .642 0 .622c0-.019.013-.03.033-.03h.05V.06H.032C.014.06 0 .048 0 .03 0 .01.013 0 .037 0h.16c.022 0 .037.009.037.03C.234.048.22.06.202.06H.151v.209A.163.163 0 0 1 .267.215c.116 0 .201.109.201.223 0 .105-.069.22-.192.22A.18.18 0 0 1 .151.607M.399.424C.393.351.34.276.262.276.193.276.15.354.15.417l.001.032L.15.484c0 .063.062.113.121.113C.356.597.4.508.4.439L.399.424z"/></symbol><symbol id="o"><path d="M.318.557V.395a.172.172 0 0 1-.111.047C.079.442 0 .331 0 .218 0 .112.078 0 .193 0c.052 0 .091.024.125.058V.041C.318.017.33.006.353.006h.082c.019 0 .034.01.034.03 0 .017-.011.03-.033.03h-.05v.519c0 .021-.011.032-.037.032h-.08C.25.617.235.608.235.587c0-.018.012-.03.032-.03h.051M.069.209.068.223C.068.3.125.382.21.382.267.382.319.327.319.27L.318.235.319.198C.319.132.264.06.197.06.119.06.076.141.069.209z"/></symbol><symbol id="p"><path d="M.083.376V.129C.083.1.085.072.102.048.128.009.178 0 .222 0c.043 0 .086.012.119.04 0-.018.006-.034.034-.034h.079c.021 0 .038.007.038.03 0 .02-.015.03-.034.03H.409v.315L.41.402C.41.424.4.436.371.436H.296C.28.436.258.433.258.406c0-.016.011-.03.032-.03h.051V.17A.107.107 0 0 0 .328.109C.306.073.265.061.225.061H.212C.176.063.151.075.151.127v.27c0 .025-.009.039-.035.039H.034C.015.436 0 .426 0 .406c0-.017.011-.03.032-.03h.051z"/></symbol><symbol id="q"><path d="M.291.38.29.372A.043.043 0 0 1 .375.367c0 .074-.08.078-.14.078H.201A.224.224 0 0 1 0 .222C0 .109.084 0 .222 0c.055 0 .113.022.145.069.007.012.019.03.019.046 0 .023-.021.027-.035.027-.03 0-.03-.02-.04-.036C.293.074.259.06.223.06a.16.16 0 0 0-.155.156v.005c0 .085.061.164.156.164.022 0 .046 0 .067-.005z"/></symbol><use xlink:href="#h" transform="matrix(10.9091 0 0 -10.9091 750.99 24.189)" fill="#945"/><use xlink:href="#i" transform="matrix(10.9091 0 0 -10.9091 756.957 24.189)" fill="#945"/><use xlink:href="#j" transform="matrix(10.9091 0 0 -10.9091 762.128 24.123)" fill="#945"/><use xlink:href="#k" transform="matrix(10.9091 0 0 -10.9091 768.4 24.189)" fill="#945"/><use xlink:href="#l" transform="matrix(10.9091 0 0 -10.9091 773.888 24.189)" fill="#945"/><use xlink:href="#m" transform="matrix(10.9091 0 0 -10.9091 779.266 24.134)" fill="#945"/><use xlink:href="#n" transform="matrix(10.9091 0 0 -10.9091 790.328 26.545)" fill="#945"/><use xlink:href="#m" transform="matrix(10.9091 0 0 -10.9091 796.186 24.134)" fill="#945"/><use xlink:href="#l" transform="matrix(10.9091 0 0 -10.9091 802.088 24.189)" fill="#945"/><use xlink:href="#o" transform="matrix(10.9091 0 0 -10.9091 807.499 24.189)" fill="#945"/><use xlink:href="#p" transform="matrix(10.9091 0 0 -10.9091 812.888 24.189)" fill="#945"/><use xlink:href="#q" transform="matrix(10.9091 0 0 -10.9091 819.183 24.189)" fill="#945"/><use xlink:href="#h" transform="matrix(10.9091 0 0 -10.9091 824.31 24.189)" fill="#945"/><path d="M747.526 56.89h34.586V43.825h-34.586z" fill="#fff"/><symbol id="r"><path d="M.11.381a.565.565 0 0 0 .059.004C.224.385.294.367.294.28.18.28 0 .254 0 .132 0 .043.089 0 .163 0A.26.26 0 0 1 .28.025c.007.004.016.012.022.012C.307.037.32.021.334.016A.223.223 0 0 1 .416.005h.013c.023 0 .032.016.032.033v.003C.453.064.442.066.424.066h-.02C.387.066.361.067.361.087L.362.1v.185c0 .095-.075.154-.168.16H.158C.107.445.026.439.026.374.026.346.046.33.069.33c.023 0 .042.019.042.042L.11.381M.294.224V.137C.294.067.211.06.17.06.132.06.068.078.068.131v.001c0 .056.089.077.13.084a.622.622 0 0 0 .096.008z"/></symbol><symbol id="s"><path d="M.166.551V.06H.029C.01.06.001.045.001.03.001.016.009.003.024 0h.34c.02 0 .035.008.035.029C.399.051.385.06.361.06H.234v.521c0 .026-.019.03-.037.03H.038C.022.611 0 .608 0 .582A.03.03 0 0 1 .031.551h.135z"/></symbol><use xlink:href="#k" transform="matrix(10.9091 0 0 -10.9091 751.48 53.747)" fill="#945"/><use xlink:href="#q" transform="matrix(10.9091 0 0 -10.9091 757.142 53.747)" fill="#945"/><use xlink:href="#r" transform="matrix(10.9091 0 0 -10.9091 762.597 53.747)" fill="#945"/><use xlink:href="#s" transform="matrix(10.9091 0 0 -10.9091 768.27 53.681)" fill="#945"/><use xlink:href="#i" transform="matrix(10.9091 0 0 -10.9091 773.877 53.747)" fill="#945"/><path d="M747.526 86.448h119.146V70.96H747.526z" fill="#fff"/><symbol id="t"><path d="M.157.37V.06H.036C.014.06 0 .051 0 .031 0 .017.008.002.024 0h.311c.021 0 .032.012.032.03 0 .019-.013.031-.036.031L.308.06H.225v.336C.225.426.207.43.189.43H.051C.032.43.008.43.008.4c0-.02.011-.03.037-.03h.112m.015.241C.15.611.132.587.132.567c0-.024.02-.048.046-.048.025 0 .047.02.047.045 0 .024-.02.048-.046.048L.172.611z"/></symbol><symbol id="u"><path d="M.245.195h.001C.246.146.272.084.284.04.294.004.31 0 .335 0 .382 0 .38.061.389.108l.043.246c.002.01 0 .021.016.021h.011a.028.028 0 0 1 .027.027v.002C.486.425.47.436.448.436L.425.435H.326C.308.435.291.428.291.406c0-.018.011-.031.033-.031H.38L.329.073C.327.114.309.156.299.196L.29.225C.284.249.27.264.245.264.211.264.205.241.198.218L.172.126C.167.109.16.091.159.073L.106.375h.056c.022 0 .033.013.033.031C.195.428.178.435.16.435H.062L.038.436C.015.436 0 .426 0 .405a.03.03 0 0 1 .025-.03h.013C.044.375.05.374.051.367c.007-.03.011-.06.016-.09l.04-.224C.112.021.118 0 .154 0c.027 0 .039.002.053.04l.009.032c.011.04.025.081.029.123z"/></symbol><use xlink:href="#n" transform="matrix(10.9091 0 0 -10.9091 750.848 83.238)" fill="#945"/><use xlink:href="#r" transform="matrix(10.9091 0 0 -10.9091 756.957 80.882)" fill="#945"/><use xlink:href="#t" transform="matrix(10.9091 0 0 -10.9091 762.87 80.816)" fill="#945"/><use xlink:href="#m" transform="matrix(10.9091 0 0 -10.9091 767.986 80.827)" fill="#945"/><use xlink:href="#u" transform="matrix(10.9091 0 0 -10.9091 773.44 80.87)" fill="#945"/><use xlink:href="#t" transform="matrix(10.9091 0 0 -10.9091 779.79 80.816)" fill="#945"/><use xlink:href="#k" transform="matrix(10.9091 0 0 -10.9091 785.32 80.882)" fill="#945"/><use xlink:href="#i" transform="matrix(10.9091 0 0 -10.9091 790.797 80.882)" fill="#945"/><use xlink:href="#t" transform="matrix(10.9091 0 0 -10.9091 802.35 80.816)" fill="#945"/><use xlink:href="#j" transform="matrix(10.9091 0 0 -10.9091 807.248 80.816)" fill="#945"/><use xlink:href="#h" transform="matrix(10.9091 0 0 -10.9091 813.03 80.882)" fill="#945"/><use xlink:href="#i" transform="matrix(10.9091 0 0 -10.9091 818.997 80.882)" fill="#945"/><use xlink:href="#m" transform="matrix(10.9091 0 0 -10.9091 824.386 80.827)" fill="#945"/><use xlink:href="#r" transform="matrix(10.9091 0 0 -10.9091 830.277 80.882)" fill="#945"/><use xlink:href="#q" transform="matrix(10.9091 0 0 -10.9091 836.103 80.882)" fill="#945"/><use xlink:href="#h" transform="matrix(10.9091 0 0 -10.9091 841.23 80.882)" fill="#945"/><use xlink:href="#t" transform="matrix(10.9091 0 0 -10.9091 847.47 80.816)" fill="#945"/><use xlink:href="#l" transform="matrix(10.9091 0 0 -10.9091 852.86 80.882)" fill="#945"/><use xlink:href="#j" transform="matrix(10.9091 0 0 -10.9091 858.02 80.816)" fill="#945"/><path d="M747.526 113.583h85.322V100.52h-85.322z" fill="#fff"/><symbol id="v"><path d="M.139.43H.06L.037.431C.014.431 0 .42 0 .4 0 .379.015.37.035.37h.104V.06H.058L.036.061C.014.061.001.049.001.03A.03.03 0 0 1 .027 0h.282c.024 0 .036.012.036.03 0 .021-.013.03-.038.03h-.1v.31h.13A.03.03 0 0 1 .368.4c0 .026-.021.03-.037.03H.207v.055c0 .051.044.072.085.072C.318.557.31.516.348.516c.021 0 .041.017.041.045C.382.611.334.617.296.617.233.617.159.586.142.517.139.503.139.489.139.475V.43z"/></symbol><symbol id="w"><path d="M.064.552V.061H.036C.014.061 0 .05 0 .031 0 .011.015 0 .036 0l.02.001h.091c.024 0 .036.012.036.03 0 .02-.013.03-.036.03H.119L.12.544C.123.528.13.512.135.496L.171.394.298.042C.309.014.322.001.356.001h.007c.028 0 .033.018.033.034v.517h.028c.023 0 .036.01.036.03C.46.6.448.612.424.612H.333l-.02.001C.292.613.277.601.277.582c0-.021.016-.03.036-.03h.028V.069L.33.101.297.197.172.542.161.573C.142.612.131.612.099.612H.036C.016.612 0 .603 0 .582c0-.021.014-.03.036-.03h.028z"/></symbol><use xlink:href="#v" transform="matrix(10.9091 0 0 -10.9091 751.175 110.374)" fill="#945"/><use xlink:href="#i" transform="matrix(10.9091 0 0 -10.9091 756.957 110.44)" fill="#945"/><use xlink:href="#i" transform="matrix(10.9091 0 0 -10.9091 762.597 110.44)" fill="#945"/><use xlink:href="#o" transform="matrix(10.9091 0 0 -10.9091 768.019 110.44)" fill="#945"/><use xlink:href="#v" transform="matrix(10.9091 0 0 -10.9091 773.735 110.374)" fill="#945"/><use xlink:href="#l" transform="matrix(10.9091 0 0 -10.9091 779.528 110.44)" fill="#945"/><use xlink:href="#m" transform="matrix(10.9091 0 0 -10.9091 784.906 110.385)" fill="#945"/><use xlink:href="#u" transform="matrix(10.9091 0 0 -10.9091 790.36 110.429)" fill="#945"/><use xlink:href="#r" transform="matrix(10.9091 0 0 -10.9091 796.437 110.44)" fill="#945"/><use xlink:href="#m" transform="matrix(10.9091 0 0 -10.9091 801.826 110.385)" fill="#945"/><use xlink:href="#o" transform="matrix(10.9091 0 0 -10.9091 807.499 110.44)" fill="#945"/><use xlink:href="#w" transform="matrix(10.9091 0 0 -10.9091 818.703 110.385)" fill="#945"/><use xlink:href="#w" transform="matrix(10.9091 0 0 -10.9091 824.343 110.385)" fill="#945"/><path d="M747.526 141.93h51.498v-13.064h-51.498z" fill="#fff"/><use xlink:href="#r" transform="matrix(10.9091 0 0 -10.9091 751.317 138.786)" fill="#945"/><use xlink:href="#o" transform="matrix(10.9091 0 0 -10.9091 756.739 138.786)" fill="#945"/><use xlink:href="#o" transform="matrix(10.9091 0 0 -10.9091 762.379 138.786)" fill="#945"/><use xlink:href="#t" transform="matrix(10.9091 0 0 -10.9091 768.51 138.72)" fill="#945"/><use xlink:href="#h" transform="matrix(10.9091 0 0 -10.9091 773.55 138.786)" fill="#945"/><use xlink:href="#t" transform="matrix(10.9091 0 0 -10.9091 779.79 138.72)" fill="#945"/><use xlink:href="#l" transform="matrix(10.9091 0 0 -10.9091 785.168 138.786)" fill="#945"/><use xlink:href="#j" transform="matrix(10.9091 0 0 -10.9091 790.328 138.72)" fill="#945"/><path d="M747.526 171.489h34.586V156h-34.586z" fill="#fff"/><use xlink:href="#k" transform="matrix(10.9091 0 0 -10.9091 751.48 165.92)" fill="#945"/><use xlink:href="#n" transform="matrix(10.9091 0 0 -10.9091 756.488 168.277)" fill="#945"/><use xlink:href="#s" transform="matrix(10.9091 0 0 -10.9091 762.63 165.855)" fill="#945"/><use xlink:href="#t" transform="matrix(10.9091 0 0 -10.9091 768.51 165.855)" fill="#945"/><use xlink:href="#h" transform="matrix(10.9091 0 0 -10.9091 773.55 165.92)" fill="#945"/><path d="M747.526 198.624h23.311v-13.065h-23.31z" fill="#fff"/><use xlink:href="#o" transform="matrix(10.9091 0 0 -10.9091 751.099 195.479)" fill="#945"/><use xlink:href="#l" transform="matrix(10.9091 0 0 -10.9091 756.968 195.479)" fill="#945"/><use xlink:href="#h" transform="matrix(10.9091 0 0 -10.9091 762.27 195.479)" fill="#945"/><path d="M747.526 226.97h57.135v-13.064h-57.135z" fill="#fff"/><symbol id="x"><path d="M.069.375C.074.351.084.327.092.304L.14.163C.153.122.169.081.181.04.196.005.206 0 .234 0 .275 0 .28.012.305.088c.029.085.056.17.086.255.004.011.008.021.01.032h.032c.023 0 .037.01.037.03 0 .019-.012.03-.037.03H.312C.291.435.277.424.277.405c0-.021.016-.03.036-.03h.03L.235.055l-.108.32h.03c.021 0 .035.009.035.03 0 .018-.011.03-.034.03H.037C.012.435 0 .424 0 .405c0-.022.017-.03.037-.03h.032z"/></symbol><use xlink:href="#t" transform="matrix(10.9091 0 0 -10.9091 751.59 223.76)" fill="#945"/><use xlink:href="#j" transform="matrix(10.9091 0 0 -10.9091 756.488 223.76)" fill="#945"/><use xlink:href="#x" transform="matrix(10.9091 0 0 -10.9091 762.248 223.815)" fill="#945"/><use xlink:href="#r" transform="matrix(10.9091 0 0 -10.9091 768.237 223.826)" fill="#945"/><use xlink:href="#m" transform="matrix(10.9091 0 0 -10.9091 773.626 223.771)" fill="#945"/><use xlink:href="#t" transform="matrix(10.9091 0 0 -10.9091 779.79 223.76)" fill="#945"/><use xlink:href="#r" transform="matrix(10.9091 0 0 -10.9091 785.157 223.826)" fill="#945"/><use xlink:href="#j" transform="matrix(10.9091 0 0 -10.9091 790.328 223.76)" fill="#945"/><use xlink:href="#h" transform="matrix(10.9091 0 0 -10.9091 796.11 223.826)" fill="#945"/><path d="M747.526 256.53h68.41V241.04h-68.41z" fill="#fff"/><symbol id="y"><path d="M.333.278V.06H.279C.259.06.247.047.247.03.247.011.258 0 .283 0h.169c.02 0 .037.008.037.03 0 .018-.014.03-.032.03H.402v.561c0 .032-.016.037-.035.037C.347.658.333.649.333.623L.334.601A.162.162 0 0 1 .21.658C.093.658 0 .555 0 .436c0-.107.08-.22.2-.22.048 0 .11.024.133.062M.068.425v.012c0 .081.062.161.147.161.06 0 .119-.064.119-.125v-.06C.334.338.266.276.204.276.125.276.077.351.068.425z"/></symbol><use xlink:href="#i" transform="matrix(10.9091 0 0 -10.9091 751.317 250.96)" fill="#945"/><use xlink:href="#y" transform="matrix(10.9091 0 0 -10.9091 756.783 253.316)" fill="#945"/><use xlink:href="#p" transform="matrix(10.9091 0 0 -10.9091 762.128 250.96)" fill="#945"/><use xlink:href="#t" transform="matrix(10.9091 0 0 -10.9091 768.51 250.894)" fill="#945"/><use xlink:href="#x" transform="matrix(10.9091 0 0 -10.9091 773.528 250.949)" fill="#945"/><use xlink:href="#r" transform="matrix(10.9091 0 0 -10.9091 779.517 250.96)" fill="#945"/><use xlink:href="#m" transform="matrix(10.9091 0 0 -10.9091 784.906 250.905)" fill="#945"/><use xlink:href="#t" transform="matrix(10.9091 0 0 -10.9091 791.07 250.894)" fill="#945"/><use xlink:href="#r" transform="matrix(10.9091 0 0 -10.9091 796.437 250.96)" fill="#945"/><use xlink:href="#j" transform="matrix(10.9091 0 0 -10.9091 801.608 250.894)" fill="#945"/><use xlink:href="#h" transform="matrix(10.9091 0 0 -10.9091 807.39 250.96)" fill="#945"/><path stroke-width=".399" stroke-dasharray=".3985,.99628" stroke-miterlimit="10" fill="none" stroke="silver" d="M208.538 7.837v257.956M350.272 7.837v257.956M406.966 7.837v257.956m85.04-257.956v257.956"/><path stroke-width=".797" stroke-miterlimit="10" fill="none" stroke="silver" d="M10.11 7.837v257.956M95.152 7.837v257.956M151.845 7.837v257.956M577.047 7.837v257.956M605.394 7.837v257.956m85.04-257.956v257.956"/><path stroke-width=".797" stroke-miterlimit="10" fill="none" stroke="#000" d="M12.7 255.872h79.86"/><path d="m10.11 255.872 4.145 2.072-1.554-2.072 1.554-2.072M95.151 255.872l-4.144-2.072 1.554 2.072-1.554 2.072"/><path stroke-width=".797" stroke-miterlimit="10" fill="none" stroke="#000" d="M154.435 255.872h193.247"/><path d="m151.845 255.872 4.144 2.072-1.554-2.072 1.554-2.072M350.272 255.872l-4.144-2.072 1.554 2.072-1.554 2.072"/><path stroke-width=".797" stroke-miterlimit="10" fill="none" stroke="#000" d="M352.863 255.872h221.594"/><path d="m350.272 255.872 4.145 2.072-1.554-2.072 1.554-2.072M577.047 255.872l-4.145-2.072 1.555 2.072-1.555 2.072"/><path stroke-width=".797" stroke-miterlimit="10" fill="none" stroke="#000" d="M607.984 255.872h79.86"/><path d="m605.394 255.872 4.144 2.072-1.554-2.072 1.554-2.072M690.434 255.872l-4.144-2.072 1.554 2.072-1.554 2.072"/><path d="M15.607 241.144h74.047V228.08H15.607z" fill="#fff"/><symbol id="z"><path d="M.058.061.036.062C.013.062 0 .05 0 .031c0-.018.012-.03.036-.03h.093L.149 0c.022 0 .034.013.034.031 0 .021-.016.031-.036.031L.127.061l.024.106h.16L.335.061l-.02.001C.295.062.279.052.279.031.279.013.291 0 .313 0l.02.001h.093c.024 0 .036.012.036.03C.462.05.449.062.426.062L.404.061C.402.078.397.096.393.113L.305.494C.295.54.288.621.252.626H.224C.189.626.182.606.176.58.151.456.12.332.091.209L.069.113C.065.096.06.078.058.061m.107.166.058.267.007.05h.002l.007-.05.058-.267H.165z"/></symbol><symbol id="A"><path d="M.11.398C.11.426.092.431.07.431L.047.43H.035C.016.43 0 .422 0 .401 0 .386.009.372.025.37h.03V.06L.036.061C.016.061 0 .051 0 .03 0 .011.013 0 .033 0h.096C.15 0 .165.008.165.03.165.048.153.061.13.061L.11.06v.159c0 .056.007.139.07.155l.014.002c.04 0 .04-.055.04-.088V.06H.219C.199.06.183.052.183.03.183.012.194 0 .218 0h.093c.022 0 .033.012.033.03 0 .019-.013.031-.035.031L.289.06v.159c0 .056.007.139.07.155l.014.002c.04 0 .04-.055.04-.088V.06H.398C.378.06.362.052.362.03.362.012.373 0 .397 0H.49c.022 0 .033.012.033.03C.523.049.51.061.488.061L.468.06v.233c0 .056-.009.143-.092.143A.123.123 0 0 1 .277.383H.275C.264.418.229.436.197.436A.129.129 0 0 1 .11.398z"/></symbol><symbol id="B"><path d="M.161.633C.083.624.017.631.004.462 0 .415 0 .369 0 .322V.249c0-.08.004-.17.041-.21C.075.001.139 0 .189 0h.04C.276 0 .33.003.363.036c.019.02.026.048.031.074a.884.884 0 0 1 .012.17v.08a1 1 0 0 1-.008.145C.387.584.364.633.213.633H.161M.068.259.067.282c0 .058.001.117.005.175.004.064.015.116.127.116h.014C.245.573.281.572.305.549.325.529.33.496.333.469.338.427.338.384.338.342V.279a.691.691 0 0 0-.01-.137C.313.065.26.06.206.06.149.06.091.062.077.148.07.185.072.222.068.259z"/></symbol><symbol id="C"><path d="M.064.552V.061H.036C.013.061 0 .051 0 .031 0 .014.012 0 .035 0l.02.001h.083L.159 0c.023 0 .036.011.036.031 0 .019-.012.03-.035.03H.132v.228h.21V.061H.314C.291.061.278.051.278.031.278.014.29 0 .313 0l.02.001h.083L.437 0C.46 0 .473.011.473.031c0 .019-.012.03-.035.03H.41v.491h.028c.023 0 .036.01.036.03C.474.6.461.613.439.613L.419.612H.336L.315.613C.293.613.278.601.278.582c0-.021.016-.03.036-.03h.028V.349h-.21v.203H.16c.021 0 .035.009.035.03 0 .019-.013.031-.036.031L.138.612H.055l-.02.001C.012.613 0 .599 0 .582c0-.02.013-.03.036-.03h.028z"/></symbol><use xlink:href="#z" transform="matrix(10.9091 0 0 -10.9091 19.103 237.944)" fill="#048"/><use xlink:href="#h" transform="matrix(10.9091 0 0 -10.9091 24.72 237.999)" fill="#048"/><use xlink:href="#l" transform="matrix(10.9091 0 0 -10.9091 30.699 237.999)" fill="#048"/><use xlink:href="#A" transform="matrix(10.9091 0 0 -10.9091 35.695 237.933)" fill="#048"/><use xlink:href="#t" transform="matrix(10.9091 0 0 -10.9091 42.24 237.933)" fill="#048"/><use xlink:href="#q" transform="matrix(10.9091 0 0 -10.9091 47.793 237.999)" fill="#048"/><use xlink:href="#B" transform="matrix(10.9091 0 0 -10.9091 53.248 238.053)" fill="#048"/><use xlink:href="#j" transform="matrix(10.9091 0 0 -10.9091 58.419 237.933)" fill="#048"/><use xlink:href="#i" transform="matrix(10.9091 0 0 -10.9091 64.528 237.999)" fill="#048"/><use xlink:href="#C" transform="matrix(10.9091 0 0 -10.9091 69.797 237.944)" fill="#048"/><use xlink:href="#l" transform="matrix(10.9091 0 0 -10.9091 75.819 237.999)" fill="#048"/><use xlink:href="#h" transform="matrix(10.9091 0 0 -10.9091 81.12 237.999)" fill="#048"/><path d="M14.08 114.716h77.101V88.048h-77.1z" fill="#fff"/><symbol id="D"><path d="M.07.411V.41A.11.11 0 0 1 .049.341c0-.028.01-.047.024-.071C.03.25 0 .195 0 .147 0 .032.154 0 .23 0c.087 0 .222.037.228.139v.008C.458.263.339.29.257.29H.166C.121.29.104.31.104.346v.006L.11.373A.168.168 0 0 1 .2.347a.16.16 0 0 1 .136.247l.027.01.034.006C.401.591.415.579.434.579s.037.013.039.033C.473.658.434.67.4.67A.171.171 0 0 1 .31.644C.306.642.302.638.297.637H.296C.287.637.269.651.254.656a.162.162 0 0 1-.217-.14V.508C.037.477.045.434.07.411M.058.14.057.148c0 .057.055.086.105.086h.097C.306.226.401.232.401.147c0-.081-.154-.09-.174-.09-.06 0-.161.022-.169.083m.047.357v.009c0 .049.04.102.092.102.051 0 .092-.039.098-.093V.506C.295.457.255.404.203.404.152.404.111.443.105.497z"/></symbol><symbol id="E"><path d="M.083.551V.06H.032C.014.06 0 .048 0 .03 0 .01.013 0 .037 0h.16c.022 0 .037.009.037.03C.234.048.22.06.202.06H.151v.169c0 .074.042.147.122.147h.01C.335.369.341.329.341.292V.06H.292C.274.06.26.048.26.03.26.009.275 0 .297 0h.158c.024 0 .037.01.037.03C.492.048.478.06.46.06H.409v.22c0 .039-.002.085-.03.116a.122.122 0 0 1-.097.041.183.183 0 0 1-.131-.056V.58c0 .028-.02.031-.038.031H.028C.011.609 0 .597 0 .58 0 .562.014.551.033.551h.05z"/></symbol><symbol id="F"><path d="M.083.558V.037c0-.025.02-.03.036-.03.025 0 .032.017.032.036v.011A.163.163 0 0 1 .267 0c.116 0 .201.109.201.223 0 .105-.069.22-.192.22A.18.18 0 0 1 .151.392v.195c0 .028-.02.031-.038.031H.028C.011.616 0 .604 0 .587 0 .569.014.558.033.558h.05M.399.209C.393.136.34.061.262.061.193.061.15.139.15.202l.001.032L.15.269c0 .063.062.113.121.113C.356.382.4.293.4.224L.399.209z"/></symbol><symbol id="G"><path d="M.075.551V.06H.031C.01.06 0 .046 0 .03 0 .011.012 0 .037 0h.388C.443.003.45.019.45.036l-.001.02v.075C.449.152.44.167.417.167.4.167.38.163.38.135L.381.119V.06H.143v.491h.06c.023 0 .034.012.034.03s-.012.03-.036.03h-.17C.011.611 0 .597 0 .581s.01-.03.031-.03h.044z"/></symbol><use xlink:href="#w" transform="matrix(10.9091 0 0 -10.9091 19.113 97.914)" fill="#048"/><use xlink:href="#i" transform="matrix(10.9091 0 0 -10.9091 25.048 97.969)" fill="#048"/><use xlink:href="#t" transform="matrix(10.9091 0 0 -10.9091 30.96 97.903)" fill="#048"/><use xlink:href="#D" transform="matrix(10.9091 0 0 -10.9091 36.044 100.401)" fill="#048"/><use xlink:href="#E" transform="matrix(10.9091 0 0 -10.9091 41.499 97.903)" fill="#048"/><use xlink:href="#F" transform="matrix(10.9091 0 0 -10.9091 47.139 97.98)" fill="#048"/><use xlink:href="#l" transform="matrix(10.9091 0 0 -10.9091 53.259 97.969)" fill="#048"/><use xlink:href="#m" transform="matrix(10.9091 0 0 -10.9091 58.637 97.914)" fill="#048"/><use xlink:href="#G" transform="matrix(10.9091 0 0 -10.9091 64.277 97.903)" fill="#048"/><use xlink:href="#t" transform="matrix(10.9091 0 0 -10.9091 70.44 97.903)" fill="#048"/><use xlink:href="#k" transform="matrix(10.9091 0 0 -10.9091 75.972 97.969)" fill="#048"/><use xlink:href="#h" transform="matrix(10.9091 0 0 -10.9091 81.12 97.969)" fill="#048"/><symbol id="H"><path d="M.24.657C.29.657.315.614.315.56.315.503.278.456.223.418.182.464.158.508.158.558c0 .06.039.099.082.099M.219 0c.075 0 .142.027.208.085L.455.063A.288.288 0 0 1 .621.007L.642.005.647.03a.54.54 0 0 0-.165.118c.06.07.101.13.123.194.01.031.011.059-.012.103A.128.128 0 0 1 .517.428C.525.352.52.247.456.173a1.97 1.97 0 0 0-.21.221c.078.041.146.08.146.16 0 .088-.067.138-.148.138A.16.16 0 0 1 .081.533c0-.068.034-.115.066-.155C.08.337.001.286.001.188 0 .068.095 0 .219 0M.167.35C.233.271.31.191.4.11A.213.213 0 0 0 .249.049C.163.049.098.113.098.208A.18.18 0 0 0 .167.35z"/></symbol><use xlink:href="#H" transform="matrix(10.0364 0 0 -10.0364 17.733 111.583)" fill="#048"/><symbol id="I"><path d="M.064.562V.071H.036C.013.071 0 .061 0 .041 0 .024.012.01.035.01l.02.001h.083L.159.01c.023 0 .036.011.036.031 0 .019-.012.03-.035.03H.132v.216h.067c.042 0 .113-.01.113-.093V.143C.312.087.32 0 .407 0c.047 0 .087.045.087.102C.494.123.48.137.459.137.406.137.438.06.406.06.383.06.38.103.38.127v.02l.001.044C.381.24.364.286.322.314l.026.019a.162.162 0 0 1 .058.121c0 .104-.098.168-.193.168H.037C.014.622 0 .612 0 .592c0-.021.016-.03.036-.03h.028M.132.347v.215h.055A.205.205 0 0 0 .265.551C.304.535.338.498.338.455V.451C.338.373.25.346.183.346L.132.347z"/></symbol><symbol id="J"><path d="M.067.551V.06h-.03C.017.06.001.052.001.03.001.013.012 0 .032 0h.235C.294 0 .32.001.345.011a.17.17 0 0 1 .107.156.16.16 0 0 1-.127.153c.057.026.106.064.106.135 0 .093-.08.156-.174.156H.034C.013.611 0 .599 0 .58 0 .558.019.551.037.551h.03M.135.06v.228h.119A.166.166 0 0 0 .317.279.122.122 0 0 0 .384.17C.384.109.333.066.274.06H.135m0 .288v.203h.113C.298.551.363.53.363.455.363.399.314.354.257.348H.135z"/></symbol><use xlink:href="#I" transform="matrix(10.9091 0 0 -10.9091 26.201 111.572)" fill="#048"/><use xlink:href="#r" transform="matrix(10.9091 0 0 -10.9091 32.212 111.518)" fill="#048"/><use xlink:href="#o" transform="matrix(10.9091 0 0 -10.9091 37.634 111.518)" fill="#048"/><use xlink:href="#t" transform="matrix(10.9091 0 0 -10.9091 43.765 111.452)" fill="#048"/><use xlink:href="#r" transform="matrix(10.9091 0 0 -10.9091 49.132 111.518)" fill="#048"/><use xlink:href="#s" transform="matrix(10.9091 0 0 -10.9091 54.805 111.452)" fill="#048"/><use xlink:href="#J" transform="matrix(10.9091 0 0 -10.9091 60.063 111.452)" fill="#048"/><use xlink:href="#r" transform="matrix(10.9091 0 0 -10.9091 66.052 111.518)" fill="#048"/><use xlink:href="#k" transform="matrix(10.9091 0 0 -10.9091 71.856 111.518)" fill="#048"/><use xlink:href="#t" transform="matrix(10.9091 0 0 -10.9091 77.605 111.452)" fill="#048"/><use xlink:href="#k" transform="matrix(10.9091 0 0 -10.9091 83.136 111.518)" fill="#048"/><path d="M23.767 263.613h57.727V248.13H23.767z" fill="#fff"/><symbol id="K"><path d="M.239.609c0 .028.008.037.059.037.067 0 .124-.045.124-.16C.422.41.396.321.295.321.256.321.239.326.239.364v.245M.335 0v.036C.247.041.239.046.239.097v.178h.06c.094 0 .168.017.214.05.05.036.077.09.077.164 0 .08-.036.135-.085.165A.373.373 0 0 1 .31.692H0V.654C.071.651.079.646.079.595V.097C.079.046.071.041 0 .038V0h.335z"/></symbol><symbol id="L"><path d="M.216.311c0 .052.01.075.034.075.016 0 .031-.008.053-.021A.085.085 0 0 1 .349.349c.02 0 .04.011.051.026a.096.096 0 0 1 .016.057c0 .043-.028.07-.07.07C.304.502.271.475.213.414L.201.502.006.473V.437L.041.432C.057.43.065.421.065.381V.087C.065.045.057.041 0 .038V0h.302v.038C.225.042.216.045.216.087v.224z"/></symbol><symbol id="M"><path d="M.427.167C.397.11.354.078.293.078c-.1 0-.134.082-.134.187h.258c.036 0 .054.01.054.042C.471.389.44.515.247.515.067.515 0 .398 0 .258 0 .122.059 0 .245.001c.119 0 .184.058.218.146l-.036.02M.159.313c0 .072.019.156.084.156.061 0 .071-.076.071-.123C.314.319.306.313.283.313H.159z"/></symbol><symbol id="N"><path d="M.216.23A.253.253 0 0 1 .295.218c.148 0 .267.052.267.271 0 .166-.087.243-.181.243C.311.732.265.7.216.663L.198.732.006.703V.667L.041.662C.057.66.065.651.065.611V.087C.065.045.057.041 0 .038V0h.299v.038C.226.041.216.045.216.087V.23m0 .31c0 .021.002.041.007.055.013.037.038.06.08.06.047 0 .1-.026.1-.188C.403.343.376.264.299.264.255.264.229.287.22.331a.264.264 0 0 0-.004.051V.54z"/></symbol><symbol id="O"><path d="M.259.514C.077.514 0 .417 0 .257S.077 0 .259 0C.44 0 .517.097.517.257S.44.514.259.514m-.1-.257c0 .134.029.211.1.211.07 0 .099-.077.099-.211S.329.046.259.046c-.071 0-.1.077-.1.211z"/></symbol><symbol id="P"><path d="M.415.168C.381.1.342.077.287.077c-.065 0-.128.044-.128.2 0 .134.043.191.085.191.035 0 .052-.031.069-.091C.32.354.335.342.361.342c.035 0 .083.018.083.062 0 .071-.1.11-.191.11A.25.25 0 0 1 .068.447.266.266 0 0 1 0 .253C0 .085.094 0 .235 0 .318 0 .411.028.45.152L.415.168z"/></symbol><symbol id="Q"><path d="M.012.048C.05.013.125 0 .181 0c.122 0 .206.055.206.163C.387.249.333.29.241.325.183.346.14.37.14.41c0 .031.022.058.063.058.051 0 .094-.046.113-.122h.037v.133a.3.3 0 0 1-.15.035C.081.514.005.457.005.356c0-.073.059-.121.147-.154.051-.018.1-.047.1-.095C.252.069.227.046.183.046.117.046.064.115.038.197H0L.012.048z"/></symbol><use xlink:href="#K" transform="matrix(10.0364 0 0 -10.0364 27.298 258.159)"/><use xlink:href="#L" transform="matrix(10.0364 0 0 -10.0364 33.631 258.159)"/><use xlink:href="#M" transform="matrix(10.0364 0 0 -10.0364 37.937 258.29)"/><use xlink:href="#N" transform="matrix(10.0364 0 0 -10.0364 42.985 260.467)"/><use xlink:href="#L" transform="matrix(10.0364 0 0 -10.0364 49.228 258.159)"/><use xlink:href="#O" transform="matrix(10.0364 0 0 -10.0364 53.664 258.28)"/><use xlink:href="#P" transform="matrix(10.0364 0 0 -10.0364 59.535 258.28)"/><use xlink:href="#M" transform="matrix(10.0364 0 0 -10.0364 64.483 258.29)"/><use xlink:href="#Q" transform="matrix(10.0364 0 0 -10.0364 69.732 258.28)"/><use xlink:href="#Q" transform="matrix(10.0364 0 0 -10.0364 74.208 258.28)"/><path d="M218.578 263.763h64.96V247.98h-64.96z" fill="#fff"/><symbol id="R"><path d="M.239.595c0 .051.008.056.079.059v.038H0V.654C.071.651.079.646.079.595V.097C.079.046.071.041 0 .038V0h.318v.038C.247.041.239.046.239.097v.498z"/></symbol><symbol id="S"><path d="M.517.063a.136.136 0 0 0-.048.005C.456.072.437.084.437.143v.231c0 .062-.01.14-.187.14C.103.514.013.456.013.391c0-.045.064-.063.09-.063.022 0 .033.016.041.04.028.085.06.1.088.1C.261.468.29.451.29.394V.341C.255.317.171.292.106.27.027.243 0 .202 0 .145 0 .07.05 0 .151 0c.064 0 .108.035.143.058C.307.027.324 0 .372 0A.46.46 0 0 1 .52.03L.517.063M.29.146C.288.092.255.078.228.078.189.078.154.109.154.162c0 .047.016.07.046.087.031.017.066.031.09.042V.146z"/></symbol><symbol id="T"><path d="M.313.452v.05H.209v.126H.151L.063.502H0v-.05h.058V.129C.058.038.126 0 .182 0c.041 0 .103.019.159.054L.33.085a.153.153 0 0 0-.057-.01C.235.075.209.103.209.167v.285h.104z"/></symbol><symbol id="U"><path d="M.065.087C.065.045.057.041 0 .038V0h.281v.038C.224.041.216.045.216.087v.409L.209.502.006.473V.437L.041.432C.057.43.065.421.065.381V.087m.07.458c.055 0 .092.04.092.088C.227.68.192.72.135.72.079.72.044.68.044.633c0-.048.035-.088.091-.088z"/></symbol><symbol id="V"><path d="M.538.348C.537.442.49.502.387.502.329.502.282.472.216.433L.203.502.006.473V.437L.041.432C.057.43.065.421.065.381V.087C.065.045.057.041 0 .038V0h.269v.038L.248.04C.227.042.216.047.216.08v.237c0 .022.003.045.01.059.013.026.04.049.082.049.051 0 .077-.031.079-.091V.08C.387.047.376.042.355.04L.334.038V0h.269v.038C.546.041.538.045.538.087v.261z"/></symbol><use xlink:href="#K" transform="matrix(10.0364 0 0 -10.0364 222.107 258.309)"/><use xlink:href="#R" transform="matrix(10.0364 0 0 -10.0364 228.43 258.309)"/><use xlink:href="#O" transform="matrix(10.0364 0 0 -10.0364 234.402 258.43)"/><use xlink:href="#N" transform="matrix(10.0364 0 0 -10.0364 240.123 260.617)"/><use xlink:href="#M" transform="matrix(10.0364 0 0 -10.0364 246.445 258.44)"/><use xlink:href="#L" transform="matrix(10.0364 0 0 -10.0364 251.564 258.309)"/><use xlink:href="#S" transform="matrix(10.0364 0 0 -10.0364 256.14 258.43)"/><use xlink:href="#T" transform="matrix(10.0364 0 0 -10.0364 261.5 258.43)"/><use xlink:href="#U" transform="matrix(10.0364 0 0 -10.0364 265.153 258.309)"/><use xlink:href="#O" transform="matrix(10.0364 0 0 -10.0364 268.405 258.43)"/><use xlink:href="#V" transform="matrix(10.0364 0 0 -10.0364 274.196 258.309)"/><path d="M416.908 263.763h65.156V247.98h-65.156z" fill="#fff"/><use xlink:href="#R" transform="matrix(10.0364 0 0 -10.0364 420.434 258.309)"/><use xlink:href="#K" transform="matrix(10.0364 0 0 -10.0364 424.288 258.309)"/><use xlink:href="#O" transform="matrix(10.0364 0 0 -10.0364 432.92 258.43)"/><use xlink:href="#N" transform="matrix(10.0364 0 0 -10.0364 438.64 260.617)"/><use xlink:href="#M" transform="matrix(10.0364 0 0 -10.0364 444.963 258.44)"/><use xlink:href="#L" transform="matrix(10.0364 0 0 -10.0364 450.092 258.309)"/><use xlink:href="#S" transform="matrix(10.0364 0 0 -10.0364 454.658 258.43)"/><use xlink:href="#T" transform="matrix(10.0364 0 0 -10.0364 460.028 258.43)"/><use xlink:href="#U" transform="matrix(10.0364 0 0 -10.0364 463.671 258.309)"/><use xlink:href="#O" transform="matrix(10.0364 0 0 -10.0364 466.933 258.43)"/><use xlink:href="#V" transform="matrix(10.0364 0 0 -10.0364 472.714 258.309)"/><path d="M627.777 263.763h40.273V247.98h-40.273z" fill="#fff"/><symbol id="W"><path d="M.342.046C.197.046.179.225.177.361c.002.128.02.315.165.315.145 0 .163-.187.165-.315C.505.225.487.046.342.046m0 .676C.112.722 0 .587 0 .361 0 .135.112 0 .342 0c.23 0 .342.135.342.361 0 .226-.112.361-.342.361z"/></symbol><symbol id="X"><path d="M.389.012h.208V.05C.54.053.532.057.532.099v.409L.525.514.322.485V.449L.357.444C.373.442.381.433.381.393V.182A.173.173 0 0 0 .373.126C.364.103.338.079.294.079.241.079.21.11.21.188v.32L.203.514 0 .485V.449L.035.444C.051.442.059.433.059.393V.15C.059.033.132 0 .204 0c.085 0 .137.046.177.068L.389.012z"/></symbol><use xlink:href="#W" transform="matrix(10.0364 0 0 -10.0364 631.391 258.46)"/><use xlink:href="#X" transform="matrix(10.0364 0 0 -10.0364 638.848 258.43)"/><use xlink:href="#T" transform="matrix(10.0364 0 0 -10.0364 645.252 258.43)"/><use xlink:href="#N" transform="matrix(10.0364 0 0 -10.0364 648.835 260.617)"/><use xlink:href="#X" transform="matrix(10.0364 0 0 -10.0364 655.047 258.43)"/><use xlink:href="#T" transform="matrix(10.0364 0 0 -10.0364 661.45 258.43)"/><path d="M1.552 213.833H18.67v-15.136H1.552z" fill="#fff"/><path stroke-width=".797" stroke-miterlimit="10" fill="none" stroke="#000" d="M1.552 213.833H18.67v-15.136H1.552z"/><symbol id="Y"><path d="M.21.692.173.523h.03c.041.116.074.134.185.134h.195C.393.446.197.229 0 .013L.004 0h.571l.051.176h-.03C.543.053.5.035.342.035H.139l.584.644-.005.013H.21z"/></symbol><use xlink:href="#Y" transform="matrix(10.0364 0 0 -10.0364 5.34 208.916)"/><symbol id="Z"><path d="M.027.486.021.462.078.457C.105.455.108.446.099.411L.015.098C0 .041.013 0 .067 0c.072 0 .128.068.162.144L.205.158C.187.123.143.052.115.052c-.02 0-.019.023-.01.055l.109.402-.005.005L.027.486m.177.241C.161.727.139.693.139.661c0-.037.025-.056.055-.056.039 0 .064.027.064.067 0 .039-.026.055-.054.055z"/></symbol><use xlink:href="#Z" transform="matrix(7.6075 0 0 -7.6075 12.446 210.658)"/><path d="M.398 14.924h19.426V.751H.398z" fill="#fff"/><path stroke-width=".797" stroke-miterlimit="10" fill="none" stroke="#000" d="M.398 14.924h19.426V.751H.398z"/><symbol id="aa"><path d="M.086.012c.017.065.036.146.052.204.036.131.086.217.124.217C.293.433.3.408.332.408c.025 0 .047.033.047.062C.38.497.366.514.334.514.278.514.209.451.155.343H.153l.045.166-.005.005L.021.486.015.462.077.457C.101.455.099.441.092.409L0 0l.086.012z"/></symbol><use xlink:href="#aa" transform="matrix(10.0364 0 0 -10.0364 4.642 9.583)"/><symbol id="ab"><path d="M.476.15C.452.105.425.052.397.052.378.052.37.075.348.164L.316.295c.036.064.087.144.116.144A.055.055 0 0 0 .46.431C.47.427.48.423.492.423c.022 0 .043.021.043.048 0 .031-.023.043-.051.043C.431.514.386.466.351.41L.307.342H.305L.265.51.259.514.094.464.097.44l.075.005C.19.446.197.441.208.395L.244.25.216.202C.173.129.136.077.112.077c-.01 0-.02.004-.029.009C.073.091.06.101.043.101.017.101 0 .075 0 .051 0 .022.024 0 .064 0c.068 0 .107.068.148.135l.04.066h.002L.272.123C.291.043.31 0 .361 0c.073 0 .111.075.141.136L.476.15z"/></symbol><use xlink:href="#Z" transform="matrix(7.6075 0 0 -7.6075 8.979 11.205)"/><use xlink:href="#ab" transform="matrix(7.6075 0 0 -7.6075 11.908 11.205)"/><path d="M81.793 214.85h26.716v-17.17H81.793z" fill="#fff"/><path stroke-width=".797" stroke-miterlimit="10" fill="none" stroke="#000" d="M81.793 214.85h26.716v-17.17H81.793z"/><symbol id="ac"><path d="M.328 0v.029L.244.036C.223.038.211.046.211.085v.589L.206.68 0 .645V.62L.093.609C.11.607.117.599.117.57V.085C.117.066.114.054.108.047.103.04.095.037.084.036L0 .029V0h.328z"/></symbol><use xlink:href="#ac" transform="matrix(7.6075 0 0 -7.6075 85.821 205.973)"/><symbol id="ad"><path d="M0 .693V0h.18v.281h.183c.123 0 .202.107.202.206a.204.204 0 0 1-.21.206H0m.05-.05h.08V.05H.05v.593M.18.331v.312h.178V.331H.18m.337.156C.517.423.47.348.408.337v.301C.475.62.517.549.517.487z"/></symbol><use xlink:href="#ad" transform="matrix(10.0363 0 0 -10.0363 90.058 209.933)"/><use xlink:href="#Z" transform="matrix(7.6075 0 0 -7.6075 96.969 211.675)"/><symbol id="ae"><path d="m.427.281.151.221H.505L.423.343c0 .134-.037.171-.145.171C.085.514 0 .308 0 .163 0 .076.038 0 .147 0c.074 0 .136.073.18.136L.326.106c0-.03.004-.058.016-.078C.353.01.366 0 .389 0c.024 0 .058.008.084.028a.295.295 0 0 1 .085.116L.534.158C.508.107.466.052.444.052.416.052.416.104.416.128c0 .044.005.102.011.153M.332.213C.28.129.228.054.162.054c-.05 0-.066.05-.066.106 0 .116.062.319.183.319.048 0 .062-.066.062-.141A.993.993 0 0 0 .332.213z"/></symbol><use xlink:href="#ae" transform="matrix(7.6075 0 0 -7.6075 100.072 211.675)"/><path d="M83.081 185.457h24.14V170.38H83.08z" fill="#fff"/><path stroke-width=".797" stroke-miterlimit="10" fill="none" stroke="#000" d="M83.081 185.457h24.14V170.38H83.08z"/><symbol id="af"><path d="M.355.163C.319.116.265.049.19.049c-.07 0-.091.06-.091.139L.1.204c.168.034.241.074.284.114a.128.128 0 0 1 .042.096c0 .053-.042.1-.124.1A.28.28 0 0 1 .083.4.381.381 0 0 1 0 .164C0 .024.091 0 .149 0 .222 0 .31.032.378.143l-.023.02M.102.238c.017.121.092.241.172.241C.309.479.332.455.332.42.332.35.271.274.102.238z"/></symbol><use xlink:href="#af" transform="matrix(10.0364 0 0 -10.0364 87.084 178.663)"/><symbol id="ag"><path d="M.196.692.258.687C.282.685.281.672.273.637L.151.066C.147.047.14.035.128.035S.098.048.071.088C.065.097.058.108.045.108.023.108 0 .083 0 .058.001.025.043 0 .095 0c.046 0 .079.015.107.05a.51.51 0 0 1 .071.189l.113.5-.005.005L.202.716.196.692m.175.265C.328.957.306.923.306.891c0-.037.025-.056.055-.056.039 0 .064.027.064.067 0 .039-.026.055-.054.055z"/></symbol><symbol id="ah"><path d="M.412.379C.412.307.352.035.205.035.154.035.123.071.123.121c0 .048.021.117.053.175.045.08.12.166.182.166.037 0 .054-.026.054-.083M.26.749.255.754.076.73.07.707.127.7C.152.697.156.69.147.651L0 .012h.036L.067.07C.085.028.136 0 .193 0 .31 0 .395.078.444.166.494.254.51.343.51.388.51.462.477.514.403.514.327.514.228.445.151.308H.149L.26.749z"/></symbol><use xlink:href="#Z" transform="matrix(7.6075 0 0 -7.6075 92.174 180.48)"/><use xlink:href="#ag" transform="matrix(7.6075 0 0 -7.6075 95.072 182.229)"/><use xlink:href="#ah" transform="matrix(7.6075 0 0 -7.6075 99.485 180.48)"/><path d="M87.023 157.325h16.256v-15.507H87.023z" fill="#fff"/><path stroke-width=".797" stroke-miterlimit="10" fill="none" stroke="#000" d="M87.023 157.325h16.256v-15.507H87.023z"/><symbol id="ai"><path d="M.103.378C.103.361.108.35.121.35.133.35.16.36.208.36.293.36.341.283.341.196.341.077.282.035.211.035c-.066 0-.109.05-.128.106C.077.16.067.169.053.169.035.169 0 .15 0 .114 0 .071.069 0 .21 0c.145 0 .236.073.236.201 0 .134-.115.174-.17.179v.004C.33.393.417.433.417.532c0 .111-.087.16-.194.16C.091.692.026.616.026.573c0-.031.035-.048.049-.048.013 0 .021.007.025.02.022.068.06.112.116.112.079 0 .098-.07.098-.126C.314.471.293.396.208.396c-.048 0-.075.01-.087.01C.108.406.103.396.103.378z"/></symbol><use xlink:href="#ai" transform="matrix(7.6075 0 0 -7.6075 90.427 150.202)"/><symbol id="aj"><path d="M.224.657C.319.657.346.509.346.346S.319.035.224.035.102.183.102.346s.027.311.122.311m0 .035C.059.692 0 .546 0 .346 0 .146.059 0 .224 0s.224.146.224.346c0 .2-.059.346-.224.346z"/></symbol><use xlink:href="#aj" transform="matrix(10.0364 0 0 -10.0364 95.167 154.191)"/><path d="M87.023 100.632h16.256V85.124H87.023z" fill="#fff"/><path stroke-width=".797" stroke-miterlimit="10" fill="none" stroke="#000" d="M87.023 100.632h16.256V85.124H87.023z"/><symbol id="ak"><path d="M.386.604.41.672.405.68H.071L.061.671.041.336.065.324c.042.048.083.071.137.071.064 0 .134-.047.134-.179C.336.113.294.035.207.035c-.07 0-.106.051-.126.108C.076.158.067.167.053.167.033.167 0 .147 0 .114 0 .068.07 0 .2 0c.165 0 .24.1.24.227 0 .14-.088.212-.207.212A.235.235 0 0 1 .087.386L.085.388l.023.187C.111.6.118.604.137.604h.249z"/></symbol><use xlink:href="#ak" transform="matrix(7.6075 0 0 -7.6075 90.526 93.51)"/><use xlink:href="#aj" transform="matrix(10.0364 0 0 -10.0364 95.167 97.5)"/><path d="M83.358 15.279h23.586V.396H83.358z" fill="#fff"/><path stroke-width=".797" stroke-miterlimit="10" fill="none" stroke="#000" d="M83.358 15.279h23.586V.396H83.358z"/><use xlink:href="#aa" transform="matrix(10.0364 0 0 -10.0364 87.602 8.682)"/><use xlink:href="#Z" transform="matrix(7.6075 0 0 -7.6075 91.939 10.303)"/><use xlink:href="#ag" transform="matrix(7.6075 0 0 -7.6075 94.837 12.053)"/><use xlink:href="#ab" transform="matrix(7.6075 0 0 -7.6075 99.021 10.303)"/><path stroke-width=".797" stroke-miterlimit="10" fill="none" stroke="#000" d="M19.067 206.265h61.62"/><path stroke-width=".638" stroke-linecap="round" stroke-linejoin="round" fill="none" stroke="#000" d="M79.133 204.193c.13.777 1.554 1.943 1.943 2.072-.389.13-1.814 1.295-1.943 2.072"/><path stroke-width=".797" stroke-miterlimit="10" fill="none" stroke="#000" d="M20.222 7.837h62.03"/><path stroke-width=".638" stroke-linecap="round" stroke-linejoin="round" fill="none" stroke="#000" d="M80.698 5.765c.13.777 1.554 1.943 1.943 2.072-.389.13-1.813 1.295-1.943 2.073"/><path d="M138.486 215.987h26.717v-19.444h-26.717z" fill="#fff"/><path stroke-width=".797" stroke-miterlimit="10" fill="none" stroke="#000" d="M138.486 215.987h26.717v-19.444h-26.717z"/><use xlink:href="#ac" transform="matrix(7.6075 0 0 -7.6075 142.514 204.836)"/><use xlink:href="#ad" transform="matrix(10.0363 0 0 -10.0363 146.75 208.796)"/><symbol id="al"><path d="m.318.464.011.038H.202l.034.119-.012.007L.127.551.114.502H.033L.022.464h.083L.015.098C0 .041.012 0 .062 0c.08 0 .144.066.184.141L.224.158C.201.119.15.052.119.052.098.052.098.075.104.1l.089.364h.125z"/></symbol><use xlink:href="#al" transform="matrix(7.6075 0 0 -7.6075 153.865 204.927)"/><use xlink:href="#Z" transform="matrix(7.6075 0 0 -7.6075 153.662 212.812)"/><use xlink:href="#ae" transform="matrix(7.6075 0 0 -7.6075 156.765 212.812)"/><path d="M136.92 160.052h29.85V139.09h-29.85z" fill="#fff"/><path stroke-width=".797" stroke-miterlimit="10" fill="none" stroke="#000" d="M136.92 160.052h29.85V139.09h-29.85z"/><use xlink:href="#ai" transform="matrix(7.6075 0 0 -7.6075 140.323 147.475)"/><use xlink:href="#ad" transform="matrix(10.0363 0 0 -10.0363 145.184 151.344)"/><use xlink:href="#al" transform="matrix(7.6075 0 0 -7.6075 152.298 147.475)"/><use xlink:href="#Z" transform="matrix(7.6075 0 0 -7.6075 152.095 155.555)"/><use xlink:href="#ab" transform="matrix(7.6075 0 0 -7.6075 155.024 155.555)"/><symbol id="am"><path d="M.239.135C.228.081.186.042.161.019L.174 0a.5.5 0 0 1 .135.134c.007.01.013.036.013.05 0 .047-.046.06-.1.07L.213.256C.128.273.101.32.101.379.101.51.2.671.303.792c.065.013.144.033.144.097 0 .012-.008.014-.02.014C.394.903.37.892.281.816.234.832.201.849.201.88c0 .016.005.025.014.042L.199.927C.161.903.137.883.137.854.137.813.184.8.256.792.121.68 0 .5 0 .331 0 .249.033.188.133.176L.149.174c.042-.005.09-.01.09-.035V.135z"/></symbol><use xlink:href="#am" transform="matrix(7.6075 0 0 -7.6075 159.432 156.856)"/><path d="M134.538 103.599h34.613V82.157h-34.613z" fill="#fff"/><path stroke-width=".797" stroke-miterlimit="10" fill="none" stroke="#000" d="M134.538 103.599h34.613V82.157h-34.613z"/><use xlink:href="#ak" transform="matrix(7.6075 0 0 -7.6075 138.041 90.543)"/><use xlink:href="#ad" transform="matrix(10.0363 0 0 -10.0363 142.802 94.412)"/><symbol id="an"><path d="M.076.696.079.671l.068.002C.169.674.174.657.182.605a3.7 3.7 0 0 0 .033-.35.304.304 0 0 0-.024-.124C.173.089.147.06.127.06.112.06.101.071.086.091.074.107.066.115.051.115.025.114 0 .084 0 .055 0 .028.029 0 .073 0c.085 0 .122.063.21.215.02.034.08.14.142.242.057.094.12.191.12.231 0 .035-.011.056-.018.056A.157.157 0 0 1 .449.719.523.523 0 0 0 .436.581 1.712 1.712 0 0 0 .295.303H.292a4.421 4.421 0 0 1-.04.437L.244.744.076.696z"/></symbol><use xlink:href="#al" transform="matrix(7.6075 0 0 -7.6075 149.917 90.543)"/><use xlink:href="#Z" transform="matrix(7.6075 0 0 -7.6075 149.713 98.622)"/><use xlink:href="#ab" transform="matrix(7.6075 0 0 -7.6075 152.642 98.622)"/><use xlink:href="#an" transform="matrix(7.6075 0 0 -7.6075 157.328 100.372)"/><use xlink:href="#am" transform="matrix(7.6075 0 0 -7.6075 161.814 99.923)"/><path stroke-width=".797" stroke-miterlimit="10" fill="none" stroke="#000" d="M108.908 206.265h28.473"/><path stroke-width=".638" stroke-linecap="round" stroke-linejoin="round" fill="none" stroke="#000" d="M135.826 204.193c.13.777 1.555 1.943 1.943 2.072-.388.13-1.813 1.295-1.943 2.072"/><path stroke-width=".797" stroke-miterlimit="10" fill="none" stroke="#000" d="M103.678 149.571h32.136"/><path stroke-width=".638" stroke-linecap="round" stroke-linejoin="round" fill="none" stroke="#000" d="M134.26 147.5c.129.776 1.554 1.942 1.942 2.071-.388.13-1.813 1.296-1.943 2.073"/><path stroke-width=".797" stroke-miterlimit="10" fill="none" stroke="#000" d="M103.678 92.878h29.754"/><path stroke-width=".638" stroke-linecap="round" stroke-linejoin="round" fill="none" stroke="#000" d="M131.878 90.806c.13.777 1.554 1.942 1.943 2.072-.389.13-1.814 1.295-1.943 2.072"/><path d="M187.278 177.918a7.087 7.087 0 1 0-14.173 0 7.087 7.087 0 0 0 14.173 0zm-7.087 0" fill="#e9a"/><path stroke-width=".797" stroke-miterlimit="10" fill="none" stroke="#000" d="M187.278 177.918a7.087 7.087 0 1 0-14.173 0 7.087 7.087 0 0 0 14.173 0zm-7.087 0"/><path stroke-width=".797" stroke-miterlimit="10" fill="none" stroke="#000" d="M173.105 177.918h7.086m0 0c2.126-3.682 2.126-3.682 5.011-5.01m-5.01 5.01c2.125 3.682 2.125 3.682 5.01 5.011"/><path d="M181.609 177.918a1.417 1.417 0 1 0-2.835 0 1.417 1.417 0 0 0 2.835 0zm-1.418 0" fill="#fff"/><path stroke-width=".797" stroke-miterlimit="10" fill="none" stroke="#000" d="M181.609 177.918a1.417 1.417 0 1 0-2.835 0 1.417 1.417 0 0 0 2.835 0zm-1.418 0"/><path d="M187.278 121.225a7.087 7.087 0 1 0-14.173 0 7.087 7.087 0 0 0 14.173 0zm-7.087 0" fill="#69c"/><path stroke-width=".797" stroke-miterlimit="10" fill="none" stroke="#000" d="M187.278 121.225a7.087 7.087 0 1 0-14.173 0 7.087 7.087 0 0 0 14.173 0zm-7.087 0"/><path stroke-width=".797" stroke-miterlimit="10" fill="none" stroke="#000" d="M173.105 121.225h7.086m0 0c2.126-3.683 2.126-3.683 5.011-5.011m-5.01 5.01c2.125 3.683 2.125 3.683 5.01 5.012"/><path d="M181.609 121.225a1.417 1.417 0 1 0-2.835 0 1.417 1.417 0 0 0 2.835 0zm-1.418 0" fill="#fff"/><path stroke-width=".797" stroke-miterlimit="10" fill="none" stroke="#000" d="M181.609 121.225a1.417 1.417 0 1 0-2.835 0 1.417 1.417 0 0 0 2.835 0zm-1.418 0"/><path d="M187.278 64.531a7.087 7.087 0 1 0-14.173 0 7.087 7.087 0 0 0 14.173 0zm-7.087 0" fill="#69c"/><path stroke-width=".797" stroke-miterlimit="10" fill="none" stroke="#000" d="M187.278 64.531a7.087 7.087 0 1 0-14.173 0 7.087 7.087 0 0 0 14.173 0zm-7.087 0"/><path stroke-width=".797" stroke-miterlimit="10" fill="none" stroke="#000" d="M173.105 64.531h7.086m0 0c2.126-3.682 2.126-3.682 5.011-5.011m-5.01 5.011c2.125 3.682 2.125 3.682 5.01 5.01"/><path d="M181.609 64.531a1.417 1.417 0 1 0-2.835 0 1.417 1.417 0 0 0 2.835 0zm-1.418 0" fill="#fff"/><path stroke-width=".797" stroke-miterlimit="10" fill="none" stroke="#000" d="M181.609 64.531a1.417 1.417 0 1 0-2.835 0 1.417 1.417 0 0 0 2.835 0zM161.965 196.144l12.433-12.433"/><path stroke-width=".63798724" stroke-linecap="round" stroke-linejoin="round" fill="none" stroke="#000" d="M171.834 183.345c.641.458 2.473.275 2.84.091-.184.367-.367 2.198.09 2.84"/><path stroke-width=".797" stroke-miterlimit="10" fill="none" stroke="#000" d="m162.723 138.692 11.675-11.674"/><path stroke-width=".63799362" stroke-linecap="round" stroke-linejoin="round" fill="none" stroke="#000" d="M171.834 126.651c.641.458 2.473.275 2.84.092-.184.366-.367 2.198.09 2.839"/><path stroke-width=".797" stroke-miterlimit="10" fill="none" stroke="#000" d="M107.62 177.918h64.379"/><path stroke-width=".638" stroke-linecap="round" stroke-linejoin="round" fill="none" stroke="#000" d="M170.445 175.846c.13.777 1.554 1.943 1.942 2.072-.388.13-1.813 1.295-1.942 2.072"/><path stroke-width=".797" stroke-miterlimit="10" fill="none" stroke="#000" d="m162.963 81.759 11.435-11.435"/><path stroke-width=".63799362" stroke-linecap="round" stroke-linejoin="round" fill="none" stroke="#000" d="M171.834 69.958c.641.457 2.473.274 2.84.091-.184.367-.367 2.198.09 2.84"/><path d="M195.133 160.26h26.81v-21.376h-26.81z" fill="#fff"/><path stroke-width=".797" stroke-miterlimit="10" fill="none" stroke="#000" d="M195.133 160.26h26.81v-21.376h-26.81z"/><use xlink:href="#ac" transform="matrix(7.6075 0 0 -7.6075 199.161 147.178)"/><symbol id="ao"><path d="M0 .693V0h.18v.693H0m.05-.05h.08V.05H.05v.593z"/></symbol><use xlink:href="#ao" transform="matrix(10.0363 0 0 -10.0363 203.397 151.138)"/><use xlink:href="#Z" transform="matrix(7.6075 0 0 -7.6075 206.564 155.282)"/><use xlink:href="#ag" transform="matrix(7.6075 0 0 -7.6075 209.462 157.032)"/><symbol id="ap"><path d="M.415.984C.279.984.178.831.151.703L0 0l.095.028.056.259C.176.25.231.23.276.23c.165 0 .291.149.291.314 0 .075-.036.155-.152.161.086.02.15.083.15.171a.104.104 0 0 1-.034.078C.504.979.454.984.415.984M.466.498C.434.349.391.267.281.267.235.267.184.312.184.408c0 .022.003.047.009.074l.053.244c.017.081.052.221.158.221.055 0 .077-.035.077-.083C.481.812.463.722.384.722c-.037 0-.057.01-.069.01C.296.732.287.721.283.702L.281.689c0-.012.007-.017.021-.017.014 0 .037.01.073.01C.438.682.47.608.47.54A.193.193 0 0 0 .466.498z"/></symbol><use xlink:href="#ap" transform="matrix(7.6075 0 0 -7.6075 213.576 157.032)"/><path d="M190.672 103.468h35.732v-21.18h-35.732z" fill="#fff"/><path stroke-width=".797" stroke-miterlimit="10" fill="none" stroke="#000" d="M190.672 103.468h35.732v-21.18h-35.732z"/><use xlink:href="#ai" transform="matrix(7.6075 0 0 -7.6075 194.075 90.673)"/><use xlink:href="#ao" transform="matrix(10.0363 0 0 -10.0363 198.936 94.542)"/><use xlink:href="#Z" transform="matrix(7.6075 0 0 -7.6075 202.103 98.492)"/><use xlink:href="#ag" transform="matrix(7.6075 0 0 -7.6075 205.001 100.242)"/><use xlink:href="#ab" transform="matrix(7.6075 0 0 -7.6075 209.185 98.492)"/><use xlink:href="#an" transform="matrix(7.6075 0 0 -7.6075 213.88 100.242)"/><symbol id="aq"><path d="M.024.593C.05.644.092.699.119.699.203.699.217.503.217.361c0-.038 0-.073-.003-.098C.19.184.136.054.136.008.136.004.141 0 .158 0c.03 0 .077.028.079.042.009.046.034.237.034.237C.305.362.4.556.437.606c.057.079.128.025.128.122 0 .014-.019.025-.053.025C.43.753.327.499.275.372A.645.645 0 0 1 .287.51c0 .119-.019.241-.123.241C.091.751.034.685 0 .607L.024.593z"/></symbol><use xlink:href="#aq" transform="matrix(7.6075 0 0 -7.6075 218.272 100.295)"/><path d="M190.672 46.775h35.732V25.594h-35.732z" fill="#fff"/><path stroke-width=".797" stroke-miterlimit="10" fill="none" stroke="#000" d="M190.672 46.775h35.732V25.594h-35.732z"/><use xlink:href="#ak" transform="matrix(7.6075 0 0 -7.6075 194.174 33.98)"/><use xlink:href="#ao" transform="matrix(10.0363 0 0 -10.0363 198.936 37.849)"/><use xlink:href="#Z" transform="matrix(7.6075 0 0 -7.6075 202.103 41.8)"/><use xlink:href="#ag" transform="matrix(7.6075 0 0 -7.6075 205.001 43.549)"/><use xlink:href="#ab" transform="matrix(7.6075 0 0 -7.6075 209.185 41.8)"/><use xlink:href="#an" transform="matrix(7.6075 0 0 -7.6075 213.88 43.549)"/><use xlink:href="#aq" transform="matrix(7.6075 0 0 -7.6075 218.272 43.602)"/><path stroke-width=".797" stroke-miterlimit="10" fill="none" stroke="#000" d="m185.484 172.626 11.47-11.468"/><path stroke-width=".63798724" stroke-linecap="round" stroke-linejoin="round" fill="none" stroke="#000" d="M194.39 160.791c.64.458 2.472.275 2.838.092-.183.366-.366 2.198.092 2.839"/><path stroke-width=".797" stroke-miterlimit="10" fill="none" stroke="#000" d="m185.484 115.932 11.567-11.565"/><path stroke-width=".63798724" stroke-linecap="round" stroke-linejoin="round" fill="none" stroke="#000" d="M194.487 104c.64.458 2.472.275 2.838.092-.183.367-.366 2.198.092 2.84"/><path stroke-width=".797" stroke-miterlimit="10" fill="none" stroke="#000" d="m185.484 59.238 11.567-11.565"/><path stroke-width=".63798724" stroke-linecap="round" stroke-linejoin="round" fill="none" stroke="#000" d="M194.487 47.307c.64.458 2.472.275 2.838.092-.183.366-.366 2.197.092 2.838"/><path d="M243.972 149.571a7.087 7.087 0 1 0-14.174 0 7.087 7.087 0 0 0 14.174 0zm-7.087 0" fill="#e9a"/><path stroke-width=".797" stroke-miterlimit="10" fill="none" stroke="#000" d="M243.972 149.571a7.087 7.087 0 1 0-14.174 0 7.087 7.087 0 0 0 14.174 0zm-7.087 0"/><path stroke-width=".797" stroke-miterlimit="10" fill="none" stroke="#000" d="M231.874 154.582c5.011.659 5.011-10.68 10.022-10.022M222.341 149.571h6.351"/><path stroke-width=".638" stroke-linecap="round" stroke-linejoin="round" fill="none" stroke="#000" d="M227.138 147.5c.13.776 1.554 1.942 1.943 2.071-.389.13-1.813 1.296-1.943 2.073"/><path d="M272.319 92.878a7.087 7.087 0 1 0-14.174 0 7.087 7.087 0 0 0 14.174 0zm-7.087 0" fill="#69c"/><path stroke-width=".797" stroke-miterlimit="10" fill="none" stroke="#000" d="M272.319 92.878a7.087 7.087 0 1 0-14.174 0 7.087 7.087 0 0 0 14.174 0zm-7.087 0"/><use xlink:href="#b" transform="matrix(10.0364 0 0 -10.0364 262.41 95.667)"/><path d="M306.335 7.837a7.087 7.087 0 1 0-14.174 0 7.087 7.087 0 0 0 14.174 0zm-7.087 0" fill="#69c"/><path stroke-width=".797" stroke-miterlimit="10" fill="none" stroke="#000" d="M306.335 7.837a7.087 7.087 0 1 0-14.174 0 7.087 7.087 0 0 0 14.174 0zm-7.087 0"/><use xlink:href="#b" transform="matrix(10.0364 0 0 -10.0364 296.427 10.628)"/><path d="M289.327 36.184a7.087 7.087 0 1 0-14.173 0 7.087 7.087 0 0 0 14.173 0zm-7.087 0" fill="#69c"/><path stroke-width=".797" stroke-miterlimit="10" fill="none" stroke="#000" d="M289.327 36.184a7.087 7.087 0 1 0-14.173 0 7.087 7.087 0 0 0 14.173 0zm-7.087 0"/><use xlink:href="#b" transform="matrix(10.0364 0 0 -10.0364 279.419 38.974)"/><path d="M272.319 149.571a7.087 7.087 0 1 0-14.174 0 7.087 7.087 0 0 0 14.174 0zm-7.087 0" fill="#e9a"/><path stroke-width=".797" stroke-miterlimit="10" fill="none" stroke="#000" d="M272.319 149.571a7.087 7.087 0 1 0-14.174 0 7.087 7.087 0 0 0 14.174 0zm-7.087 0"/><use xlink:href="#d" transform="matrix(10.0364 0 0 -10.0364 262.471 151.282)"/><path d="M329.012 92.878a7.087 7.087 0 1 0-14.173 0 7.087 7.087 0 0 0 14.173 0zm-7.087 0" fill="#69c"/><path stroke-width=".797" stroke-miterlimit="10" fill="none" stroke="#000" d="M329.012 92.878a7.087 7.087 0 1 0-14.173 0 7.087 7.087 0 0 0 14.173 0zm-7.087 0"/><use xlink:href="#c" transform="matrix(10.0364 0 0 -10.0364 319.164 95.607)"/><path d="M329.012 36.184a7.087 7.087 0 1 0-14.173 0 7.087 7.087 0 0 0 14.173 0zm-7.087 0" fill="#69c"/><path stroke-width=".797" stroke-miterlimit="10" fill="none" stroke="#000" d="M329.012 36.184a7.087 7.087 0 1 0-14.173 0 7.087 7.087 0 0 0 14.173 0zm-7.087 0"/><use xlink:href="#c" transform="matrix(10.0364 0 0 -10.0364 319.164 38.914)"/><path stroke-width=".797" stroke-miterlimit="10" fill="none" stroke="#000" d="M226.803 92.878h30.236"/><path stroke-width=".638" stroke-linecap="round" stroke-linejoin="round" fill="none" stroke="#000" d="M255.485 90.806c.13.777 1.554 1.942 1.943 2.072-.389.13-1.813 1.295-1.943 2.072"/><path stroke-width=".797" stroke-miterlimit="10" fill="none" stroke="#000" d="M107.342 7.837h183.713"/><path stroke-width=".638" stroke-linecap="round" stroke-linejoin="round" fill="none" stroke="#000" d="M289.501 5.765c.13.777 1.554 1.943 1.943 2.072-.389.13-1.813 1.295-1.943 2.073"/><path stroke-width=".797" stroke-miterlimit="10" fill="none" stroke="#000" d="M244.37 149.571h12.67"/><path stroke-width=".638" stroke-linecap="round" stroke-linejoin="round" fill="none" stroke="#000" d="M255.485 147.5c.13.776 1.554 1.942 1.943 2.071-.389.13-1.813 1.296-1.943 2.073"/><path stroke-width=".797" stroke-miterlimit="10" fill="none" stroke="#000" d="M272.717 92.878h41.016"/><path stroke-width=".638" stroke-linecap="round" stroke-linejoin="round" fill="none" stroke="#000" d="M312.179 90.806c.13.777 1.554 1.942 1.942 2.072-.388.13-1.813 1.295-1.942 2.072"/><path stroke-width=".797" stroke-miterlimit="10" fill="none" stroke="#000" d="m270.982 144.78 28.266-23.555V95.713M269.083 143.153l13.157-21.928V95.713M299.248 90.043a2.835 2.835 0 1 0 0 5.67"/><path stroke-width=".797" stroke-miterlimit="10" fill="none" stroke="#000" d="M282.24 90.043a2.835 2.835 0 1 0 0 5.67M299.248 90.043V16.03"/><path stroke-width=".638" stroke-linecap="round" stroke-linejoin="round" fill="none" stroke="#000" d="M297.176 17.584c.777-.13 1.942-1.554 2.072-1.943.13.389 1.295 1.814 2.072 1.943"/><path stroke-width=".797" stroke-miterlimit="10" fill="none" stroke="#000" d="M282.24 90.043V44.377"/><path stroke-width=".638" stroke-linecap="round" stroke-linejoin="round" fill="none" stroke="#000" d="M280.168 45.93c.777-.129 1.943-1.553 2.072-1.942.13.389 1.295 1.813 2.072 1.943"/><path stroke-width=".797" stroke-miterlimit="10" fill="none" stroke="#000" d="M265.232 142.086V101.07"/><path stroke-width=".638" stroke-linecap="round" stroke-linejoin="round" fill="none" stroke="#000" d="M263.16 102.624c.777-.129 1.942-1.554 2.072-1.942.13.388 1.295 1.813 2.072 1.942"/><path stroke-width=".797" stroke-miterlimit="10" fill="none" stroke="#000" d="M226.803 36.184h47.245"/><path stroke-width=".638" stroke-linecap="round" stroke-linejoin="round" fill="none" stroke="#000" d="M272.493 34.112c.13.777 1.555 1.943 1.943 2.072-.388.13-1.813 1.295-1.943 2.072"/><path d="M337.1 160.67h26.346v-22.197h-26.347z" fill="#fff"/><path stroke-width=".797" stroke-miterlimit="10" fill="none" stroke="#000" d="M337.1 160.67h26.346v-22.197h-26.347z"/><use xlink:href="#ac" transform="matrix(7.6075 0 0 -7.6075 341.124 147.783)"/><use xlink:href="#ao" transform="matrix(10.0363 0 0 -10.0363 345.36 151.743)"/><symbol id="ar"><path d="M.223.465A.08.08 0 0 1 .23.493c0 .021-.03.03-.061.03C.139.523.108.514.105.499L0 .013C0 .006.014 0 .026 0c.008 0 .016.003.018.008l.179.457z"/></symbol><use xlink:href="#ar" transform="matrix(5.4994 0 0 -5.4994 348.026 144.561)"/><use xlink:href="#Z" transform="matrix(7.6075 0 0 -7.6075 348.528 155.693)"/><use xlink:href="#ag" transform="matrix(7.6075 0 0 -7.6075 351.426 157.443)"/><use xlink:href="#aq" transform="matrix(7.6075 0 0 -7.6075 355.312 157.496)"/><path d="M334.788 103.976h30.969V81.78h-30.97z" fill="#fff"/><path stroke-width=".797" stroke-miterlimit="10" fill="none" stroke="#000" d="M334.788 103.976h30.969V81.78h-30.97z"/><use xlink:href="#ai" transform="matrix(7.6075 0 0 -7.6075 338.19 91.181)"/><use xlink:href="#ao" transform="matrix(10.0363 0 0 -10.0363 343.049 95.05)"/><use xlink:href="#ar" transform="matrix(5.4994 0 0 -5.4994 345.715 87.868)"/><use xlink:href="#Z" transform="matrix(7.6075 0 0 -7.6075 346.217 99)"/><use xlink:href="#ag" transform="matrix(7.6075 0 0 -7.6075 349.115 100.75)"/><use xlink:href="#ab" transform="matrix(7.6075 0 0 -7.6075 353.3 99)"/><use xlink:href="#aq" transform="matrix(7.6075 0 0 -7.6075 357.623 100.803)"/><path d="M332.406 47.283h35.732V25.086h-35.732z" fill="#fff"/><path stroke-width=".797" stroke-miterlimit="10" fill="none" stroke="#000" d="M332.406 47.283h35.732V25.086h-35.732z"/><use xlink:href="#ak" transform="matrix(7.6075 0 0 -7.6075 335.907 34.488)"/><use xlink:href="#ao" transform="matrix(10.0363 0 0 -10.0363 340.668 38.357)"/><use xlink:href="#ar" transform="matrix(5.4994 0 0 -5.4994 343.334 31.176)"/><use xlink:href="#Z" transform="matrix(7.6075 0 0 -7.6075 343.836 42.307)"/><use xlink:href="#ag" transform="matrix(7.6075 0 0 -7.6075 346.734 44.057)"/><use xlink:href="#ab" transform="matrix(7.6075 0 0 -7.6075 350.918 42.307)"/><use xlink:href="#an" transform="matrix(7.6075 0 0 -7.6075 355.612 44.057)"/><use xlink:href="#aq" transform="matrix(7.6075 0 0 -7.6075 360.004 44.11)"/><path stroke-width=".797" stroke-miterlimit="10" fill="none" stroke="#000" d="m301.176 15.07 18.639 69.892"/><path stroke-width=".63797448" stroke-linecap="round" stroke-linejoin="round" fill="none" stroke="#000" d="M321.416 82.927c-.717.325-1.476 2.002-1.501 2.41-.225-.342-1.719-1.418-2.503-1.343"/><path stroke-width=".797" stroke-miterlimit="10" fill="none" stroke="#000" d="M272.717 149.571h63.276"/><path stroke-width=".638" stroke-linecap="round" stroke-linejoin="round" fill="none" stroke="#000" d="M334.439 147.5c.13.776 1.554 1.942 1.943 2.071-.389.13-1.813 1.296-1.943 2.073"/><path stroke-width=".797" stroke-miterlimit="10" fill="none" stroke="#000" d="M329.41 92.878h4.272"/><path stroke-width=".638" stroke-linecap="round" stroke-linejoin="round" fill="none" stroke="#000" d="M332.128 90.806c.13.777 1.554 1.942 1.942 2.072-.388.13-1.813 1.295-1.942 2.072"/><path stroke-width=".797" stroke-miterlimit="10" fill="none" stroke="#000" d="M289.725 36.184h24.008"/><path stroke-width=".638" stroke-linecap="round" stroke-linejoin="round" fill="none" stroke="#000" d="M312.179 34.112c.13.777 1.554 1.943 1.942 2.072-.388.13-1.813 1.295-1.942 2.072"/><path stroke-width=".797" stroke-miterlimit="10" fill="none" stroke="#000" d="M329.41 36.184h1.89"/><path stroke-width=".638" stroke-linecap="round" stroke-linejoin="round" fill="none" stroke="#000" d="M329.746 34.112c.13.777 1.554 1.943 1.943 2.072-.389.13-1.813 1.295-1.943 2.072"/><path stroke-width=".797" stroke-miterlimit="10" fill="none" stroke="#000" d="m303.924 13.682 12.884 16.105"/><path stroke-width=".6379617200000001" stroke-linecap="round" stroke-linejoin="round" fill="none" stroke="#000" d="M317.455 27.28c-.526.586-.546 2.426-.404 2.81-.344-.222-2.144-.606-2.832-.222"/><path d="M385.706 177.918a7.087 7.087 0 1 0-14.174 0 7.087 7.087 0 0 0 14.174 0zm-7.087 0" fill="#e9a"/><path stroke-width=".797" stroke-miterlimit="10" fill="none" stroke="#000" d="M385.706 177.918a7.087 7.087 0 1 0-14.174 0 7.087 7.087 0 0 0 14.174 0zm-7.087 0"/><path stroke-width=".797" stroke-miterlimit="10" fill="none" stroke="#000" d="M371.532 177.918h14.174m-7.087 0c-2.126-3.682-2.126-3.682-5.01-5.01m5.01 5.01c-2.126 3.682-2.126 3.682-5.01 5.011"/><path d="M380.036 177.918a1.417 1.417 0 1 0-2.834 0 1.417 1.417 0 0 0 2.834 0zm-1.417 0" fill="#fff"/><path stroke-width=".797" stroke-miterlimit="10" fill="none" stroke="#000" d="M380.036 177.918a1.417 1.417 0 1 0-2.834 0 1.417 1.417 0 0 0 2.834 0zm-1.417 0"/><path d="M385.706 121.225a7.087 7.087 0 1 0-14.173 0 7.087 7.087 0 0 0 14.173 0zm-7.087 0" fill="#69c"/><path stroke-width=".797" stroke-miterlimit="10" fill="none" stroke="#000" d="M385.706 121.225a7.087 7.087 0 1 0-14.173 0 7.087 7.087 0 0 0 14.173 0zm-7.087 0"/><path stroke-width=".797" stroke-miterlimit="10" fill="none" stroke="#000" d="M371.532 121.225h14.174m-7.087 0c-2.126-3.683-2.126-3.683-5.01-5.011m5.01 5.01c-2.126 3.683-2.126 3.683-5.01 5.012"/><path d="M380.036 121.225a1.417 1.417 0 1 0-2.834 0 1.417 1.417 0 0 0 2.834 0zm-1.417 0" fill="#fff"/><path stroke-width=".797" stroke-miterlimit="10" fill="none" stroke="#000" d="M380.036 121.225a1.417 1.417 0 1 0-2.834 0 1.417 1.417 0 0 0 2.834 0zm-1.417 0"/><path d="M385.706 64.531a7.087 7.087 0 1 0-14.173 0 7.087 7.087 0 0 0 14.173 0zm-7.087 0" fill="#69c"/><path stroke-width=".797" stroke-miterlimit="10" fill="none" stroke="#000" d="M385.706 64.531a7.087 7.087 0 1 0-14.173 0 7.087 7.087 0 0 0 14.173 0zm-7.087 0"/><path stroke-width=".797" stroke-miterlimit="10" fill="none" stroke="#000" d="M371.532 64.531h14.174m-7.087 0c-2.126-3.682-2.126-3.682-5.01-5.011m5.01 5.011c-2.126 3.682-2.126 3.682-5.01 5.01"/><path d="M380.036 64.531a1.417 1.417 0 1 0-2.834 0 1.417 1.417 0 0 0 2.834 0zm-1.417 0" fill="#fff"/><path stroke-width=".797" stroke-miterlimit="10" fill="none" stroke="#000" d="M380.036 64.531a1.417 1.417 0 1 0-2.834 0 1.417 1.417 0 0 0 2.834 0zM361.769 161.069l11.057 11.056"/><path stroke-width=".63798724" stroke-linecap="round" stroke-linejoin="round" fill="none" stroke="#000" d="M373.192 169.561c-.458.641-.274 2.473-.091 2.839-.366-.183-2.198-.366-2.84.092"/><path stroke-width=".797" stroke-miterlimit="10" fill="none" stroke="#000" d="m361.769 104.375 11.057 11.057"/><path stroke-width=".63798724" stroke-linecap="round" stroke-linejoin="round" fill="none" stroke="#000" d="M373.192 112.867c-.458.642-.274 2.473-.091 2.84-.366-.184-2.198-.367-2.84.091"/><path stroke-width=".797" stroke-miterlimit="10" fill="none" stroke="#000" d="m361.769 47.681 11.057 11.057"/><path stroke-width=".63798724" stroke-linecap="round" stroke-linejoin="round" fill="none" stroke="#000" d="M373.192 56.174c-.458.64-.274 2.472-.091 2.839-.366-.183-2.198-.367-2.84.091"/><path d="M394 189.017h25.931V166.82h-25.93z" fill="#fff"/><path stroke-width=".797" stroke-miterlimit="10" fill="none" stroke="#000" d="M394 189.017h25.931V166.82h-25.93z"/><use xlink:href="#ac" transform="matrix(7.6075 0 0 -7.6075 398.025 176.129)"/><use xlink:href="#ad" transform="matrix(10.0363 0 0 -10.0363 402.26 180.089)"/><use xlink:href="#ar" transform="matrix(5.4994 0 0 -5.4994 408.67 172.908)"/><use xlink:href="#Z" transform="matrix(7.6075 0 0 -7.6075 409.172 184.04)"/><use xlink:href="#aq" transform="matrix(7.6075 0 0 -7.6075 411.797 185.842)"/><path d="M391.69 132.323h30.553v-22.197h-30.554z" fill="#fff"/><path stroke-width=".797" stroke-miterlimit="10" fill="none" stroke="#000" d="M391.69 132.323h30.553v-22.197h-30.554z"/><use xlink:href="#ai" transform="matrix(7.6075 0 0 -7.6075 395.09 119.528)"/><use xlink:href="#ad" transform="matrix(10.0363 0 0 -10.0363 399.95 123.397)"/><use xlink:href="#ar" transform="matrix(5.4994 0 0 -5.4994 406.359 116.215)"/><use xlink:href="#Z" transform="matrix(7.6075 0 0 -7.6075 406.86 127.347)"/><use xlink:href="#ab" transform="matrix(7.6075 0 0 -7.6075 409.79 127.347)"/><use xlink:href="#aq" transform="matrix(7.6075 0 0 -7.6075 414.108 129.15)"/><path d="M389.308 75.63h35.316V53.432h-35.316z" fill="#fff"/><path stroke-width=".797" stroke-miterlimit="10" fill="none" stroke="#000" d="M389.308 75.63h35.316V53.432h-35.316z"/><use xlink:href="#ak" transform="matrix(7.6075 0 0 -7.6075 392.807 62.835)"/><use xlink:href="#ad" transform="matrix(10.0363 0 0 -10.0363 397.569 66.704)"/><use xlink:href="#ar" transform="matrix(5.4994 0 0 -5.4994 403.978 59.522)"/><use xlink:href="#Z" transform="matrix(7.6075 0 0 -7.6075 404.48 70.654)"/><use xlink:href="#ab" transform="matrix(7.6075 0 0 -7.6075 407.409 70.654)"/><use xlink:href="#an" transform="matrix(7.6075 0 0 -7.6075 412.095 72.404)"/><use xlink:href="#aq" transform="matrix(7.6075 0 0 -7.6075 416.489 72.457)"/><path stroke-width=".797" stroke-miterlimit="10" fill="none" stroke="#000" d="M386.104 177.918h6.79"/><path stroke-width=".638" stroke-linecap="round" stroke-linejoin="round" fill="none" stroke="#000" d="M391.34 175.846c.13.777 1.555 1.943 1.943 2.072-.388.13-1.813 1.295-1.942 2.072"/><path stroke-width=".797" stroke-miterlimit="10" fill="none" stroke="#000" d="M386.104 121.225h4.48"/><path stroke-width=".638" stroke-linecap="round" stroke-linejoin="round" fill="none" stroke="#000" d="M389.03 119.152c.129.777 1.553 1.943 1.942 2.073-.389.13-1.813 1.295-1.943 2.072"/><path stroke-width=".797" stroke-miterlimit="10" fill="none" stroke="#000" d="M386.104 64.531h2.098"/><path stroke-width=".638" stroke-linecap="round" stroke-linejoin="round" fill="none" stroke="#000" d="M386.648 62.459c.13.777 1.554 1.942 1.943 2.072-.389.13-1.814 1.295-1.943 2.072"/><path d="M442.4 206.265a7.087 7.087 0 1 0-14.174 0 7.087 7.087 0 0 0 14.173 0zm-7.087 0" fill="#e9a"/><path stroke-width=".797" stroke-miterlimit="10" fill="none" stroke="#000" d="M442.4 206.265a7.087 7.087 0 1 0-14.174 0 7.087 7.087 0 0 0 14.173 0zm-7.087 0"/><use xlink:href="#c" transform="matrix(10.0364 0 0 -10.0364 432.55 208.993)"/><path d="M442.483 160.91a7.17 7.17 0 1 0-14.34 0 7.17 7.17 0 0 0 14.34 0zm-7.17 0" fill="#69c"/><path stroke-width=".797" stroke-miterlimit="10" fill="none" stroke="#000" d="M442.483 160.91a7.17 7.17 0 1 0-14.34 0 7.17 7.17 0 0 0 14.34 0zm-7.17 0"/><use xlink:href="#e" transform="matrix(10.0364 0 0 -10.0364 430.552 165.087)"/><use xlink:href="#f" transform="matrix(10.0364 0 0 -10.0364 433.956 165.151)"/><use xlink:href="#g" transform="matrix(10.0364 0 0 -10.0364 437.503 165.087)"/><path d="M442.483 109.886a7.17 7.17 0 1 0-14.34 0 7.17 7.17 0 0 0 14.34 0zm-7.17 0" fill="#69c"/><path stroke-width=".797" stroke-miterlimit="10" fill="none" stroke="#000" d="M442.483 109.886a7.17 7.17 0 1 0-14.34 0 7.17 7.17 0 0 0 14.34 0zm-7.17 0"/><use xlink:href="#e" transform="matrix(10.0364 0 0 -10.0364 430.552 114.064)"/><use xlink:href="#f" transform="matrix(10.0364 0 0 -10.0364 433.956 114.128)"/><use xlink:href="#g" transform="matrix(10.0364 0 0 -10.0364 437.503 114.064)"/><path stroke-width=".797" stroke-miterlimit="10" fill="none" stroke="#000" d="m418.462 189.415 11.058 11.057"/><path stroke-width=".63798724" stroke-linecap="round" stroke-linejoin="round" fill="none" stroke="#000" d="M429.886 197.908c-.458.64-.275 2.472-.092 2.839-.366-.183-2.197-.366-2.838.091"/><path stroke-width=".797" stroke-miterlimit="10" fill="none" stroke="#000" d="m415.176 132.722 15.327 21.454"/><path stroke-width=".6379681" stroke-linecap="round" stroke-linejoin="round" fill="none" stroke="#000" d="M431.285 151.707c-.557.557-.677 2.394-.556 2.785-.332-.24-2.108-.722-2.816-.376"/><path stroke-width=".797" stroke-miterlimit="10" fill="none" stroke="#000" d="M165.601 206.265h261.52"/><path stroke-width=".638" stroke-linecap="round" stroke-linejoin="round" fill="none" stroke="#000" d="M425.566 204.193c.13.777 1.554 1.943 1.943 2.072-.389.13-1.813 1.295-1.943 2.072"/><path stroke-width=".797" stroke-miterlimit="10" fill="none" stroke="#000" d="m414.148 76.028 16.779 26.84"/><path stroke-width=".63799362" stroke-linecap="round" stroke-linejoin="round" fill="none" stroke="#000" d="M431.86 100.452c-.59.522-.824 2.348-.727 2.746-.316-.261-2.06-.851-2.787-.55"/><path d="M464.868 217.364h25.93v-22.198h-25.93z" fill="#fff"/><path stroke-width=".797" stroke-miterlimit="10" fill="none" stroke="#000" d="M464.868 217.364h25.93v-22.198h-25.93z"/><use xlink:href="#ac" transform="matrix(7.6075 0 0 -7.6075 468.891 204.476)"/><use xlink:href="#ad" transform="matrix(10.0363 0 0 -10.0363 473.128 208.436)"/><use xlink:href="#ar" transform="matrix(5.4994 0 0 -5.4994 479.537 201.254)"/><use xlink:href="#ar" transform="matrix(5.4994 0 0 -5.4994 481.154 201.254)"/><use xlink:href="#Z" transform="matrix(7.6075 0 0 -7.6075 480.039 212.386)"/><use xlink:href="#aq" transform="matrix(7.6075 0 0 -7.6075 482.663 214.19)"/><path stroke-width=".797" stroke-miterlimit="10" fill="none" stroke="#000" d="M442.798 206.265h20.964"/><path stroke-width=".638" stroke-linecap="round" stroke-linejoin="round" fill="none" stroke="#000" d="M462.208 204.193c.13.777 1.554 1.943 1.942 2.072-.388.13-1.813 1.295-1.942 2.072"/><path stroke-width=".797" stroke-miterlimit="10" fill="none" stroke="#000" d="m440.49 166.431 26.085 27.82"/><path stroke-width=".63798086" stroke-linecap="round" stroke-linejoin="round" fill="none" stroke="#000" d="M467.024 191.7c-.479.627-.355 2.463-.183 2.835-.36-.195-2.185-.437-2.84 0"/><path stroke-width=".797" stroke-miterlimit="10" fill="none" stroke="#000" d="m438.368 116.81 34.11 77.31"/><path stroke-width=".63797448" stroke-linecap="round" stroke-linejoin="round" fill="none" stroke="#000" d="M473.747 191.862c-.659.433-1.15 2.206-1.112 2.614-.275-.303-1.916-1.136-2.68-.94"/><path d="M527.44 206.265a7.087 7.087 0 1 0-14.173 0 7.087 7.087 0 0 0 14.173 0zm-7.087 0" fill="#e9a"/><path stroke-width=".797" stroke-miterlimit="10" fill="none" stroke="#000" d="M527.44 206.265a7.087 7.087 0 1 0-14.173 0 7.087 7.087 0 0 0 14.173 0zm-7.087 0"/><path stroke-width=".797" stroke-miterlimit="10" fill="none" stroke="#000" d="M515.342 211.276c5.011.658 5.011-10.68 10.022-10.022"/><path d="M527.44 149.571a7.087 7.087 0 1 0-14.173 0 7.087 7.087 0 0 0 14.173 0zm-7.087 0" fill="#69c"/><path stroke-width=".797" stroke-miterlimit="10" fill="none" stroke="#000" d="M527.44 149.571a7.087 7.087 0 1 0-14.173 0 7.087 7.087 0 0 0 14.173 0zm-7.087 0"/><use xlink:href="#b" transform="matrix(10.0364 0 0 -10.0364 517.529 152.36)"/><path d="M541.613 92.878a7.087 7.087 0 1 0-14.173 0 7.087 7.087 0 0 0 14.173 0zm-7.086 0" fill="#69c"/><path stroke-width=".797" stroke-miterlimit="10" fill="none" stroke="#000" d="M541.613 92.878a7.087 7.087 0 1 0-14.173 0 7.087 7.087 0 0 0 14.173 0zm-7.086 0"/><use xlink:href="#b" transform="matrix(10.0364 0 0 -10.0364 531.703 95.667)"/><path stroke-width=".797" stroke-miterlimit="10" fill="none" stroke="#000" d="M491.197 206.265h20.964"/><path stroke-width=".638" stroke-linecap="round" stroke-linejoin="round" fill="none" stroke="#000" d="M510.606 204.193c.13.777 1.555 1.943 1.943 2.072-.388.13-1.813 1.295-1.943 2.072"/><path stroke-width=".797" stroke-miterlimit="10" fill="none" stroke="#000" d="M520.353 198.78v-41.016"/><path stroke-width=".638" stroke-linecap="round" stroke-linejoin="round" fill="none" stroke="#000" d="M518.281 159.318c.777-.13 1.943-1.554 2.072-1.943.13.389 1.295 1.814 2.072 1.943"/><path d="M561.468 216.084h31.157v-19.638h-31.157z" fill="#fff"/><path stroke-width=".797" stroke-miterlimit="10" fill="none" stroke="#000" d="M561.468 216.084h31.157v-19.638h-31.157z"/><use xlink:href="#ac" transform="matrix(7.6075 0 0 -7.6075 565.491 204.739)"/><use xlink:href="#ad" transform="matrix(10.0363 0 0 -10.0363 569.727 208.699)"/><use xlink:href="#al" transform="matrix(7.6075 0 0 -7.6075 576.842 204.83)"/><use xlink:href="#c" transform="matrix(7.6075 0 0 -7.6075 580.058 204.686)"/><use xlink:href="#ac" transform="matrix(7.6075 0 0 -7.6075 585.714 204.739)"/><use xlink:href="#Z" transform="matrix(7.6075 0 0 -7.6075 576.638 212.91)"/><symbol id="as"><path d="M.246.507A.354.354 0 0 1 0 .181C0 .083.054.002.179 0h.002c.161 0 .272.163.272.309A.247.247 0 0 1 .401.47C.337.541.215.61.215.652c0 .034.042.061.078.061.094 0 .11-.048.153-.091L.452.62c.02 0 .074.025.075.042A.01.01 0 0 1 .523.67C.446.734.403.763.34.763.254.763.154.7.154.622c0-.026.015-.059.092-.115M.193.035c-.069 0-.1.06-.1.138a.36.36 0 0 0 .166.302.02.02 0 0 0 .011.003C.284.478.298.463.302.46A.211.211 0 0 0 .363.307C.363.194.287.035.193.035z"/></symbol><use xlink:href="#as" transform="matrix(7.6075 0 0 -7.6075 579.406 212.91)"/><path d="M561.468 160.195h31.157v-21.247h-31.157z" fill="#fff"/><path stroke-width=".797" stroke-miterlimit="10" fill="none" stroke="#000" d="M561.468 160.195h31.157v-21.247h-31.157z"/><use xlink:href="#ai" transform="matrix(7.6075 0 0 -7.6075 564.867 147.333)"/><use xlink:href="#ad" transform="matrix(10.0363 0 0 -10.0363 569.727 151.202)"/><use xlink:href="#al" transform="matrix(7.6075 0 0 -7.6075 576.842 147.333)"/><use xlink:href="#c" transform="matrix(7.6075 0 0 -7.6075 580.058 147.189)"/><use xlink:href="#ac" transform="matrix(7.6075 0 0 -7.6075 585.714 147.242)"/><use xlink:href="#Z" transform="matrix(7.6075 0 0 -7.6075 576.638 155.218)"/><use xlink:href="#ab" transform="matrix(7.6075 0 0 -7.6075 579.567 155.218)"/><symbol id="at"><path d="M.132.242.205.58C.219.646.31.693.363.693.398.693.42.667.42.62A.2.2 0 0 0 .414.575L.29 0l.096.028.118.547A.276.276 0 0 1 .511.63c0 .075-.046.114-.115.114A.335.335 0 0 1 .219.67c0 .055-.028.074-.06.074C.086.744.035.683 0 .599L.024.585C.05.636.09.69.112.69c.015 0 .02-.009.02-.023L.131.655.042.242h.09z"/></symbol><use xlink:href="#at" transform="matrix(7.6075 0 0 -7.6075 583.946 156.968)"/><path d="M559.455 103.501h35.184V82.254h-35.184z" fill="#fff"/><path stroke-width=".797" stroke-miterlimit="10" fill="none" stroke="#000" d="M559.455 103.501h35.184V82.254h-35.184z"/><use xlink:href="#ak" transform="matrix(7.6075 0 0 -7.6075 562.952 90.64)"/><use xlink:href="#ad" transform="matrix(10.0363 0 0 -10.0363 567.714 94.509)"/><use xlink:href="#al" transform="matrix(7.6075 0 0 -7.6075 574.828 90.64)"/><use xlink:href="#c" transform="matrix(7.6075 0 0 -7.6075 578.045 90.496)"/><use xlink:href="#ac" transform="matrix(7.6075 0 0 -7.6075 583.701 90.549)"/><use xlink:href="#Z" transform="matrix(7.6075 0 0 -7.6075 574.625 98.525)"/><use xlink:href="#ab" transform="matrix(7.6075 0 0 -7.6075 577.554 98.525)"/><use xlink:href="#an" transform="matrix(7.6075 0 0 -7.6075 582.24 100.275)"/><use xlink:href="#at" transform="matrix(7.6075 0 0 -7.6075 586.695 100.275)"/><path stroke-width=".797" stroke-miterlimit="10" fill="none" stroke="#000" d="M422.641 121.225h97.712v20.154"/><path stroke-width=".638" stroke-linecap="round" stroke-linejoin="round" fill="none" stroke="#000" d="M522.425 139.825c-.777.13-1.942 1.554-2.072 1.942-.13-.388-1.295-1.813-2.072-1.942"/><path stroke-width=".797" stroke-miterlimit="10" fill="none" stroke="#000" d="M425.022 64.531h109.505v20.154"/><path stroke-width=".638" stroke-linecap="round" stroke-linejoin="round" fill="none" stroke="#000" d="M536.599 83.131c-.777.13-1.943 1.554-2.072 1.943-.13-.389-1.296-1.813-2.073-1.943"/><path stroke-width=".797" stroke-miterlimit="10" fill="none" stroke="#000" d="M527.838 206.265h32.524"/><path stroke-width=".638" stroke-linecap="round" stroke-linejoin="round" fill="none" stroke="#000" d="M558.808 204.193c.13.777 1.554 1.943 1.943 2.072-.389.13-1.813 1.295-1.943 2.072"/><path stroke-width=".797" stroke-miterlimit="10" fill="none" stroke="#000" d="M527.838 149.571h32.524"/><path stroke-width=".638" stroke-linecap="round" stroke-linejoin="round" fill="none" stroke="#000" d="M558.808 147.5c.13.776 1.554 1.942 1.943 2.071-.389.13-1.813 1.296-1.943 2.073"/><path stroke-width=".797" stroke-miterlimit="10" fill="none" stroke="#000" d="M542.012 92.878h16.337"/><path stroke-width=".638" stroke-linecap="round" stroke-linejoin="round" fill="none" stroke="#000" d="M556.795 90.806c.13.777 1.554 1.942 1.943 2.072-.389.13-1.814 1.295-1.943 2.072"/><path d="M640.827 206.265a7.087 7.087 0 1 0-14.173 0 7.087 7.087 0 0 0 14.173 0zm-7.087 0" fill="#e9a"/><path stroke-width=".797" stroke-miterlimit="10" fill="none" stroke="#000" d="M640.827 206.265a7.087 7.087 0 1 0-14.173 0 7.087 7.087 0 0 0 14.173 0zm-7.087 0"/><path stroke-width=".797" stroke-miterlimit="10" fill="none" stroke="#000" d="M628.73 211.276c5.01.658 5.01-10.68 10.021-10.022"/><path d="M655 206.265a7.087 7.087 0 1 0-14.173 0 7.087 7.087 0 0 0 14.173 0zm-7.086 0" fill="#e9a"/><path stroke-width=".797" stroke-miterlimit="10" fill="none" stroke="#000" d="M655 206.265a7.087 7.087 0 1 0-14.173 0 7.087 7.087 0 0 0 14.173 0zm-7.086 0"/><use xlink:href="#c" transform="matrix(10.0364 0 0 -10.0364 645.148 208.993)"/><path stroke-width=".797" stroke-miterlimit="10" fill="none" stroke="#000" d="M593.024 206.265h32.524"/><path stroke-width=".638" stroke-linecap="round" stroke-linejoin="round" fill="none" stroke="#000" d="M623.994 204.193c.13.777 1.554 1.943 1.942 2.072-.388.13-1.813 1.295-1.942 2.072"/><path d="M675.587 215.975h29.693v-19.42h-29.693z" fill="#fff"/><path stroke-width=".797" stroke-miterlimit="10" fill="none" stroke="#000" d="M675.587 215.975h29.693v-19.42h-29.693z"/><use xlink:href="#ac" transform="matrix(7.6075 0 0 -7.6075 679.608 204.848)"/><use xlink:href="#ad" transform="matrix(10.0363 0 0 -10.0363 683.845 208.808)"/><symbol id="au"><path d="M.239.514C.079.514 0 .419 0 .257S.079 0 .239 0c.162 0 .24.095.24.257S.401.514.239.514M.104.257c0 .138.044.222.135.222.093 0 .136-.084.136-.222S.332.035.239.035C.148.035.104.119.104.257z"/></symbol><symbol id="av"><path d="M.565.012v.029C.496.046.49.048.49.099v.409L.483.514.326.489V.464L.364.459C.39.455.396.45.396.414V.189a.16.16 0 0 0-.008-.06.137.137 0 0 0-.123-.075C.207.054.164.09.164.168v.34L.157.514 0 .489V.464L.038.459C.064.455.07.45.07.414V.15C.07.035.138 0 .212 0c.085 0 .154.058.183.072l.01-.06h.16z"/></symbol><symbol id="aw"><path d="M.295.462v.04H.166v.126H.137L.076.502H0v-.04h.072V.114C.072.012.148 0 .183 0c.051 0 .099.026.128.044L.303.065A.175.175 0 0 0 .232.052c-.034 0-.066.024-.066.1v.31h.129z"/></symbol><use xlink:href="#au" transform="matrix(7.6075 0 0 -7.6075 690.33 204.94)"/><use xlink:href="#av" transform="matrix(7.6075 0 0 -7.6075 694.544 204.94)"/><use xlink:href="#aw" transform="matrix(7.6075 0 0 -7.6075 699.2 204.94)"/><use xlink:href="#Z" transform="matrix(7.6075 0 0 -7.6075 690.756 212.8)"/><symbol id="ax"><path d="M.343.387c.023 0 .066.007.066.066 0 .045-.096.059-.126.059C.118.512 0 .368 0 .171 0 .059.067 0 .167 0c.069 0 .144.039.186.108L.335.123A.198.198 0 0 0 .191.055c-.071 0-.1.042-.1.104 0 .027.005.059.012.091.001.004.006.009.011.009.049 0 .089-.012.121-.012.015 0 .026.004.032.028a.038.038 0 0 1 .001.01C.268.3.26.303.247.303.214.303.17.291.123.291.118.291.115.293.115.297l.001.004c.032.111.071.17.149.17.074 0 .044-.084.078-.084z"/></symbol><use xlink:href="#ax" transform="matrix(7.6075 0 0 -7.6075 693.448 212.793)"/><path d="M675.587 159.403h29.693V139.74h-29.693z" fill="#fff"/><path stroke-width=".797" stroke-miterlimit="10" fill="none" stroke="#000" d="M675.587 159.403h29.693V139.74h-29.693z"/><use xlink:href="#ai" transform="matrix(7.6075 0 0 -7.6075 678.984 148.125)"/><use xlink:href="#ad" transform="matrix(10.0363 0 0 -10.0363 683.845 151.994)"/><use xlink:href="#au" transform="matrix(7.6075 0 0 -7.6075 690.33 148.125)"/><use xlink:href="#av" transform="matrix(7.6075 0 0 -7.6075 694.544 148.125)"/><use xlink:href="#aw" transform="matrix(7.6075 0 0 -7.6075 699.2 148.125)"/><use xlink:href="#Z" transform="matrix(7.6075 0 0 -7.6075 690.756 156.18)"/><symbol id="ay"><path d="M.467.377c.012.058.021.12.021.176 0 .111-.036.202-.161.202C.088.755 0 .398 0 .198 0 .084.04 0 .163 0c.183 0 .261.185.304.377m-.091.03h-.25c.018.085.073.315.193.315C.382.722.4.66.4.588A.925.925 0 0 0 .376.407M.368.371C.343.253.287.03.169.03.108.03.09.089.09.163c0 .069.016.151.028.208h.25z"/></symbol><use xlink:href="#ay" transform="matrix(7.6075 0 0 -7.6075 693.524 156.187)"/><path d="M675.587 102.71h29.693V83.046h-29.693z" fill="#fff"/><path stroke-width=".797" stroke-miterlimit="10" fill="none" stroke="#000" d="M675.587 102.71h29.693V83.046h-29.693z"/><use xlink:href="#ak" transform="matrix(7.6075 0 0 -7.6075 679.083 91.432)"/><use xlink:href="#ad" transform="matrix(10.0363 0 0 -10.0363 683.845 95.301)"/><use xlink:href="#au" transform="matrix(7.6075 0 0 -7.6075 690.33 91.432)"/><use xlink:href="#av" transform="matrix(7.6075 0 0 -7.6075 694.544 91.432)"/><use xlink:href="#aw" transform="matrix(7.6075 0 0 -7.6075 699.2 91.432)"/><use xlink:href="#Z" transform="matrix(7.6075 0 0 -7.6075 690.756 99.486)"/><use xlink:href="#ay" transform="matrix(7.6075 0 0 -7.6075 693.524 99.494)"/><path stroke-width=".399" stroke-dasharray=".3985,1.99255" stroke-miterlimit="10" fill="none" stroke="#000" d="M595.037 92.878h80.152M593.024 149.571h82.165"/><path stroke-width=".797" stroke-miterlimit="10" fill="none" stroke="#000" d="M655.399 206.265h19.083"/><path stroke-width=".638" stroke-linecap="round" stroke-linejoin="round" fill="none" stroke="#000" d="M672.927 204.193c.13.777 1.555 1.943 1.943 2.072-.388.13-1.813 1.295-1.943 2.072"/><path stroke-width=".797" stroke-miterlimit="10" fill="none" stroke="#000" d="m523.7 199.57 10.827-21.652V101.07"/><path stroke-width=".638" stroke-linecap="round" stroke-linejoin="round" fill="none" stroke="#000" d="M532.454 102.624c.777-.129 1.943-1.554 2.073-1.942.129.388 1.295 1.813 2.072 1.942"/><path stroke-width=".797" stroke-miterlimit="10" fill="none" stroke="#000" d="M577.047 216.483v18.129H151.845v-17.519"/><path stroke-width=".638" stroke-linecap="round" stroke-linejoin="round" fill="none" stroke="#000" d="M149.772 218.647c.778-.13 1.943-1.554 2.073-1.942.13.388 1.295 1.813 2.072 1.942"/></svg>