<?xml version="1.0" encoding="utf-8"?><svg xmlns="http://www.w3.org/2000/svg" xmlns:xlink="http://www.w3.org/1999/xlink"><symbol class="dicon dicon-tabler dicon-tabler-brand-github" stroke-width="2" stroke="currentColor" fill="none" stroke-linecap="round" stroke-linejoin="round" viewBox="0 0 24 24" id="brand-github" xmlns="http://www.w3.org/2000/svg"><path d="M0 0h24v24H0z" stroke="none"/><path d="M9 19c-4.3 1.4-4.3-2.5-6-3m12 5v-3.5c0-1 .1-1.4-.5-2 2.8-.3 5.5-1.4 5.5-6a4.6 4.6 0 0 0-1.3-3.2 4.2 4.2 0 0 0-.1-3.2s-1.1-.3-3.5 1.3a12.3 12.3 0 0 0-6.2 0C6.5 2.8 5.4 3.1 5.4 3.1a4.2 4.2 0 0 0-.1 3.2A4.6 4.6 0 0 0 4 9.5c0 4.6 2.7 5.7 5.5 6-.6.6-.6 1.2-.5 2V21"/></symbol><symbol class="aicon aicon-tabler aicon-tabler-menu-2" stroke-width="2" stroke="currentColor" fill="none" stroke-linecap="round" stroke-linejoin="round" viewBox="0 0 24 24" id="menu-2" xmlns="http://www.w3.org/2000/svg"><path d="M0 0h24v24H0z" stroke="none"/><path d="M4 6h16M4 12h16M4 18h16"/></symbol><symbol class="bicon bicon-tabler bicon-tabler-search" stroke-width="2" stroke="currentColor" fill="none" stroke-linecap="round" stroke-linejoin="round" viewBox="0 0 24 24" id="search" xmlns="http://www.w3.org/2000/svg"><path d="M0 0h24v24H0z" stroke="none"/><path d="M3 10a7 7 0 1 0 14 0 7 7 0 1 0-14 0M21 21l-6-6"/></symbol><symbol class="cicon cicon-tabler cicon-tabler-tag" stroke-width="2" stroke="currentColor" fill="none" stroke-linecap="round" stroke-linejoin="round" viewBox="0 0 24 24" id="tag" xmlns="http://www.w3.org/2000/svg"><path d="M0 0h24v24H0z" stroke="none"/><circle cx="8.5" cy="8.5" r="1" fill="currentColor"/><path d="M4 7v3.859c0 .537.213 1.052.593 1.432l8.116 8.116a2.025 2.025 0 0 0 2.864 0l4.834-4.834a2.025 2.025 0 0 0 0-2.864L12.29 4.593A2.025 2.025 0 0 0 10.859 4H7a3 3 0 0 0-3 3z"/></symbol></svg>